<svg xmlns="http://www.w3.org/2000/svg" viewBox="0 0 1440 900" role="img" aria-labelledby="title desc">
  <title id="title">Yield Curve &amp; Credit Spread Monitor preview (dark mode)</title>
  <desc id="desc">A stylized mock-up of the tool UI displayed in dark theme.</desc>
  <defs>
    <linearGradient id="bgDark" x1="0" y1="0" x2="0" y2="1">
      <stop offset="0%" stop-color="#111827" />
      <stop offset="100%" stop-color="#0b1120" />
    </linearGradient>
    <linearGradient id="panelDark" x1="0" y1="0" x2="1" y2="1">
      <stop offset="0%" stop-color="#1e293b" />
      <stop offset="100%" stop-color="#0f172a" />
    </linearGradient>
    <linearGradient id="cardDark" x1="0" y1="0" x2="1" y2="1">
      <stop offset="0%" stop-color="#1e1b4b" />
      <stop offset="100%" stop-color="#312e81" />
    </linearGradient>
  </defs>
  <rect width="1440" height="900" rx="46" fill="url(#bgDark)" />
  <g transform="translate(120 120)">
    <rect x="0" y="0" width="320" height="46" rx="23" fill="rgba(99,102,241,0.25)" />
    <text x="160" y="30" text-anchor="middle" font-family="Inter" font-size="22" fill="#c7d2fe">Fixed-Income Intelligence</text>
    <text x="0" y="110" font-family="Inter" font-size="56" fill="#e2e8f0" font-weight="700">Yield Curve &amp; Credit Spread Monitor</text>
    <text x="0" y="160" font-family="Inter" font-size="22" fill="#cbd5f5">Live Treasury yields with corporate spread context.</text>
    <g transform="translate(0, 210)" font-family="Inter">
      <g>
        <rect x="0" y="0" width="240" height="160" rx="28" fill="url(#cardDark)" />
        <text x="28" y="48" font-size="16" fill="#c7d2fe" letter-spacing="6">10Y TREASURY</text>
        <text x="28" y="110" font-size="48" fill="#f8fafc" font-weight="700">4.38%</text>
        <text x="28" y="146" font-size="20" fill="#60a5fa">▲ 12 bps</text>
      </g>
      <g transform="translate(260, 0)">
        <rect x="0" y="0" width="240" height="160" rx="28" fill="url(#cardDark)" />
        <text x="28" y="48" font-size="16" fill="#c7d2fe" letter-spacing="6">2Y TREASURY</text>
        <text x="28" y="110" font-size="48" fill="#f8fafc" font-weight="700">4.56%</text>
        <text x="28" y="146" font-size="20" fill="#f87171">▼ 6 bps</text>
      </g>
      <g transform="translate(520, 0)">
        <rect x="0" y="0" width="240" height="160" rx="28" fill="url(#cardDark)" />
        <text x="28" y="48" font-size="16" fill="#c7d2fe" letter-spacing="6">10Y − 2Y</text>
        <text x="28" y="110" font-size="48" fill="#f8fafc" font-weight="700">−18 bps</text>
        <text x="28" y="146" font-size="20" fill="#60a5fa">▲ 4 bps</text>
      </g>
      <g transform="translate(780, 0)">
        <rect x="0" y="0" width="240" height="160" rx="28" fill="url(#cardDark)" />
        <text x="28" y="48" font-size="16" fill="#c7d2fe" letter-spacing="6">IG OAS</text>
        <text x="28" y="110" font-size="48" fill="#f8fafc" font-weight="700">131 bps</text>
        <text x="28" y="146" font-size="20" fill="#60a5fa">▲ 3 bps</text>
      </g>
      <g transform="translate(1040, 0)">
        <rect x="0" y="0" width="240" height="160" rx="28" fill="url(#cardDark)" />
        <text x="28" y="48" font-size="16" fill="#c7d2fe" letter-spacing="6">HY OAS</text>
        <text x="28" y="110" font-size="48" fill="#f8fafc" font-weight="700">342 bps</text>
        <text x="28" y="146" font-size="20" fill="#f87171">▼ 8 bps</text>
      </g>
    </g>
    <g transform="translate(0, 420)">
      <rect width="820" height="320" rx="32" fill="url(#panelDark)" />
      <text x="40" y="60" font-family="Inter" font-size="30" fill="#e2e8f0" font-weight="600">Yield Curve Profiles</text>
      <polyline fill="none" stroke="#64748b" stroke-width="4" points="120,250 220,220 320,212 420,205 520,198 620,192 720,188" stroke-linecap="round" stroke-linejoin="round" />
      <polyline fill="none" stroke="#818cf8" stroke-width="4" points="120,260 220,236 320,226 420,214 520,208 620,202 720,196" stroke-linecap="round" stroke-linejoin="round" />
      <polyline fill="none" stroke="#3b82f6" stroke-width="4" points="120,272 220,245 320,230 420,220 520,210 620,204 720,198" stroke-linecap="round" stroke-linejoin="round" />
    </g>
    <g transform="translate(860, 420)">
      <rect width="460" height="320" rx="32" fill="url(#panelDark)" />
      <text x="40" y="60" font-family="Inter" font-size="30" fill="#e2e8f0" font-weight="600">Credit &amp; Curve Spreads</text>
      <polyline fill="none" stroke="#818cf8" stroke-width="4" points="90,260 170,236 250,248 330,220 410,236" stroke-linecap="round" stroke-linejoin="round" />
      <polyline fill="none" stroke="#f472b6" stroke-width="4" points="90,286 170,302 250,274 330,316 410,292" stroke-linecap="round" stroke-linejoin="round" />
      <polyline fill="none" stroke="#2dd4bf" stroke-width="4" points="90,292 170,284 250,276 330,268 410,258" stroke-dasharray="14 12" stroke-linecap="round" stroke-linejoin="round" />
    </g>
  </g>
</svg>
