<?xml version="1.0" encoding="utf-8" standalone="no"?>
<!DOCTYPE svg PUBLIC "-//W3C//DTD SVG 1.1//EN"
  "http://www.w3.org/Graphics/SVG/1.1/DTD/svg11.dtd">
<svg xmlns:xlink="http://www.w3.org/1999/xlink" width="550.976016pt" height="263.336719pt" viewBox="0 0 550.976016 263.336719" xmlns="http://www.w3.org/2000/svg" version="1.1">
 <metadata>
  <rdf:RDF xmlns:dc="http://purl.org/dc/elements/1.1/" xmlns:cc="http://creativecommons.org/ns#" xmlns:rdf="http://www.w3.org/1999/02/22-rdf-syntax-ns#">
   <cc:Work>
    <dc:type rdf:resource="http://purl.org/dc/dcmitype/StillImage"/>
    <dc:date>2025-10-25T20:37:50.351651</dc:date>
    <dc:format>image/svg+xml</dc:format>
    <dc:creator>
     <cc:Agent>
      <dc:title>Matplotlib v3.10.7, https://matplotlib.org/</dc:title>
     </cc:Agent>
    </dc:creator>
   </cc:Work>
  </rdf:RDF>
 </metadata>
 <defs>
  <style type="text/css">*{stroke-linejoin: round; stroke-linecap: butt}</style>
 </defs>
 <g id="figure_1">
  <g id="patch_1">
   <path d="M 0 263.336719 
L 550.976016 263.336719 
L 550.976016 0 
L 0 0 
z
" style="fill: #ffffff"/>
  </g>
  <g id="axes_1">
   <g id="patch_2">
    <path d="M 81.187266 206.247187 
L 543.776016 206.247187 
L 543.776016 26.877187 
L 81.187266 26.877187 
z
" style="fill: #ffffff"/>
   </g>
   <g id="matplotlib.axis_1">
    <g id="xtick_1">
     <g id="text_1">
      <!-- 2023-01 -->
      <g style="fill: #262626" transform="translate(93.498106 231.284609) scale(0.165 -0.165)">
       <defs>
        <path id="DejaVuSans-32" d="M 1228 531 
L 3431 531 
L 3431 0 
L 469 0 
L 469 531 
Q 828 903 1448 1529 
Q 2069 2156 2228 2338 
Q 2531 2678 2651 2914 
Q 2772 3150 2772 3378 
Q 2772 3750 2511 3984 
Q 2250 4219 1831 4219 
Q 1534 4219 1204 4116 
Q 875 4013 500 3803 
L 500 4441 
Q 881 4594 1212 4672 
Q 1544 4750 1819 4750 
Q 2544 4750 2975 4387 
Q 3406 4025 3406 3419 
Q 3406 3131 3298 2873 
Q 3191 2616 2906 2266 
Q 2828 2175 2409 1742 
Q 1991 1309 1228 531 
z
" transform="scale(0.015625)"/>
        <path id="DejaVuSans-30" d="M 2034 4250 
Q 1547 4250 1301 3770 
Q 1056 3291 1056 2328 
Q 1056 1369 1301 889 
Q 1547 409 2034 409 
Q 2525 409 2770 889 
Q 3016 1369 3016 2328 
Q 3016 3291 2770 3770 
Q 2525 4250 2034 4250 
z
M 2034 4750 
Q 2819 4750 3233 4129 
Q 3647 3509 3647 2328 
Q 3647 1150 3233 529 
Q 2819 -91 2034 -91 
Q 1250 -91 836 529 
Q 422 1150 422 2328 
Q 422 3509 836 4129 
Q 1250 4750 2034 4750 
z
" transform="scale(0.015625)"/>
        <path id="DejaVuSans-33" d="M 2597 2516 
Q 3050 2419 3304 2112 
Q 3559 1806 3559 1356 
Q 3559 666 3084 287 
Q 2609 -91 1734 -91 
Q 1441 -91 1130 -33 
Q 819 25 488 141 
L 488 750 
Q 750 597 1062 519 
Q 1375 441 1716 441 
Q 2309 441 2620 675 
Q 2931 909 2931 1356 
Q 2931 1769 2642 2001 
Q 2353 2234 1838 2234 
L 1294 2234 
L 1294 2753 
L 1863 2753 
Q 2328 2753 2575 2939 
Q 2822 3125 2822 3475 
Q 2822 3834 2567 4026 
Q 2313 4219 1838 4219 
Q 1578 4219 1281 4162 
Q 984 4106 628 3988 
L 628 4550 
Q 988 4650 1302 4700 
Q 1616 4750 1894 4750 
Q 2613 4750 3031 4423 
Q 3450 4097 3450 3541 
Q 3450 3153 3228 2886 
Q 3006 2619 2597 2516 
z
" transform="scale(0.015625)"/>
        <path id="DejaVuSans-2d" d="M 313 2009 
L 1997 2009 
L 1997 1497 
L 313 1497 
L 313 2009 
z
" transform="scale(0.015625)"/>
        <path id="DejaVuSans-31" d="M 794 531 
L 1825 531 
L 1825 4091 
L 703 3866 
L 703 4441 
L 1819 4666 
L 2450 4666 
L 2450 531 
L 3481 531 
L 3481 0 
L 794 0 
L 794 531 
z
" transform="scale(0.015625)"/>
       </defs>
       <use xlink:href="#DejaVuSans-32"/>
       <use xlink:href="#DejaVuSans-30" transform="translate(63.623047 0)"/>
       <use xlink:href="#DejaVuSans-32" transform="translate(127.246094 0)"/>
       <use xlink:href="#DejaVuSans-33" transform="translate(190.869141 0)"/>
       <use xlink:href="#DejaVuSans-2d" transform="translate(254.492188 0)"/>
       <use xlink:href="#DejaVuSans-30" transform="translate(290.576172 0)"/>
       <use xlink:href="#DejaVuSans-31" transform="translate(354.199219 0)"/>
      </g>
     </g>
    </g>
    <g id="xtick_2">
     <g id="text_2">
      <!-- 2023-05 -->
      <g style="fill: #262626" transform="translate(139.626285 231.284609) scale(0.165 -0.165)">
       <defs>
        <path id="DejaVuSans-35" d="M 691 4666 
L 3169 4666 
L 3169 4134 
L 1269 4134 
L 1269 2991 
Q 1406 3038 1543 3061 
Q 1681 3084 1819 3084 
Q 2600 3084 3056 2656 
Q 3513 2228 3513 1497 
Q 3513 744 3044 326 
Q 2575 -91 1722 -91 
Q 1428 -91 1123 -41 
Q 819 9 494 109 
L 494 744 
Q 775 591 1075 516 
Q 1375 441 1709 441 
Q 2250 441 2565 725 
Q 2881 1009 2881 1497 
Q 2881 1984 2565 2268 
Q 2250 2553 1709 2553 
Q 1456 2553 1204 2497 
Q 953 2441 691 2322 
L 691 4666 
z
" transform="scale(0.015625)"/>
       </defs>
       <use xlink:href="#DejaVuSans-32"/>
       <use xlink:href="#DejaVuSans-30" transform="translate(63.623047 0)"/>
       <use xlink:href="#DejaVuSans-32" transform="translate(127.246094 0)"/>
       <use xlink:href="#DejaVuSans-33" transform="translate(190.869141 0)"/>
       <use xlink:href="#DejaVuSans-2d" transform="translate(254.492188 0)"/>
       <use xlink:href="#DejaVuSans-30" transform="translate(290.576172 0)"/>
       <use xlink:href="#DejaVuSans-35" transform="translate(354.199219 0)"/>
      </g>
     </g>
    </g>
    <g id="xtick_3">
     <g id="text_3">
      <!-- 2023-09 -->
      <g style="fill: #262626" transform="translate(186.907668 231.284609) scale(0.165 -0.165)">
       <defs>
        <path id="DejaVuSans-39" d="M 703 97 
L 703 672 
Q 941 559 1184 500 
Q 1428 441 1663 441 
Q 2288 441 2617 861 
Q 2947 1281 2994 2138 
Q 2813 1869 2534 1725 
Q 2256 1581 1919 1581 
Q 1219 1581 811 2004 
Q 403 2428 403 3163 
Q 403 3881 828 4315 
Q 1253 4750 1959 4750 
Q 2769 4750 3195 4129 
Q 3622 3509 3622 2328 
Q 3622 1225 3098 567 
Q 2575 -91 1691 -91 
Q 1453 -91 1209 -44 
Q 966 3 703 97 
z
M 1959 2075 
Q 2384 2075 2632 2365 
Q 2881 2656 2881 3163 
Q 2881 3666 2632 3958 
Q 2384 4250 1959 4250 
Q 1534 4250 1286 3958 
Q 1038 3666 1038 3163 
Q 1038 2656 1286 2365 
Q 1534 2075 1959 2075 
z
" transform="scale(0.015625)"/>
       </defs>
       <use xlink:href="#DejaVuSans-32"/>
       <use xlink:href="#DejaVuSans-30" transform="translate(63.623047 0)"/>
       <use xlink:href="#DejaVuSans-32" transform="translate(127.246094 0)"/>
       <use xlink:href="#DejaVuSans-33" transform="translate(190.869141 0)"/>
       <use xlink:href="#DejaVuSans-2d" transform="translate(254.492188 0)"/>
       <use xlink:href="#DejaVuSans-30" transform="translate(290.576172 0)"/>
       <use xlink:href="#DejaVuSans-39" transform="translate(354.199219 0)"/>
      </g>
     </g>
    </g>
    <g id="xtick_4">
     <g id="text_4">
      <!-- 2024-01 -->
      <g style="fill: #262626" transform="translate(233.804649 231.284609) scale(0.165 -0.165)">
       <defs>
        <path id="DejaVuSans-34" d="M 2419 4116 
L 825 1625 
L 2419 1625 
L 2419 4116 
z
M 2253 4666 
L 3047 4666 
L 3047 1625 
L 3713 1625 
L 3713 1100 
L 3047 1100 
L 3047 0 
L 2419 0 
L 2419 1100 
L 313 1100 
L 313 1709 
L 2253 4666 
z
" transform="scale(0.015625)"/>
       </defs>
       <use xlink:href="#DejaVuSans-32"/>
       <use xlink:href="#DejaVuSans-30" transform="translate(63.623047 0)"/>
       <use xlink:href="#DejaVuSans-32" transform="translate(127.246094 0)"/>
       <use xlink:href="#DejaVuSans-34" transform="translate(190.869141 0)"/>
       <use xlink:href="#DejaVuSans-2d" transform="translate(254.492188 0)"/>
       <use xlink:href="#DejaVuSans-30" transform="translate(290.576172 0)"/>
       <use xlink:href="#DejaVuSans-31" transform="translate(354.199219 0)"/>
      </g>
     </g>
    </g>
    <g id="xtick_5">
     <g id="text_5">
      <!-- 2024-05 -->
      <g style="fill: #262626" transform="translate(280.317229 231.284609) scale(0.165 -0.165)">
       <use xlink:href="#DejaVuSans-32"/>
       <use xlink:href="#DejaVuSans-30" transform="translate(63.623047 0)"/>
       <use xlink:href="#DejaVuSans-32" transform="translate(127.246094 0)"/>
       <use xlink:href="#DejaVuSans-34" transform="translate(190.869141 0)"/>
       <use xlink:href="#DejaVuSans-2d" transform="translate(254.492188 0)"/>
       <use xlink:href="#DejaVuSans-30" transform="translate(290.576172 0)"/>
       <use xlink:href="#DejaVuSans-35" transform="translate(354.199219 0)"/>
      </g>
     </g>
    </g>
    <g id="xtick_6">
     <g id="text_6">
      <!-- 2024-09 -->
      <g style="fill: #262626" transform="translate(327.598612 231.284609) scale(0.165 -0.165)">
       <use xlink:href="#DejaVuSans-32"/>
       <use xlink:href="#DejaVuSans-30" transform="translate(63.623047 0)"/>
       <use xlink:href="#DejaVuSans-32" transform="translate(127.246094 0)"/>
       <use xlink:href="#DejaVuSans-34" transform="translate(190.869141 0)"/>
       <use xlink:href="#DejaVuSans-2d" transform="translate(254.492188 0)"/>
       <use xlink:href="#DejaVuSans-30" transform="translate(290.576172 0)"/>
       <use xlink:href="#DejaVuSans-39" transform="translate(354.199219 0)"/>
      </g>
     </g>
    </g>
    <g id="xtick_7">
     <g id="text_7">
      <!-- 2025-01 -->
      <g style="fill: #262626" transform="translate(374.495594 231.284609) scale(0.165 -0.165)">
       <use xlink:href="#DejaVuSans-32"/>
       <use xlink:href="#DejaVuSans-30" transform="translate(63.623047 0)"/>
       <use xlink:href="#DejaVuSans-32" transform="translate(127.246094 0)"/>
       <use xlink:href="#DejaVuSans-35" transform="translate(190.869141 0)"/>
       <use xlink:href="#DejaVuSans-2d" transform="translate(254.492188 0)"/>
       <use xlink:href="#DejaVuSans-30" transform="translate(290.576172 0)"/>
       <use xlink:href="#DejaVuSans-31" transform="translate(354.199219 0)"/>
      </g>
     </g>
    </g>
    <g id="xtick_8">
     <g id="text_8">
      <!-- 2025-05 -->
      <g style="fill: #262626" transform="translate(420.623772 231.284609) scale(0.165 -0.165)">
       <use xlink:href="#DejaVuSans-32"/>
       <use xlink:href="#DejaVuSans-30" transform="translate(63.623047 0)"/>
       <use xlink:href="#DejaVuSans-32" transform="translate(127.246094 0)"/>
       <use xlink:href="#DejaVuSans-35" transform="translate(190.869141 0)"/>
       <use xlink:href="#DejaVuSans-2d" transform="translate(254.492188 0)"/>
       <use xlink:href="#DejaVuSans-30" transform="translate(290.576172 0)"/>
       <use xlink:href="#DejaVuSans-35" transform="translate(354.199219 0)"/>
      </g>
     </g>
    </g>
    <g id="xtick_9">
     <g id="text_9">
      <!-- 2025-09 -->
      <g style="fill: #262626" transform="translate(467.905155 231.284609) scale(0.165 -0.165)">
       <use xlink:href="#DejaVuSans-32"/>
       <use xlink:href="#DejaVuSans-30" transform="translate(63.623047 0)"/>
       <use xlink:href="#DejaVuSans-32" transform="translate(127.246094 0)"/>
       <use xlink:href="#DejaVuSans-35" transform="translate(190.869141 0)"/>
       <use xlink:href="#DejaVuSans-2d" transform="translate(254.492188 0)"/>
       <use xlink:href="#DejaVuSans-30" transform="translate(290.576172 0)"/>
       <use xlink:href="#DejaVuSans-39" transform="translate(354.199219 0)"/>
      </g>
     </g>
    </g>
    <g id="text_10">
     <!-- Date -->
     <g style="fill: #262626" transform="translate(290.970234 252.393281) scale(0.18 -0.18)">
      <defs>
       <path id="DejaVuSans-44" d="M 1259 4147 
L 1259 519 
L 2022 519 
Q 2988 519 3436 956 
Q 3884 1394 3884 2338 
Q 3884 3275 3436 3711 
Q 2988 4147 2022 4147 
L 1259 4147 
z
M 628 4666 
L 1925 4666 
Q 3281 4666 3915 4102 
Q 4550 3538 4550 2338 
Q 4550 1131 3912 565 
Q 3275 0 1925 0 
L 628 0 
L 628 4666 
z
" transform="scale(0.015625)"/>
       <path id="DejaVuSans-61" d="M 2194 1759 
Q 1497 1759 1228 1600 
Q 959 1441 959 1056 
Q 959 750 1161 570 
Q 1363 391 1709 391 
Q 2188 391 2477 730 
Q 2766 1069 2766 1631 
L 2766 1759 
L 2194 1759 
z
M 3341 1997 
L 3341 0 
L 2766 0 
L 2766 531 
Q 2569 213 2275 61 
Q 1981 -91 1556 -91 
Q 1019 -91 701 211 
Q 384 513 384 1019 
Q 384 1609 779 1909 
Q 1175 2209 1959 2209 
L 2766 2209 
L 2766 2266 
Q 2766 2663 2505 2880 
Q 2244 3097 1772 3097 
Q 1472 3097 1187 3025 
Q 903 2953 641 2809 
L 641 3341 
Q 956 3463 1253 3523 
Q 1550 3584 1831 3584 
Q 2591 3584 2966 3190 
Q 3341 2797 3341 1997 
z
" transform="scale(0.015625)"/>
       <path id="DejaVuSans-74" d="M 1172 4494 
L 1172 3500 
L 2356 3500 
L 2356 3053 
L 1172 3053 
L 1172 1153 
Q 1172 725 1289 603 
Q 1406 481 1766 481 
L 2356 481 
L 2356 0 
L 1766 0 
Q 1100 0 847 248 
Q 594 497 594 1153 
L 594 3053 
L 172 3053 
L 172 3500 
L 594 3500 
L 594 4494 
L 1172 4494 
z
" transform="scale(0.015625)"/>
       <path id="DejaVuSans-65" d="M 3597 1894 
L 3597 1613 
L 953 1613 
Q 991 1019 1311 708 
Q 1631 397 2203 397 
Q 2534 397 2845 478 
Q 3156 559 3463 722 
L 3463 178 
Q 3153 47 2828 -22 
Q 2503 -91 2169 -91 
Q 1331 -91 842 396 
Q 353 884 353 1716 
Q 353 2575 817 3079 
Q 1281 3584 2069 3584 
Q 2775 3584 3186 3129 
Q 3597 2675 3597 1894 
z
M 3022 2063 
Q 3016 2534 2758 2815 
Q 2500 3097 2075 3097 
Q 1594 3097 1305 2825 
Q 1016 2553 972 2059 
L 3022 2063 
z
" transform="scale(0.015625)"/>
      </defs>
      <use xlink:href="#DejaVuSans-44"/>
      <use xlink:href="#DejaVuSans-61" transform="translate(77.001953 0)"/>
      <use xlink:href="#DejaVuSans-74" transform="translate(138.28125 0)"/>
      <use xlink:href="#DejaVuSans-65" transform="translate(177.490234 0)"/>
     </g>
    </g>
   </g>
   <g id="matplotlib.axis_2">
    <g id="ytick_1">
     <g id="text_11">
      <!-- −5.0 -->
      <g style="fill: #262626" transform="translate(28.620625 211.130038) scale(0.165 -0.165)">
       <defs>
        <path id="DejaVuSans-2212" d="M 678 2272 
L 4684 2272 
L 4684 1741 
L 678 1741 
L 678 2272 
z
" transform="scale(0.015625)"/>
        <path id="DejaVuSans-2e" d="M 684 794 
L 1344 794 
L 1344 0 
L 684 0 
L 684 794 
z
" transform="scale(0.015625)"/>
       </defs>
       <use xlink:href="#DejaVuSans-2212"/>
       <use xlink:href="#DejaVuSans-35" transform="translate(83.789062 0)"/>
       <use xlink:href="#DejaVuSans-2e" transform="translate(147.412109 0)"/>
       <use xlink:href="#DejaVuSans-30" transform="translate(179.199219 0)"/>
      </g>
     </g>
    </g>
    <g id="ytick_2">
     <g id="text_12">
      <!-- −2.5 -->
      <g style="fill: #262626" transform="translate(28.620625 174.487719) scale(0.165 -0.165)">
       <use xlink:href="#DejaVuSans-2212"/>
       <use xlink:href="#DejaVuSans-32" transform="translate(83.789062 0)"/>
       <use xlink:href="#DejaVuSans-2e" transform="translate(147.412109 0)"/>
       <use xlink:href="#DejaVuSans-35" transform="translate(179.199219 0)"/>
      </g>
     </g>
    </g>
    <g id="ytick_3">
     <g id="text_13">
      <!-- 0.0 -->
      <g style="fill: #262626" transform="translate(42.447109 137.845401) scale(0.165 -0.165)">
       <use xlink:href="#DejaVuSans-30"/>
       <use xlink:href="#DejaVuSans-2e" transform="translate(63.623047 0)"/>
       <use xlink:href="#DejaVuSans-30" transform="translate(95.410156 0)"/>
      </g>
     </g>
    </g>
    <g id="ytick_4">
     <g id="text_14">
      <!-- 2.5 -->
      <g style="fill: #262626" transform="translate(42.447109 101.203083) scale(0.165 -0.165)">
       <use xlink:href="#DejaVuSans-32"/>
       <use xlink:href="#DejaVuSans-2e" transform="translate(63.623047 0)"/>
       <use xlink:href="#DejaVuSans-35" transform="translate(95.410156 0)"/>
      </g>
     </g>
    </g>
    <g id="ytick_5">
     <g id="text_15">
      <!-- 5.0 -->
      <g style="fill: #262626" transform="translate(42.447109 64.560765) scale(0.165 -0.165)">
       <use xlink:href="#DejaVuSans-35"/>
       <use xlink:href="#DejaVuSans-2e" transform="translate(63.623047 0)"/>
       <use xlink:href="#DejaVuSans-30" transform="translate(95.410156 0)"/>
      </g>
     </g>
    </g>
    <g id="text_16">
     <!-- Standardized units -->
     <g style="fill: #262626" transform="translate(20.877188 200.968125) rotate(-90) scale(0.18 -0.18)">
      <defs>
       <path id="DejaVuSans-53" d="M 3425 4513 
L 3425 3897 
Q 3066 4069 2747 4153 
Q 2428 4238 2131 4238 
Q 1616 4238 1336 4038 
Q 1056 3838 1056 3469 
Q 1056 3159 1242 3001 
Q 1428 2844 1947 2747 
L 2328 2669 
Q 3034 2534 3370 2195 
Q 3706 1856 3706 1288 
Q 3706 609 3251 259 
Q 2797 -91 1919 -91 
Q 1588 -91 1214 -16 
Q 841 59 441 206 
L 441 856 
Q 825 641 1194 531 
Q 1563 422 1919 422 
Q 2459 422 2753 634 
Q 3047 847 3047 1241 
Q 3047 1584 2836 1778 
Q 2625 1972 2144 2069 
L 1759 2144 
Q 1053 2284 737 2584 
Q 422 2884 422 3419 
Q 422 4038 858 4394 
Q 1294 4750 2059 4750 
Q 2388 4750 2728 4690 
Q 3069 4631 3425 4513 
z
" transform="scale(0.015625)"/>
       <path id="DejaVuSans-6e" d="M 3513 2113 
L 3513 0 
L 2938 0 
L 2938 2094 
Q 2938 2591 2744 2837 
Q 2550 3084 2163 3084 
Q 1697 3084 1428 2787 
Q 1159 2491 1159 1978 
L 1159 0 
L 581 0 
L 581 3500 
L 1159 3500 
L 1159 2956 
Q 1366 3272 1645 3428 
Q 1925 3584 2291 3584 
Q 2894 3584 3203 3211 
Q 3513 2838 3513 2113 
z
" transform="scale(0.015625)"/>
       <path id="DejaVuSans-64" d="M 2906 2969 
L 2906 4863 
L 3481 4863 
L 3481 0 
L 2906 0 
L 2906 525 
Q 2725 213 2448 61 
Q 2172 -91 1784 -91 
Q 1150 -91 751 415 
Q 353 922 353 1747 
Q 353 2572 751 3078 
Q 1150 3584 1784 3584 
Q 2172 3584 2448 3432 
Q 2725 3281 2906 2969 
z
M 947 1747 
Q 947 1113 1208 752 
Q 1469 391 1925 391 
Q 2381 391 2643 752 
Q 2906 1113 2906 1747 
Q 2906 2381 2643 2742 
Q 2381 3103 1925 3103 
Q 1469 3103 1208 2742 
Q 947 2381 947 1747 
z
" transform="scale(0.015625)"/>
       <path id="DejaVuSans-72" d="M 2631 2963 
Q 2534 3019 2420 3045 
Q 2306 3072 2169 3072 
Q 1681 3072 1420 2755 
Q 1159 2438 1159 1844 
L 1159 0 
L 581 0 
L 581 3500 
L 1159 3500 
L 1159 2956 
Q 1341 3275 1631 3429 
Q 1922 3584 2338 3584 
Q 2397 3584 2469 3576 
Q 2541 3569 2628 3553 
L 2631 2963 
z
" transform="scale(0.015625)"/>
       <path id="DejaVuSans-69" d="M 603 3500 
L 1178 3500 
L 1178 0 
L 603 0 
L 603 3500 
z
M 603 4863 
L 1178 4863 
L 1178 4134 
L 603 4134 
L 603 4863 
z
" transform="scale(0.015625)"/>
       <path id="DejaVuSans-7a" d="M 353 3500 
L 3084 3500 
L 3084 2975 
L 922 459 
L 3084 459 
L 3084 0 
L 275 0 
L 275 525 
L 2438 3041 
L 353 3041 
L 353 3500 
z
" transform="scale(0.015625)"/>
       <path id="DejaVuSans-20" transform="scale(0.015625)"/>
       <path id="DejaVuSans-75" d="M 544 1381 
L 544 3500 
L 1119 3500 
L 1119 1403 
Q 1119 906 1312 657 
Q 1506 409 1894 409 
Q 2359 409 2629 706 
Q 2900 1003 2900 1516 
L 2900 3500 
L 3475 3500 
L 3475 0 
L 2900 0 
L 2900 538 
Q 2691 219 2414 64 
Q 2138 -91 1772 -91 
Q 1169 -91 856 284 
Q 544 659 544 1381 
z
M 1991 3584 
L 1991 3584 
z
" transform="scale(0.015625)"/>
       <path id="DejaVuSans-73" d="M 2834 3397 
L 2834 2853 
Q 2591 2978 2328 3040 
Q 2066 3103 1784 3103 
Q 1356 3103 1142 2972 
Q 928 2841 928 2578 
Q 928 2378 1081 2264 
Q 1234 2150 1697 2047 
L 1894 2003 
Q 2506 1872 2764 1633 
Q 3022 1394 3022 966 
Q 3022 478 2636 193 
Q 2250 -91 1575 -91 
Q 1294 -91 989 -36 
Q 684 19 347 128 
L 347 722 
Q 666 556 975 473 
Q 1284 391 1588 391 
Q 1994 391 2212 530 
Q 2431 669 2431 922 
Q 2431 1156 2273 1281 
Q 2116 1406 1581 1522 
L 1381 1569 
Q 847 1681 609 1914 
Q 372 2147 372 2553 
Q 372 3047 722 3315 
Q 1072 3584 1716 3584 
Q 2034 3584 2315 3537 
Q 2597 3491 2834 3397 
z
" transform="scale(0.015625)"/>
      </defs>
      <use xlink:href="#DejaVuSans-53"/>
      <use xlink:href="#DejaVuSans-74" transform="translate(63.476562 0)"/>
      <use xlink:href="#DejaVuSans-61" transform="translate(102.685547 0)"/>
      <use xlink:href="#DejaVuSans-6e" transform="translate(163.964844 0)"/>
      <use xlink:href="#DejaVuSans-64" transform="translate(227.34375 0)"/>
      <use xlink:href="#DejaVuSans-61" transform="translate(290.820312 0)"/>
      <use xlink:href="#DejaVuSans-72" transform="translate(352.099609 0)"/>
      <use xlink:href="#DejaVuSans-64" transform="translate(391.462891 0)"/>
      <use xlink:href="#DejaVuSans-69" transform="translate(454.939453 0)"/>
      <use xlink:href="#DejaVuSans-7a" transform="translate(482.722656 0)"/>
      <use xlink:href="#DejaVuSans-65" transform="translate(535.212891 0)"/>
      <use xlink:href="#DejaVuSans-64" transform="translate(596.736328 0)"/>
      <use xlink:href="#DejaVuSans-20" transform="translate(660.212891 0)"/>
      <use xlink:href="#DejaVuSans-75" transform="translate(692 0)"/>
      <use xlink:href="#DejaVuSans-6e" transform="translate(755.378906 0)"/>
      <use xlink:href="#DejaVuSans-69" transform="translate(818.757812 0)"/>
      <use xlink:href="#DejaVuSans-74" transform="translate(846.541016 0)"/>
      <use xlink:href="#DejaVuSans-73" transform="translate(885.75 0)"/>
     </g>
    </g>
   </g>
   <g id="line2d_1">
    <path d="M 102.214027 133.430494 
L 102.598428 144.109111 
L 102.98283 168.266752 
L 104.136034 135.668921 
L 104.520436 132.834242 
L 104.904837 116.25415 
L 105.289239 130.741299 
L 105.67364 138.885254 
L 106.826845 142.782014 
L 107.211246 130.252206 
L 107.595648 110.94354 
L 107.980049 160.140371 
L 108.364451 116.325314 
L 109.517655 121.82018 
L 109.902057 133.856844 
L 110.286458 131.045149 
L 111.055261 139.383459 
L 112.208466 132.466402 
L 112.592867 146.514064 
L 112.977269 138.376415 
L 113.746072 137.660281 
L 114.899276 118.874885 
L 115.283678 139.605276 
L 115.668079 151.684583 
L 116.052481 124.029189 
L 116.436882 132.372565 
L 117.590086 110.586491 
L 117.974488 136.555736 
L 118.358889 128.426377 
L 118.743291 136.862381 
L 119.127692 123.960438 
L 120.280897 139.179685 
L 120.665298 134.48765 
L 121.0497 124.618448 
L 121.434101 111.268268 
L 121.818503 129.021926 
L 122.971707 125.067514 
L 123.356109 148.189945 
L 123.74051 150.850319 
L 124.124912 118.279717 
L 124.509313 143.723351 
L 126.046919 136.282347 
L 126.431321 118.891758 
L 126.815722 143.351681 
L 127.200124 121.776039 
L 128.73773 126.737071 
L 129.122131 147.302021 
L 129.506533 128.748137 
L 129.890934 161.179484 
L 131.044139 104.936268 
L 131.42854 131.621692 
L 131.812942 131.22304 
L 132.197343 134.941692 
L 132.581744 140.106877 
L 134.11935 110.24934 
L 134.503752 112.22489 
L 134.888153 122.834553 
L 135.272555 142.148709 
L 136.425759 145.396393 
L 136.810161 148.263263 
L 137.194562 134.097611 
L 137.578964 139.796012 
L 137.963365 114.144402 
L 139.11657 125.383475 
L 139.500971 143.781252 
L 139.885373 89.556706 
L 140.654176 131.136266 
L 141.80738 146.937766 
L 142.191782 145.043551 
L 142.576183 128.856429 
L 142.960585 123.913158 
L 143.344986 140.450661 
L 144.498191 142.316199 
L 144.882592 117.091679 
L 145.266994 133.712821 
L 145.651395 121.457172 
L 146.035797 135.111838 
L 147.573403 116.391113 
L 147.957804 135.155376 
L 148.342205 127.52065 
L 148.726607 136.434136 
L 149.879811 133.063696 
L 150.264213 132.446916 
L 150.648614 122.254407 
L 151.033016 124.80683 
L 151.417417 134.075698 
L 152.570622 133.494084 
L 152.955023 105.189544 
L 153.339425 110.409556 
L 153.723826 104.057263 
L 154.108228 112.237828 
L 155.261432 86.890167 
L 155.645834 146.142862 
L 156.030235 83.539707 
L 156.414637 179.170164 
L 156.799038 83.811487 
L 157.952243 155.826141 
L 158.336644 167.97064 
L 158.721046 92.345609 
L 159.105447 106.031244 
L 159.489849 136.345304 
L 160.643053 141.50624 
L 161.027455 132.355458 
L 161.411856 163.681563 
L 161.796258 133.415676 
L 162.180659 140.639781 
L 163.333863 139.259257 
L 163.718265 115.14847 
L 164.102666 136.059359 
L 164.487068 140.140688 
L 166.024674 132.898334 
L 166.409075 138.229913 
L 166.793477 134.35791 
L 167.177878 133.750012 
L 167.56228 100.848225 
L 168.715484 148.545406 
L 169.099886 143.076946 
L 169.484287 156.247474 
L 169.868689 120.535407 
L 170.25309 118.783115 
L 171.406295 131.943256 
L 171.790696 120.294551 
L 172.175098 120.541913 
L 172.559499 151.438636 
L 172.943901 146.047746 
L 174.097105 134.105891 
L 174.481507 116.922814 
L 174.865908 115.089743 
L 175.25031 114.50924 
L 175.634711 165.55555 
L 176.787916 135.983599 
L 177.172317 132.69803 
L 177.556719 123.892913 
L 177.94112 132.231766 
L 178.325522 124.607364 
L 179.478726 135.393894 
L 179.863127 123.10104 
L 180.247529 139.984001 
L 180.63193 144.549769 
L 181.016332 129.574487 
L 182.169536 120.840618 
L 182.553938 130.889164 
L 182.938339 110.31151 
L 183.322741 113.369497 
L 183.707142 130.718475 
L 185.244748 134.823044 
L 185.62915 111.085935 
L 186.013551 143.308837 
L 186.397953 160.128777 
L 187.551157 121.060044 
L 187.935559 141.415503 
L 188.31996 141.975141 
L 188.704362 125.347144 
L 189.088763 133.365913 
L 190.241968 127.928868 
L 190.626369 138.197137 
L 191.010771 113.791039 
L 191.395172 147.305707 
L 191.779574 144.49895 
L 193.31718 114.990795 
L 193.701581 133.061815 
L 194.085982 127.663446 
L 194.470384 124.193778 
L 195.623588 124.583324 
L 196.00799 138.453373 
L 196.392391 110.177869 
L 196.776793 150.665851 
L 197.161194 146.739886 
L 198.314399 132.227909 
L 199.083202 125.525408 
L 199.467603 130.971556 
L 199.852005 133.725517 
L 201.005209 119.499634 
L 201.389611 148.886166 
L 201.774012 123.275162 
L 202.158414 127.176996 
L 202.542815 110.138293 
L 203.69602 154.721064 
L 204.464823 128.737617 
L 204.849224 160.233592 
L 205.233626 127.00541 
L 206.38683 139.490797 
L 206.771232 115.745258 
L 207.155633 160.572275 
L 207.540035 141.319549 
L 207.924436 100.61351 
L 209.077641 125.7409 
L 209.462042 128.778315 
L 209.846443 135.192825 
L 210.230845 125.241288 
L 210.615246 123.854436 
L 211.768451 146.759008 
L 212.152852 119.664005 
L 212.537254 124.230358 
L 212.921655 133.051184 
L 213.306057 133.311666 
L 214.459261 126.418473 
L 214.843663 112.688507 
L 215.228064 137.516714 
L 215.612466 117.288683 
L 215.996867 130.542015 
L 217.150072 127.718441 
L 217.534473 122.823596 
L 217.918875 139.521942 
L 218.303276 133.29486 
L 218.687678 132.094802 
L 219.840882 129.419505 
L 220.225284 138.253744 
L 220.609685 130.1045 
L 220.994087 129.796003 
L 221.378488 142.020161 
L 222.916094 116.725496 
L 223.300496 135.472503 
L 223.684897 136.557143 
L 224.069299 129.206015 
L 225.222503 134.473953 
L 225.606904 144.290239 
L 225.991306 133.655296 
L 226.375707 149.325482 
L 226.760109 126.176774 
L 227.913313 139.727762 
L 228.682116 132.077311 
L 229.066518 118.528373 
L 229.450919 131.007879 
L 230.604124 131.148996 
L 230.988525 121.77389 
L 231.372927 127.375151 
L 231.757328 134.838826 
L 232.14173 109.211458 
L 233.294934 124.06927 
L 233.679336 114.461195 
L 234.063737 143.1836 
L 234.448139 142.67949 
L 234.83254 132.482597 
L 235.985745 134.246051 
L 236.370146 128.466654 
L 236.754548 132.96055 
L 237.138949 120.889301 
L 237.523351 141.966233 
L 238.676555 153.863016 
L 239.060957 141.345266 
L 239.829759 107.215559 
L 240.214161 108.398257 
L 241.367365 118.122794 
L 241.751767 145.300066 
L 242.136168 157.574006 
L 242.52057 124.557132 
L 242.904971 105.517443 
L 244.058176 164.025955 
L 244.442577 140.698863 
L 244.826979 147.897337 
L 245.21138 135.065586 
L 245.595782 132.018034 
L 246.748986 133.403738 
L 247.517789 123.192274 
L 247.902191 131.789871 
L 248.286592 146.068393 
L 249.439797 132.415787 
L 249.824198 130.187604 
L 250.2086 130.202281 
L 250.593001 146.612006 
L 250.977403 133.89211 
L 252.130607 131.324923 
L 252.515009 144.360159 
L 252.89941 136.667373 
L 253.668213 135.834205 
L 254.821418 135.316027 
L 255.205819 115.633827 
L 255.59022 130.993431 
L 255.974622 152.857099 
L 256.359023 130.700362 
L 257.512228 134.78548 
L 257.896629 130.628195 
L 258.281031 121.333672 
L 258.665432 129.03323 
L 259.049834 130.164505 
L 260.203038 139.214808 
L 260.58744 143.785507 
L 260.971841 138.384159 
L 261.356243 116.901922 
L 261.740644 126.380714 
L 262.893849 136.426855 
L 263.27825 142.61143 
L 263.662652 112.070456 
L 264.047053 133.695281 
L 264.431455 135.643284 
L 265.969061 136.414462 
L 266.353462 134.553499 
L 266.737864 138.347776 
L 267.122265 133.711954 
L 268.659871 140.945668 
L 269.044273 127.524292 
L 269.428674 136.030123 
L 269.813076 136.84594 
L 270.96628 123.170742 
L 271.350681 127.284003 
L 271.735083 134.16258 
L 272.119484 137.379355 
L 272.503886 129.030939 
L 274.041492 132.741012 
L 274.425893 129.912581 
L 274.810295 139.426342 
L 275.194696 172.430392 
L 276.732302 129.504437 
L 277.116704 135.758658 
L 277.501105 133.827617 
L 277.885507 130.625452 
L 279.038711 132.926638 
L 279.423113 140.012504 
L 279.807514 123.976328 
L 280.191916 131.308634 
L 280.576317 153.506955 
L 281.729522 129.023522 
L 282.113923 126.715639 
L 282.498325 135.154979 
L 282.882726 122.482554 
L 283.267128 142.502552 
L 284.420332 134.341072 
L 284.804734 127.935896 
L 285.189135 135.557568 
L 285.573537 147.625323 
L 285.957938 127.519007 
L 287.495544 128.767989 
L 287.879945 135.546875 
L 288.264347 149.000677 
L 288.648748 136.526923 
L 289.801953 125.733328 
L 290.186354 135.823882 
L 290.570756 127.833003 
L 290.955157 131.210818 
L 291.339559 124.000541 
L 292.492763 129.746868 
L 293.261566 143.120819 
L 293.645968 127.204955 
L 294.030369 127.357075 
L 295.183574 145.810369 
L 295.952377 138.886655 
L 296.336778 124.835506 
L 296.72118 128.983604 
L 297.874384 134.177028 
L 298.258786 137.38557 
L 298.643187 138.778185 
L 299.027589 128.70315 
L 299.41199 123.747863 
L 300.565195 133.989441 
L 300.949596 133.518866 
L 301.333997 145.974856 
L 301.718399 135.308502 
L 303.256005 122.772637 
L 304.024808 130.34611 
L 304.409209 121.358307 
L 304.793611 143.049632 
L 305.946815 129.22843 
L 306.331217 97.143779 
L 306.715618 131.3275 
L 307.10002 112.132428 
L 307.484421 132.130935 
L 308.637626 123.95788 
L 309.022027 137.274084 
L 309.406429 99.485055 
L 309.79083 143.075362 
L 310.175232 151.472542 
L 311.328436 138.67043 
L 311.712838 130.443515 
L 312.097239 119.552195 
L 312.481641 131.278372 
L 312.866042 115.851246 
L 314.019247 145.618545 
L 314.403648 125.572692 
L 314.78805 135.663238 
L 315.172451 139.967751 
L 315.556853 131.485005 
L 316.710057 147.114142 
L 317.094458 133.304246 
L 317.47886 130.987899 
L 317.863261 142.96054 
L 318.247663 133.50024 
L 319.400867 120.597422 
L 319.785269 134.350863 
L 320.16967 124.188876 
L 320.554072 157.639382 
L 320.938473 151.478 
L 322.091678 105.48854 
L 322.476079 132.642647 
L 322.860481 135.351058 
L 323.244882 110.03953 
L 323.629284 138.228882 
L 325.16689 119.492796 
L 325.551291 126.359547 
L 325.935693 144.736427 
L 326.320094 152.030645 
L 327.473299 113.329947 
L 328.242102 126.429795 
L 328.626503 129.26281 
L 329.010905 143.820485 
L 330.164109 132.829723 
L 330.548511 112.32454 
L 330.932912 128.983751 
L 331.317314 130.70226 
L 331.701715 123.760448 
L 332.854919 143.829532 
L 333.239321 139.485 
L 334.008124 145.026374 
L 334.392525 122.888574 
L 335.54573 141.870996 
L 335.930131 117.927188 
L 336.314533 118.318263 
L 336.698934 137.874365 
L 337.083336 106.981545 
L 338.620942 135.711474 
L 339.005343 127.212636 
L 339.774146 120.439274 
L 340.927351 138.146413 
L 341.311752 134.478365 
L 341.696154 142.385674 
L 342.080555 141.013772 
L 342.464957 136.653443 
L 344.002563 140.855608 
L 344.386964 148.290192 
L 344.771366 128.699444 
L 345.155767 78.695558 
L 346.308972 144.570885 
L 346.693373 137.043837 
L 347.077774 119.212629 
L 347.462176 135.305241 
L 347.846577 179.838504 
L 348.999782 136.239229 
L 349.384183 151.823831 
L 349.768585 124.404272 
L 350.152986 105.317135 
L 350.537388 120.126654 
L 351.690592 100.672017 
L 352.074994 129.713502 
L 352.459395 130.477368 
L 352.843797 152.079944 
L 353.228198 135.962033 
L 354.381403 119.667071 
L 355.150206 149.556675 
L 355.534607 138.361289 
L 355.919009 133.450886 
L 357.072213 139.709478 
L 357.456615 123.354265 
L 357.841016 133.032 
L 358.225418 134.52331 
L 358.609819 144.920335 
L 359.763024 130.337857 
L 360.916228 144.196631 
L 361.30063 138.328909 
L 362.838235 130.601344 
L 363.222637 140.318127 
L 363.607038 116.681768 
L 363.99144 124.973382 
L 365.144644 154.522276 
L 365.913447 106.972205 
L 366.297849 145.714269 
L 366.68225 136.911685 
L 367.835455 142.996722 
L 368.219856 132.217049 
L 368.604258 124.714172 
L 368.988659 131.020622 
L 369.373061 132.374328 
L 370.526265 136.945955 
L 370.910667 122.946159 
L 371.295068 128.976673 
L 371.67947 130.102291 
L 372.063871 131.615503 
L 373.217076 130.047835 
L 373.601477 134.991827 
L 374.37028 122.129194 
L 374.754682 150.976062 
L 375.907886 85.872317 
L 376.292288 146.075346 
L 377.061091 136.796414 
L 377.445492 142.38042 
L 378.598696 141.824897 
L 378.983098 127.797045 
L 379.367499 143.713819 
L 379.751901 175.792401 
L 380.136302 128.87496 
L 381.289507 115.280221 
L 381.673908 125.359908 
L 382.05831 125.745647 
L 382.442711 131.267168 
L 382.827113 90.545518 
L 383.980317 140.4793 
L 384.364719 117.875748 
L 384.74912 129.680489 
L 385.133522 113.361862 
L 385.517923 123.007918 
L 386.671128 131.023739 
L 387.055529 134.800633 
L 387.439931 166.620813 
L 387.824332 121.430322 
L 388.208734 144.473979 
L 389.361938 131.656745 
L 389.74634 132.073795 
L 390.130741 132.21325 
L 390.515143 129.540707 
L 390.899544 139.429652 
L 392.052749 135.510859 
L 392.43715 115.534884 
L 393.205953 145.098644 
L 393.590354 136.209244 
L 394.743559 133.515839 
L 395.12796 140.299986 
L 395.512362 140.498841 
L 396.281165 126.834478 
L 397.434369 123.207477 
L 397.818771 120.290254 
L 398.203172 131.705443 
L 398.587574 136.60196 
L 398.971975 118.408044 
L 400.12518 100.192486 
L 400.509581 110.784845 
L 400.893983 132.916938 
L 401.278384 117.859831 
L 401.662786 139.988561 
L 403.200392 121.022559 
L 403.584793 103.633223 
L 403.969195 137.109597 
L 404.353596 147.42952 
L 405.506801 135.088527 
L 405.891202 138.612778 
L 406.660005 136.237472 
L 407.044407 122.660684 
L 408.197611 121.13681 
L 408.582012 133.380437 
L 409.350815 124.846676 
L 409.735217 133.511463 
L 410.888421 121.402645 
L 411.272823 132.705256 
L 411.657224 127.59537 
L 412.426027 94.156942 
L 413.579232 142.191584 
L 413.963633 150.567518 
L 414.348035 146.965181 
L 414.732436 147.430463 
L 415.116838 123.12827 
L 416.654444 130.809509 
L 417.038845 135.654819 
L 417.423247 121.203564 
L 417.807648 130.949433 
L 418.960853 166.438339 
L 419.345254 118.338895 
L 419.729656 136.571127 
L 420.114057 131.991695 
L 420.498459 109.548581 
L 421.651663 133.00481 
L 422.036065 126.673556 
L 422.420466 141.137575 
L 422.804868 134.934308 
L 423.189269 124.188961 
L 424.342473 119.885179 
L 424.726875 132.70382 
L 425.111276 126.350873 
L 425.495678 140.124849 
L 425.880079 115.9069 
L 427.417685 139.299357 
L 428.57089 125.150335 
L 429.724094 158.85793 
L 430.108496 148.884754 
L 430.492897 117.810644 
L 430.877299 154.486332 
L 431.2617 150.49327 
L 432.414905 141.653491 
L 432.799306 103.201288 
L 433.183708 143.204888 
L 433.568109 122.647072 
L 433.952511 137.247645 
L 435.105715 134.899688 
L 435.874518 113.409449 
L 436.25892 143.451475 
L 436.643321 156.397729 
L 437.796526 146.763525 
L 438.180927 118.783544 
L 438.565329 134.802183 
L 438.94973 126.380444 
L 439.334131 122.46338 
L 440.487336 143.057144 
L 440.871737 131.329024 
L 441.256139 140.975527 
L 441.64054 135.71531 
L 442.024942 121.420775 
L 443.178146 152.036032 
L 443.562548 132.151859 
L 443.946949 134.796451 
L 444.331351 117.82388 
L 444.715752 35.030369 
L 445.868957 98.679143 
L 446.253358 133.717994 
L 446.63776 198.094006 
L 447.022161 112.993212 
L 447.406563 139.304637 
L 448.559767 147.311246 
L 448.944169 124.435499 
L 449.32857 129.025179 
L 449.712972 137.051815 
L 451.250578 99.855721 
L 451.634979 177.744228 
L 452.019381 124.280171 
L 452.403782 133.356854 
L 452.788184 122.494725 
L 453.941388 143.571475 
L 454.325789 142.671971 
L 455.094592 121.445118 
L 455.478994 160.671219 
L 456.632198 129.509451 
L 457.0166 133.120003 
L 457.401001 135.230795 
L 458.169804 130.012538 
L 459.323009 137.997031 
L 459.70741 121.735853 
L 460.091812 114.776404 
L 460.476213 164.018125 
L 460.860615 144.323446 
L 462.013819 133.402845 
L 462.782622 117.154769 
L 463.167024 123.536393 
L 463.551425 127.406948 
L 465.089031 150.938901 
L 465.473433 121.260976 
L 465.857834 142.784571 
L 466.242236 136.464502 
L 467.39544 138.827546 
L 468.164243 114.519339 
L 468.933046 144.696177 
L 470.08625 109.200992 
L 470.470652 116.042 
L 470.855053 126.555935 
L 471.239455 148.500869 
L 471.623856 120.716222 
L 472.777061 136.382466 
L 473.161462 122.294613 
L 474.314667 138.089119 
L 475.467871 144.760287 
L 476.236674 110.102268 
L 476.621076 138.927066 
L 477.005477 132.425506 
L 478.158682 149.354036 
L 478.543083 129.674348 
L 478.927485 92.708211 
L 479.311886 150.607709 
L 480.849492 115.697087 
L 481.233894 125.333469 
L 482.002697 131.128177 
L 482.387098 121.179096 
L 483.540303 140.160375 
L 483.924704 109.139936 
L 484.309106 137.272241 
L 484.693507 143.121932 
L 485.077908 134.835394 
L 486.231113 122.696549 
L 486.615514 147.001342 
L 486.999916 114.713586 
L 487.384317 127.054371 
L 487.768719 131.822122 
L 488.921923 112.585004 
L 489.306325 148.024959 
L 489.690726 123.507306 
L 490.075128 130.629614 
L 490.459529 123.275427 
L 491.612734 149.787369 
L 491.997135 136.374044 
L 492.381537 141.19092 
L 492.765938 117.835798 
L 493.15034 139.962907 
L 494.303544 131.198012 
L 494.687946 131.607377 
L 495.072347 151.465688 
L 495.456749 133.024201 
L 495.84115 122.826562 
L 496.994355 126.932158 
L 497.378756 142.646002 
L 497.763158 151.645236 
L 498.147559 127.570749 
L 498.531961 136.085379 
L 499.685165 117.48646 
L 500.069567 126.851614 
L 500.453968 133.250177 
L 500.838369 125.795492 
L 501.222771 132.97366 
L 502.760377 133.436494 
L 503.144778 139.907322 
L 503.52918 141.313176 
L 503.913581 109.556064 
L 505.066786 126.39062 
L 505.451187 129.412603 
L 505.835589 131.453476 
L 506.21999 151.901444 
L 506.604392 122.788927 
L 507.757596 116.77741 
L 508.141998 118.091555 
L 508.526399 137.499599 
L 508.910801 141.321993 
L 509.295202 126.126582 
L 510.448407 127.457028 
L 510.832808 137.421564 
L 511.21721 136.614934 
L 511.601611 125.37668 
L 511.986013 143.787832 
L 513.139217 125.828505 
L 513.523619 141.485161 
L 513.90802 129.452844 
L 514.292422 133.162634 
L 514.676823 142.306531 
L 515.830027 134.396197 
L 516.214429 141.418938 
L 516.983232 110.04649 
L 517.367633 115.087758 
L 518.520838 132.300734 
L 518.905239 147.199398 
L 519.289641 107.171741 
L 519.674042 87.286894 
L 520.058444 133.794901 
L 521.211648 133.650936 
L 521.59605 141.074392 
L 521.980451 139.341335 
L 522.364853 140.784129 
L 522.749254 130.876549 
L 522.749254 130.876549 
" clip-path="url(#pa0180864fc)" style="fill: none; stroke: #4c72b0; stroke-width: 2.25; stroke-linecap: round"/>
   </g>
   <g id="line2d_2">
    <path d="M 102.214027 147.724866 
L 102.598428 144.755549 
L 102.98283 122.0037 
L 104.136034 141.006749 
L 104.520436 126.85101 
L 104.904837 145.838458 
L 105.289239 135.460817 
L 105.67364 117.307759 
L 107.211246 130.155431 
L 107.595648 146.029618 
L 107.980049 76.902861 
L 108.364451 108.340382 
L 109.517655 140.463247 
L 109.902057 122.99731 
L 110.286458 146.024488 
L 110.67086 143.62473 
L 111.055261 130.234184 
L 112.208466 135.962583 
L 112.592867 124.368335 
L 112.977269 129.520646 
L 113.746072 137.902025 
L 114.899276 143.065658 
L 115.283678 133.465924 
L 115.668079 107.597896 
L 116.052481 129.871024 
L 116.436882 137.054992 
L 117.590086 141.784014 
L 117.974488 150.603504 
L 118.358889 132.360221 
L 118.743291 129.216311 
L 119.127692 130.080734 
L 120.280897 117.033286 
L 120.665298 122.883101 
L 121.0497 139.68896 
L 121.434101 144.903981 
L 121.818503 135.442589 
L 122.971707 147.25637 
L 123.356109 133.495591 
L 123.74051 130.660687 
L 124.124912 143.261128 
L 124.509313 131.272814 
L 126.431321 140.222834 
L 126.815722 120.444352 
L 127.200124 130.649809 
L 128.73773 137.721383 
L 129.122131 129.040627 
L 129.506533 141.146664 
L 129.890934 126.554947 
L 131.044139 119.685187 
L 131.42854 134.898581 
L 131.812942 121.520454 
L 132.197343 130.802106 
L 132.581744 131.147763 
L 134.11935 121.081194 
L 134.503752 141.117002 
L 134.888153 139.023505 
L 135.272555 116.045786 
L 136.425759 127.148872 
L 136.810161 152.769481 
L 137.194562 130.489583 
L 137.578964 124.665692 
L 137.963365 120.929506 
L 139.11657 139.607161 
L 139.500971 125.047951 
L 139.885373 90.65251 
L 140.654176 141.829213 
L 141.80738 146.062707 
L 142.191782 123.473876 
L 142.576183 138.528952 
L 142.960585 132.16024 
L 143.344986 131.836779 
L 144.498191 120.510547 
L 144.882592 125.714902 
L 145.266994 128.146941 
L 145.651395 132.660182 
L 146.035797 142.97494 
L 147.573403 150.088243 
L 147.957804 133.566212 
L 148.342205 124.666632 
L 148.726607 146.918778 
L 149.879811 129.660286 
L 150.264213 129.645978 
L 150.648614 132.416254 
L 151.033016 126.038363 
L 151.417417 113.241483 
L 152.570622 132.989064 
L 152.955023 150.836947 
L 153.339425 125.870709 
L 153.723826 141.200503 
L 154.108228 161.84689 
L 155.261432 131.764374 
L 155.645834 115.611748 
L 156.030235 133.693056 
L 156.414637 120.061892 
L 156.799038 138.545309 
L 158.336644 121.208985 
L 158.721046 144.620469 
L 159.105447 124.94321 
L 159.489849 128.680959 
L 160.643053 138.213215 
L 161.027455 134.182617 
L 161.411856 124.78669 
L 161.796258 123.78509 
L 162.180659 118.378299 
L 163.333863 136.682005 
L 163.718265 133.732062 
L 164.102666 135.526691 
L 164.487068 126.898783 
L 166.024674 129.885432 
L 166.409075 138.219485 
L 166.793477 138.335039 
L 167.177878 121.104073 
L 167.56228 120.890291 
L 169.099886 138.793086 
L 169.484287 148.671812 
L 169.868689 136.493523 
L 170.25309 129.272557 
L 171.406295 126.92438 
L 171.790696 151.371347 
L 172.175098 127.964944 
L 172.559499 111.777322 
L 172.943901 126.947786 
L 174.097105 134.071775 
L 174.481507 143.087615 
L 174.865908 133.474384 
L 175.25031 141.259218 
L 175.634711 106.021353 
L 176.787916 133.088884 
L 177.172317 146.236143 
L 177.556719 128.186763 
L 177.94112 134.837798 
L 178.325522 131.558121 
L 179.478726 128.159736 
L 179.863127 137.086791 
L 180.247529 111.058164 
L 181.016332 138.022059 
L 182.169536 119.906862 
L 182.553938 124.434553 
L 182.938339 135.501665 
L 183.322741 117.567138 
L 183.707142 115.599884 
L 185.244748 129.756303 
L 185.62915 127.904537 
L 186.013551 126.971726 
L 186.397953 128.773773 
L 187.551157 135.626056 
L 187.935559 121.731809 
L 188.31996 133.17939 
L 188.704362 125.769111 
L 189.088763 128.685461 
L 190.241968 124.260479 
L 190.626369 129.632316 
L 191.010771 124.416605 
L 191.395172 128.752848 
L 191.779574 142.913449 
L 193.31718 137.770423 
L 193.701581 136.000895 
L 194.085982 136.087471 
L 194.470384 134.146224 
L 195.623588 124.525282 
L 196.00799 113.399945 
L 196.392391 113.689141 
L 196.776793 139.662223 
L 197.161194 133.142179 
L 198.314399 127.093631 
L 199.083202 130.990013 
L 199.467603 140.041853 
L 199.852005 129.769911 
L 201.005209 116.913722 
L 201.389611 139.054419 
L 201.774012 119.928937 
L 202.158414 119.403936 
L 202.542815 134.243194 
L 203.69602 132.688944 
L 204.080421 131.272253 
L 204.464823 131.647606 
L 204.849224 151.782432 
L 205.233626 134.268769 
L 206.38683 130.703542 
L 206.771232 113.472993 
L 207.155633 160.407754 
L 207.540035 154.235893 
L 207.924436 115.599671 
L 209.077641 125.499326 
L 209.462042 129.765987 
L 209.846443 144.777223 
L 210.230845 124.132763 
L 210.615246 131.914091 
L 211.768451 124.939244 
L 212.152852 129.897567 
L 212.537254 142.767456 
L 212.921655 132.313709 
L 213.306057 132.033602 
L 214.459261 130.00197 
L 214.843663 138.205181 
L 215.228064 149.56968 
L 215.612466 134.345806 
L 215.996867 130.402483 
L 217.150072 127.060388 
L 217.534473 132.231552 
L 217.918875 128.744048 
L 218.303276 141.581775 
L 218.687678 128.288998 
L 220.225284 120.863658 
L 220.609685 128.642257 
L 220.994087 129.613209 
L 221.378488 134.699707 
L 222.916094 127.617104 
L 223.300496 141.108966 
L 223.684897 140.399959 
L 224.069299 132.253857 
L 225.222503 133.44764 
L 225.606904 138.581548 
L 225.991306 135.900062 
L 226.375707 130.909782 
L 226.760109 142.252342 
L 227.913313 136.785237 
L 228.297715 130.799175 
L 229.066518 148.16345 
L 229.450919 133.582769 
L 230.604124 123.789458 
L 230.988525 149.493986 
L 231.372927 132.672959 
L 231.757328 126.518647 
L 232.14173 122.505013 
L 233.294934 128.143894 
L 233.679336 146.248864 
L 234.063737 131.159514 
L 234.448139 139.387228 
L 234.83254 113.369051 
L 235.985745 128.736845 
L 236.370146 123.602635 
L 236.754548 128.599914 
L 237.523351 144.348087 
L 238.676555 126.801439 
L 239.060957 136.635044 
L 239.445358 141.79175 
L 239.829759 129.122726 
L 240.214161 142.806813 
L 241.367365 130.22611 
L 241.751767 132.728206 
L 242.136168 157.651975 
L 242.52057 135.06188 
L 242.904971 127.118383 
L 244.058176 132.179935 
L 244.442577 128.781901 
L 244.826979 137.453599 
L 245.21138 100.938892 
L 245.595782 125.710923 
L 246.748986 133.545 
L 247.133388 132.40306 
L 247.517789 133.38076 
L 247.902191 136.744538 
L 248.286592 125.071129 
L 249.439797 132.804999 
L 249.824198 103.062735 
L 250.2086 130.443059 
L 250.593001 139.699403 
L 250.977403 130.962734 
L 252.130607 128.450627 
L 252.515009 138.909023 
L 252.89941 132.84633 
L 253.668213 132.615776 
L 254.821418 137.873778 
L 255.205819 124.901861 
L 255.59022 133.380967 
L 255.974622 137.328559 
L 256.359023 126.55579 
L 257.512228 135.154822 
L 257.896629 129.660897 
L 258.281031 131.072876 
L 258.665432 121.904815 
L 259.049834 126.730596 
L 260.58744 131.771811 
L 260.971841 115.634213 
L 261.356243 117.852742 
L 261.740644 133.799273 
L 262.893849 126.652877 
L 263.27825 129.371307 
L 263.662652 139.551847 
L 264.047053 129.63031 
L 264.431455 130.641647 
L 265.969061 132.313997 
L 266.353462 133.935285 
L 266.737864 133.553241 
L 267.122265 140.585119 
L 268.659871 135.364872 
L 269.044273 137.190673 
L 269.428674 137.681663 
L 269.813076 129.303685 
L 270.96628 119.740157 
L 271.350681 132.643721 
L 271.735083 128.173729 
L 272.119484 141.900224 
L 272.503886 131.898499 
L 274.041492 137.577327 
L 274.425893 141.251722 
L 274.810295 127.205435 
L 275.194696 145.363756 
L 276.732302 131.004657 
L 277.116704 132.830392 
L 277.501105 126.878846 
L 277.885507 130.847054 
L 279.038711 129.808641 
L 279.423113 130.728137 
L 279.807514 152.594357 
L 280.191916 124.613036 
L 280.576317 121.899695 
L 281.729522 142.538022 
L 282.113923 127.35856 
L 282.498325 119.924769 
L 282.882726 130.703919 
L 283.267128 130.506232 
L 284.420332 132.251612 
L 284.804734 141.260279 
L 285.189135 130.148142 
L 285.573537 129.767208 
L 285.957938 135.368836 
L 287.495544 145.868357 
L 288.264347 115.442674 
L 288.648748 128.193866 
L 289.801953 132.352656 
L 290.570756 127.312579 
L 290.955157 121.492535 
L 291.339559 122.129917 
L 292.492763 125.849261 
L 292.877165 139.167531 
L 293.261566 126.282469 
L 293.645968 119.959377 
L 294.030369 138.096627 
L 295.183574 145.087106 
L 295.567975 125.706188 
L 295.952377 141.889382 
L 296.336778 127.820398 
L 296.72118 132.267057 
L 297.874384 133.494091 
L 298.258786 129.346568 
L 298.643187 120.297722 
L 299.027589 123.551311 
L 299.41199 134.012971 
L 300.565195 134.491183 
L 300.949596 132.147215 
L 301.333997 128.525805 
L 301.718399 133.46367 
L 303.256005 130.505546 
L 303.640406 134.875596 
L 304.024808 129.068507 
L 304.409209 140.567202 
L 304.793611 120.66807 
L 305.946815 132.843446 
L 306.331217 125.666625 
L 306.715618 140.700143 
L 307.10002 120.35858 
L 307.484421 149.535119 
L 308.637626 141.907442 
L 309.022027 134.228228 
L 309.406429 124.235133 
L 309.79083 139.363957 
L 310.175232 147.65145 
L 311.712838 117.885786 
L 312.097239 114.411019 
L 312.481641 146.166697 
L 312.866042 127.033584 
L 314.019247 131.126175 
L 314.403648 145.111207 
L 314.78805 136.824824 
L 315.172451 117.497748 
L 315.556853 114.823552 
L 317.094458 130.376003 
L 317.47886 132.577561 
L 317.863261 133.447522 
L 318.247663 130.141445 
L 319.400867 135.342319 
L 319.785269 123.040738 
L 320.16967 121.311587 
L 320.554072 165.760992 
L 320.938473 145.375858 
L 322.091678 112.3523 
L 322.476079 132.90303 
L 322.860481 139.081999 
L 323.244882 131.152965 
L 323.629284 128.642876 
L 325.16689 127.674045 
L 325.935693 143.575824 
L 326.320094 136.523929 
L 327.473299 119.973805 
L 327.8577 133.228075 
L 328.242102 122.451973 
L 328.626503 134.295454 
L 329.010905 141.378505 
L 330.164109 132.030316 
L 330.932912 118.891129 
L 331.317314 131.983342 
L 331.701715 126.011631 
L 332.854919 126.389053 
L 333.239321 133.462771 
L 334.008124 141.369585 
L 334.392525 127.845175 
L 335.54573 133.386887 
L 335.930131 126.512997 
L 336.314533 121.858143 
L 336.698934 134.805665 
L 337.083336 121.293149 
L 338.23654 128.701862 
L 338.620942 125.978578 
L 339.005343 125.459631 
L 339.774146 127.71798 
L 340.927351 130.752688 
L 341.311752 126.817543 
L 342.080555 139.961514 
L 342.464957 129.735242 
L 343.618161 132.906442 
L 344.002563 131.615712 
L 344.386964 156.676581 
L 345.155767 121.878669 
L 346.308972 122.402642 
L 347.077774 149.393001 
L 347.462176 141.177384 
L 347.846577 130.122757 
L 348.999782 131.903598 
L 349.384183 148.125901 
L 349.768585 112.829471 
L 350.152986 148.005433 
L 350.537388 160.954976 
L 351.690592 158.783832 
L 352.074994 108.994975 
L 352.459395 143.41565 
L 352.843797 113.954216 
L 353.228198 130.578087 
L 354.381403 127.294415 
L 354.765804 117.374085 
L 355.150206 135.359784 
L 355.534607 118.724291 
L 355.919009 131.299927 
L 357.072213 123.357691 
L 357.456615 129.89102 
L 357.841016 126.379927 
L 358.225418 140.139019 
L 358.609819 130.198193 
L 359.763024 136.813492 
L 360.147425 135.176954 
L 360.916228 136.717755 
L 361.30063 126.510709 
L 362.838235 158.299606 
L 363.222637 143.510689 
L 363.607038 138.96115 
L 363.99144 157.497652 
L 365.144644 131.876161 
L 365.529046 126.810825 
L 365.913447 106.027615 
L 366.297849 132.059704 
L 367.835455 137.564497 
L 368.219856 127.285155 
L 368.604258 131.165274 
L 368.988659 117.250289 
L 369.373061 134.801878 
L 370.526265 130.644773 
L 370.910667 127.724755 
L 371.295068 134.690435 
L 371.67947 127.11276 
L 372.063871 131.487232 
L 373.217076 123.67358 
L 373.601477 150.300808 
L 373.985879 131.72373 
L 374.37028 127.548434 
L 374.754682 115.456505 
L 375.907886 115.905393 
L 376.292288 128.938171 
L 376.676689 128.888274 
L 377.061091 135.973011 
L 377.445492 130.817271 
L 378.598696 130.016517 
L 378.983098 138.658585 
L 379.367499 140.2275 
L 379.751901 159.260227 
L 380.136302 131.36301 
L 381.289507 126.041574 
L 381.673908 133.399234 
L 382.05831 132.804974 
L 382.442711 125.758792 
L 382.827113 127.167378 
L 383.980317 131.954522 
L 384.364719 126.081816 
L 384.74912 127.244165 
L 385.133522 147.932318 
L 385.517923 118.547435 
L 386.671128 125.542448 
L 387.055529 128.986523 
L 387.439931 112.422889 
L 387.824332 123.27086 
L 388.208734 141.26238 
L 389.361938 131.48855 
L 389.74634 140.654472 
L 390.130741 127.51884 
L 390.515143 147.287177 
L 390.899544 147.340102 
L 392.052749 129.61907 
L 392.43715 120.880323 
L 392.821552 128.936626 
L 393.205953 128.867505 
L 393.590354 129.212686 
L 395.12796 131.174269 
L 395.512362 137.267041 
L 396.281165 124.849666 
L 397.434369 135.285885 
L 397.818771 125.423926 
L 398.203172 121.472934 
L 398.587574 137.829098 
L 398.971975 125.21829 
L 400.12518 126.041636 
L 400.509581 133.647369 
L 400.893983 124.023348 
L 401.278384 140.67729 
L 401.662786 134.830641 
L 402.81599 131.06465 
L 403.200392 140.578706 
L 403.584793 146.41895 
L 403.969195 133.521906 
L 404.353596 116.400495 
L 405.506801 131.794851 
L 405.891202 124.139053 
L 407.044407 140.4699 
L 408.197611 137.572881 
L 408.582012 137.458462 
L 409.735217 120.952787 
L 410.888421 119.477599 
L 411.272823 143.699156 
L 411.657224 130.94003 
L 412.426027 123.112291 
L 413.579232 138.281218 
L 413.963633 133.823282 
L 414.348035 121.817964 
L 414.732436 140.188468 
L 415.116838 110.922066 
L 416.654444 122.535528 
L 417.038845 134.488235 
L 417.423247 120.272948 
L 417.807648 137.621369 
L 418.960853 162.502112 
L 419.345254 117.39736 
L 419.729656 143.92314 
L 420.114057 123.989012 
L 420.498459 136.262671 
L 421.651663 143.834166 
L 422.036065 123.541299 
L 422.420466 127.544317 
L 422.804868 125.858304 
L 423.189269 131.488183 
L 424.342473 116.232764 
L 424.726875 132.340659 
L 425.111276 123.209181 
L 425.495678 131.801684 
L 425.880079 128.585175 
L 427.417685 129.663079 
L 427.802087 133.743932 
L 428.186488 134.219706 
L 428.57089 144.573052 
L 429.724094 147.828444 
L 430.108496 144.009122 
L 430.492897 124.52065 
L 430.877299 160.844483 
L 431.2617 117.544927 
L 432.414905 156.828712 
L 433.183708 124.690683 
L 433.568109 145.276873 
L 433.952511 127.337762 
L 435.105715 167.553219 
L 435.490117 133.281314 
L 435.874518 117.620235 
L 436.25892 152.088604 
L 436.643321 123.349627 
L 437.796526 131.475545 
L 438.180927 135.06448 
L 438.565329 125.201 
L 438.94973 127.940519 
L 439.334131 125.715986 
L 440.487336 113.927761 
L 441.256139 149.815935 
L 441.64054 140.351767 
L 442.024942 147.679354 
L 443.178146 128.153569 
L 443.562548 127.451498 
L 443.946949 123.161937 
L 444.331351 180.257557 
L 444.715752 156.312655 
L 445.868957 122.138775 
L 446.253358 148.641545 
L 446.63776 56.861835 
L 447.022161 160.844523 
L 447.406563 115.292037 
L 448.559767 140.70383 
L 448.944169 124.116107 
L 449.32857 157.460302 
L 449.712972 133.597454 
L 451.250578 144.595905 
L 451.634979 130.648929 
L 452.019381 103.331458 
L 452.403782 107.694711 
L 452.788184 123.281449 
L 453.941388 135.93501 
L 454.325789 132.8629 
L 454.710191 134.432205 
L 455.094592 121.861739 
L 455.478994 119.138867 
L 456.632198 140.680092 
L 457.0166 142.314549 
L 457.785403 124.76903 
L 458.169804 132.429535 
L 459.323009 97.82564 
L 460.476213 150.487307 
L 460.860615 127.399065 
L 462.013819 131.965592 
L 462.398221 130.652166 
L 462.782622 147.003388 
L 463.167024 128.090736 
L 463.551425 137.144981 
L 465.089031 118.78083 
L 465.473433 136.766517 
L 465.857834 136.128934 
L 466.242236 136.332272 
L 467.39544 130.384461 
L 467.779842 120.383252 
L 468.164243 123.122644 
L 468.548645 133.897322 
L 468.933046 122.607847 
L 470.08625 127.802781 
L 470.470652 121.875361 
L 470.855053 131.964163 
L 471.239455 133.820722 
L 471.623856 139.955785 
L 472.777061 121.27854 
L 473.161462 137.352524 
L 473.545864 129.770437 
L 474.314667 133.357617 
L 475.467871 131.735151 
L 475.852273 120.527163 
L 476.236674 127.21382 
L 476.621076 124.265144 
L 477.005477 132.557925 
L 478.158682 135.273959 
L 478.543083 131.68127 
L 478.927485 115.682706 
L 479.311886 133.657955 
L 480.849492 128.467763 
L 481.233894 131.033621 
L 481.618295 127.208043 
L 482.002697 133.43679 
L 482.387098 131.630142 
L 483.540303 134.753695 
L 483.924704 126.925151 
L 484.309106 134.29153 
L 484.693507 129.059235 
L 485.077908 131.294422 
L 486.231113 131.523055 
L 486.615514 140.607036 
L 486.999916 111.681025 
L 487.384317 130.506124 
L 487.768719 122.207635 
L 488.921923 125.062685 
L 489.306325 141.932917 
L 489.690726 133.14975 
L 490.075128 134.692369 
L 490.459529 150.920535 
L 491.612734 116.065833 
L 491.997135 135.868571 
L 492.381537 128.750261 
L 492.765938 140.599808 
L 493.15034 122.813953 
L 494.303544 131.19036 
L 494.687946 119.24639 
L 495.072347 138.532295 
L 495.456749 130.914278 
L 495.84115 130.60392 
L 496.994355 128.279734 
L 497.763158 145.117211 
L 498.147559 134.57881 
L 498.531961 114.290173 
L 499.685165 128.821894 
L 500.069567 122.603995 
L 500.453968 134.438115 
L 500.838369 131.23333 
L 501.222771 143.388054 
L 502.760377 144.046005 
L 503.144778 131.090159 
L 503.52918 127.947214 
L 503.913581 137.718479 
L 505.066786 132.490225 
L 505.451187 128.839093 
L 505.835589 131.754855 
L 506.21999 137.756187 
L 506.604392 121.803878 
L 507.757596 125.606842 
L 508.141998 127.382897 
L 508.526399 133.128521 
L 508.910801 129.506851 
L 509.295202 130.592385 
L 510.448407 127.543516 
L 510.832808 141.56382 
L 511.21721 135.564272 
L 511.601611 137.675864 
L 511.986013 130.28698 
L 513.139217 127.560053 
L 513.523619 133.096588 
L 513.90802 122.423789 
L 514.292422 133.584289 
L 514.676823 135.687467 
L 515.830027 126.783279 
L 516.214429 138.298313 
L 516.59883 121.929561 
L 516.983232 127.860215 
L 517.367633 156.355686 
L 518.520838 116.494458 
L 518.905239 135.84008 
L 519.289641 118.487334 
L 519.674042 128.598246 
L 520.058444 126.17112 
L 521.211648 125.087421 
L 521.59605 133.923389 
L 521.980451 150.501916 
L 522.364853 141.605233 
L 522.749254 123.459751 
L 522.749254 123.459751 
" clip-path="url(#pa0180864fc)" style="fill: none; stroke: #dd8452; stroke-width: 2.25; stroke-linecap: round"/>
   </g>
   <g id="patch_3">
    <path d="M 81.187266 206.247187 
L 81.187266 26.877187 
" style="fill: none; stroke: #262626; stroke-width: 1.875; stroke-linejoin: miter; stroke-linecap: square"/>
   </g>
   <g id="patch_4">
    <path d="M 543.776016 206.247187 
L 543.776016 26.877187 
" style="fill: none; stroke: #262626; stroke-width: 1.875; stroke-linejoin: miter; stroke-linecap: square"/>
   </g>
   <g id="patch_5">
    <path d="M 81.187266 206.247187 
L 543.776016 206.247187 
" style="fill: none; stroke: #262626; stroke-width: 1.875; stroke-linejoin: miter; stroke-linecap: square"/>
   </g>
   <g id="patch_6">
    <path d="M 81.187266 26.877187 
L 543.776016 26.877187 
" style="fill: none; stroke: #262626; stroke-width: 1.875; stroke-linejoin: miter; stroke-linecap: square"/>
   </g>
   <g id="text_17">
    <!-- Estimated Factor Scores -->
    <g style="fill: #262626" transform="translate(203.848828 20.877187) scale(0.18 -0.18)">
     <defs>
      <path id="DejaVuSans-45" d="M 628 4666 
L 3578 4666 
L 3578 4134 
L 1259 4134 
L 1259 2753 
L 3481 2753 
L 3481 2222 
L 1259 2222 
L 1259 531 
L 3634 531 
L 3634 0 
L 628 0 
L 628 4666 
z
" transform="scale(0.015625)"/>
      <path id="DejaVuSans-6d" d="M 3328 2828 
Q 3544 3216 3844 3400 
Q 4144 3584 4550 3584 
Q 5097 3584 5394 3201 
Q 5691 2819 5691 2113 
L 5691 0 
L 5113 0 
L 5113 2094 
Q 5113 2597 4934 2840 
Q 4756 3084 4391 3084 
Q 3944 3084 3684 2787 
Q 3425 2491 3425 1978 
L 3425 0 
L 2847 0 
L 2847 2094 
Q 2847 2600 2669 2842 
Q 2491 3084 2119 3084 
Q 1678 3084 1418 2786 
Q 1159 2488 1159 1978 
L 1159 0 
L 581 0 
L 581 3500 
L 1159 3500 
L 1159 2956 
Q 1356 3278 1631 3431 
Q 1906 3584 2284 3584 
Q 2666 3584 2933 3390 
Q 3200 3197 3328 2828 
z
" transform="scale(0.015625)"/>
      <path id="DejaVuSans-46" d="M 628 4666 
L 3309 4666 
L 3309 4134 
L 1259 4134 
L 1259 2759 
L 3109 2759 
L 3109 2228 
L 1259 2228 
L 1259 0 
L 628 0 
L 628 4666 
z
" transform="scale(0.015625)"/>
      <path id="DejaVuSans-63" d="M 3122 3366 
L 3122 2828 
Q 2878 2963 2633 3030 
Q 2388 3097 2138 3097 
Q 1578 3097 1268 2742 
Q 959 2388 959 1747 
Q 959 1106 1268 751 
Q 1578 397 2138 397 
Q 2388 397 2633 464 
Q 2878 531 3122 666 
L 3122 134 
Q 2881 22 2623 -34 
Q 2366 -91 2075 -91 
Q 1284 -91 818 406 
Q 353 903 353 1747 
Q 353 2603 823 3093 
Q 1294 3584 2113 3584 
Q 2378 3584 2631 3529 
Q 2884 3475 3122 3366 
z
" transform="scale(0.015625)"/>
      <path id="DejaVuSans-6f" d="M 1959 3097 
Q 1497 3097 1228 2736 
Q 959 2375 959 1747 
Q 959 1119 1226 758 
Q 1494 397 1959 397 
Q 2419 397 2687 759 
Q 2956 1122 2956 1747 
Q 2956 2369 2687 2733 
Q 2419 3097 1959 3097 
z
M 1959 3584 
Q 2709 3584 3137 3096 
Q 3566 2609 3566 1747 
Q 3566 888 3137 398 
Q 2709 -91 1959 -91 
Q 1206 -91 779 398 
Q 353 888 353 1747 
Q 353 2609 779 3096 
Q 1206 3584 1959 3584 
z
" transform="scale(0.015625)"/>
     </defs>
     <use xlink:href="#DejaVuSans-45"/>
     <use xlink:href="#DejaVuSans-73" transform="translate(63.183594 0)"/>
     <use xlink:href="#DejaVuSans-74" transform="translate(115.283203 0)"/>
     <use xlink:href="#DejaVuSans-69" transform="translate(154.492188 0)"/>
     <use xlink:href="#DejaVuSans-6d" transform="translate(182.275391 0)"/>
     <use xlink:href="#DejaVuSans-61" transform="translate(279.6875 0)"/>
     <use xlink:href="#DejaVuSans-74" transform="translate(340.966797 0)"/>
     <use xlink:href="#DejaVuSans-65" transform="translate(380.175781 0)"/>
     <use xlink:href="#DejaVuSans-64" transform="translate(441.699219 0)"/>
     <use xlink:href="#DejaVuSans-20" transform="translate(505.175781 0)"/>
     <use xlink:href="#DejaVuSans-46" transform="translate(536.962891 0)"/>
     <use xlink:href="#DejaVuSans-61" transform="translate(585.357422 0)"/>
     <use xlink:href="#DejaVuSans-63" transform="translate(646.636719 0)"/>
     <use xlink:href="#DejaVuSans-74" transform="translate(701.617188 0)"/>
     <use xlink:href="#DejaVuSans-6f" transform="translate(740.826172 0)"/>
     <use xlink:href="#DejaVuSans-72" transform="translate(802.007812 0)"/>
     <use xlink:href="#DejaVuSans-20" transform="translate(843.121094 0)"/>
     <use xlink:href="#DejaVuSans-53" transform="translate(874.908203 0)"/>
     <use xlink:href="#DejaVuSans-63" transform="translate(938.384766 0)"/>
     <use xlink:href="#DejaVuSans-6f" transform="translate(993.365234 0)"/>
     <use xlink:href="#DejaVuSans-72" transform="translate(1054.546875 0)"/>
     <use xlink:href="#DejaVuSans-65" transform="translate(1093.410156 0)"/>
     <use xlink:href="#DejaVuSans-73" transform="translate(1154.933594 0)"/>
    </g>
   </g>
   <g id="legend_1">
    <g id="patch_7">
     <path d="M 252.952734 88.515 
L 372.010547 88.515 
Q 375.310547 88.515 375.310547 85.215 
L 375.310547 38.427187 
Q 375.310547 35.127187 372.010547 35.127187 
L 252.952734 35.127187 
Q 249.652734 35.127187 249.652734 38.427187 
L 249.652734 85.215 
Q 249.652734 88.515 252.952734 88.515 
z
" style="fill: #ffffff; opacity: 0.8; stroke: #cccccc; stroke-width: 1.5; stroke-linejoin: miter"/>
    </g>
    <g id="line2d_3">
     <path d="M 256.252734 48.489609 
L 272.752734 48.489609 
L 289.252734 48.489609 
" style="fill: none; stroke: #4c72b0; stroke-width: 2.25; stroke-linecap: round"/>
    </g>
    <g id="text_18">
     <!-- Factor 1 -->
     <g style="fill: #262626" transform="translate(302.452734 54.264609) scale(0.165 -0.165)">
      <use xlink:href="#DejaVuSans-46"/>
      <use xlink:href="#DejaVuSans-61" transform="translate(48.394531 0)"/>
      <use xlink:href="#DejaVuSans-63" transform="translate(109.673828 0)"/>
      <use xlink:href="#DejaVuSans-74" transform="translate(164.654297 0)"/>
      <use xlink:href="#DejaVuSans-6f" transform="translate(203.863281 0)"/>
      <use xlink:href="#DejaVuSans-72" transform="translate(265.044922 0)"/>
      <use xlink:href="#DejaVuSans-20" transform="translate(306.158203 0)"/>
      <use xlink:href="#DejaVuSans-31" transform="translate(337.945312 0)"/>
     </g>
    </g>
    <g id="line2d_4">
     <path d="M 256.252734 72.708516 
L 272.752734 72.708516 
L 289.252734 72.708516 
" style="fill: none; stroke: #dd8452; stroke-width: 2.25; stroke-linecap: round"/>
    </g>
    <g id="text_19">
     <!-- Factor 2 -->
     <g style="fill: #262626" transform="translate(302.452734 78.483516) scale(0.165 -0.165)">
      <use xlink:href="#DejaVuSans-46"/>
      <use xlink:href="#DejaVuSans-61" transform="translate(48.394531 0)"/>
      <use xlink:href="#DejaVuSans-63" transform="translate(109.673828 0)"/>
      <use xlink:href="#DejaVuSans-74" transform="translate(164.654297 0)"/>
      <use xlink:href="#DejaVuSans-6f" transform="translate(203.863281 0)"/>
      <use xlink:href="#DejaVuSans-72" transform="translate(265.044922 0)"/>
      <use xlink:href="#DejaVuSans-20" transform="translate(306.158203 0)"/>
      <use xlink:href="#DejaVuSans-32" transform="translate(337.945312 0)"/>
     </g>
    </g>
   </g>
  </g>
 </g>
 <defs>
  <clipPath id="pa0180864fc">
   <rect x="81.187266" y="26.877187" width="462.58875" height="179.37"/>
  </clipPath>
 </defs>
</svg>
