<?xml version="1.0" encoding="utf-8" standalone="no"?>
<!DOCTYPE svg PUBLIC "-//W3C//DTD SVG 1.1//EN"
  "http://www.w3.org/Graphics/SVG/1.1/DTD/svg11.dtd">
<svg xmlns:xlink="http://www.w3.org/1999/xlink" width="550.743281pt" height="335.08398pt" viewBox="0 0 550.743281 335.08398" xmlns="http://www.w3.org/2000/svg" version="1.1">
 <metadata>
  <rdf:RDF xmlns:dc="http://purl.org/dc/elements/1.1/" xmlns:cc="http://creativecommons.org/ns#" xmlns:rdf="http://www.w3.org/1999/02/22-rdf-syntax-ns#">
   <cc:Work>
    <dc:type rdf:resource="http://purl.org/dc/dcmitype/StillImage"/>
    <dc:date>2025-10-25T20:37:49.726815</dc:date>
    <dc:format>image/svg+xml</dc:format>
    <dc:creator>
     <cc:Agent>
      <dc:title>Matplotlib v3.10.7, https://matplotlib.org/</dc:title>
     </cc:Agent>
    </dc:creator>
   </cc:Work>
  </rdf:RDF>
 </metadata>
 <defs>
  <style type="text/css">*{stroke-linejoin: round; stroke-linecap: butt}</style>
 </defs>
 <g id="figure_1">
  <g id="patch_1">
   <path d="M 0 335.08398 
L 550.743281 335.08398 
L 550.743281 0 
L 0 0 
z
" style="fill: #ffffff"/>
  </g>
  <g id="axes_1">
   <g id="patch_2">
    <path d="M 67.360781 245.663056 
L 543.543281 245.663056 
L 543.543281 26.877187 
L 67.360781 26.877187 
z
" style="fill: #ffffff"/>
   </g>
   <g id="matplotlib.axis_1">
    <g id="xtick_1">
     <g id="text_1">
      <!-- 2023-01 -->
      <g style="fill: #262626" transform="translate(18.108217 303.491603) rotate(-30) scale(0.165 -0.165)">
       <defs>
        <path id="DejaVuSans-32" d="M 1228 531 
L 3431 531 
L 3431 0 
L 469 0 
L 469 531 
Q 828 903 1448 1529 
Q 2069 2156 2228 2338 
Q 2531 2678 2651 2914 
Q 2772 3150 2772 3378 
Q 2772 3750 2511 3984 
Q 2250 4219 1831 4219 
Q 1534 4219 1204 4116 
Q 875 4013 500 3803 
L 500 4441 
Q 881 4594 1212 4672 
Q 1544 4750 1819 4750 
Q 2544 4750 2975 4387 
Q 3406 4025 3406 3419 
Q 3406 3131 3298 2873 
Q 3191 2616 2906 2266 
Q 2828 2175 2409 1742 
Q 1991 1309 1228 531 
z
" transform="scale(0.015625)"/>
        <path id="DejaVuSans-30" d="M 2034 4250 
Q 1547 4250 1301 3770 
Q 1056 3291 1056 2328 
Q 1056 1369 1301 889 
Q 1547 409 2034 409 
Q 2525 409 2770 889 
Q 3016 1369 3016 2328 
Q 3016 3291 2770 3770 
Q 2525 4250 2034 4250 
z
M 2034 4750 
Q 2819 4750 3233 4129 
Q 3647 3509 3647 2328 
Q 3647 1150 3233 529 
Q 2819 -91 2034 -91 
Q 1250 -91 836 529 
Q 422 1150 422 2328 
Q 422 3509 836 4129 
Q 1250 4750 2034 4750 
z
" transform="scale(0.015625)"/>
        <path id="DejaVuSans-33" d="M 2597 2516 
Q 3050 2419 3304 2112 
Q 3559 1806 3559 1356 
Q 3559 666 3084 287 
Q 2609 -91 1734 -91 
Q 1441 -91 1130 -33 
Q 819 25 488 141 
L 488 750 
Q 750 597 1062 519 
Q 1375 441 1716 441 
Q 2309 441 2620 675 
Q 2931 909 2931 1356 
Q 2931 1769 2642 2001 
Q 2353 2234 1838 2234 
L 1294 2234 
L 1294 2753 
L 1863 2753 
Q 2328 2753 2575 2939 
Q 2822 3125 2822 3475 
Q 2822 3834 2567 4026 
Q 2313 4219 1838 4219 
Q 1578 4219 1281 4162 
Q 984 4106 628 3988 
L 628 4550 
Q 988 4650 1302 4700 
Q 1616 4750 1894 4750 
Q 2613 4750 3031 4423 
Q 3450 4097 3450 3541 
Q 3450 3153 3228 2886 
Q 3006 2619 2597 2516 
z
" transform="scale(0.015625)"/>
        <path id="DejaVuSans-2d" d="M 313 2009 
L 1997 2009 
L 1997 1497 
L 313 1497 
L 313 2009 
z
" transform="scale(0.015625)"/>
        <path id="DejaVuSans-31" d="M 794 531 
L 1825 531 
L 1825 4091 
L 703 3866 
L 703 4441 
L 1819 4666 
L 2450 4666 
L 2450 531 
L 3481 531 
L 3481 0 
L 794 0 
L 794 531 
z
" transform="scale(0.015625)"/>
       </defs>
       <use xlink:href="#DejaVuSans-32"/>
       <use xlink:href="#DejaVuSans-30" transform="translate(63.623047 0)"/>
       <use xlink:href="#DejaVuSans-32" transform="translate(127.246094 0)"/>
       <use xlink:href="#DejaVuSans-33" transform="translate(190.869141 0)"/>
       <use xlink:href="#DejaVuSans-2d" transform="translate(254.492188 0)"/>
       <use xlink:href="#DejaVuSans-30" transform="translate(290.576172 0)"/>
       <use xlink:href="#DejaVuSans-31" transform="translate(354.199219 0)"/>
      </g>
     </g>
    </g>
    <g id="xtick_2">
     <g id="text_2">
      <!-- 2023-05 -->
      <g style="fill: #262626" transform="translate(69.796955 303.491603) rotate(-30) scale(0.165 -0.165)">
       <defs>
        <path id="DejaVuSans-35" d="M 691 4666 
L 3169 4666 
L 3169 4134 
L 1269 4134 
L 1269 2991 
Q 1406 3038 1543 3061 
Q 1681 3084 1819 3084 
Q 2600 3084 3056 2656 
Q 3513 2228 3513 1497 
Q 3513 744 3044 326 
Q 2575 -91 1722 -91 
Q 1428 -91 1123 -41 
Q 819 9 494 109 
L 494 744 
Q 775 591 1075 516 
Q 1375 441 1709 441 
Q 2250 441 2565 725 
Q 2881 1009 2881 1497 
Q 2881 1984 2565 2268 
Q 2250 2553 1709 2553 
Q 1456 2553 1204 2497 
Q 953 2441 691 2322 
L 691 4666 
z
" transform="scale(0.015625)"/>
       </defs>
       <use xlink:href="#DejaVuSans-32"/>
       <use xlink:href="#DejaVuSans-30" transform="translate(63.623047 0)"/>
       <use xlink:href="#DejaVuSans-32" transform="translate(127.246094 0)"/>
       <use xlink:href="#DejaVuSans-33" transform="translate(190.869141 0)"/>
       <use xlink:href="#DejaVuSans-2d" transform="translate(254.492188 0)"/>
       <use xlink:href="#DejaVuSans-30" transform="translate(290.576172 0)"/>
       <use xlink:href="#DejaVuSans-35" transform="translate(354.199219 0)"/>
      </g>
     </g>
    </g>
    <g id="xtick_3">
     <g id="text_3">
      <!-- 2023-09 -->
      <g style="fill: #262626" transform="translate(122.777912 303.491603) rotate(-30) scale(0.165 -0.165)">
       <defs>
        <path id="DejaVuSans-39" d="M 703 97 
L 703 672 
Q 941 559 1184 500 
Q 1428 441 1663 441 
Q 2288 441 2617 861 
Q 2947 1281 2994 2138 
Q 2813 1869 2534 1725 
Q 2256 1581 1919 1581 
Q 1219 1581 811 2004 
Q 403 2428 403 3163 
Q 403 3881 828 4315 
Q 1253 4750 1959 4750 
Q 2769 4750 3195 4129 
Q 3622 3509 3622 2328 
Q 3622 1225 3098 567 
Q 2575 -91 1691 -91 
Q 1453 -91 1209 -44 
Q 966 3 703 97 
z
M 1959 2075 
Q 2384 2075 2632 2365 
Q 2881 2656 2881 3163 
Q 2881 3666 2632 3958 
Q 2384 4250 1959 4250 
Q 1534 4250 1286 3958 
Q 1038 3666 1038 3163 
Q 1038 2656 1286 2365 
Q 1534 2075 1959 2075 
z
" transform="scale(0.015625)"/>
       </defs>
       <use xlink:href="#DejaVuSans-32"/>
       <use xlink:href="#DejaVuSans-30" transform="translate(63.623047 0)"/>
       <use xlink:href="#DejaVuSans-32" transform="translate(127.246094 0)"/>
       <use xlink:href="#DejaVuSans-33" transform="translate(190.869141 0)"/>
       <use xlink:href="#DejaVuSans-2d" transform="translate(254.492188 0)"/>
       <use xlink:href="#DejaVuSans-30" transform="translate(290.576172 0)"/>
       <use xlink:href="#DejaVuSans-39" transform="translate(354.199219 0)"/>
      </g>
     </g>
    </g>
    <g id="xtick_4">
     <g id="text_4">
      <!-- 2024-01 -->
      <g style="fill: #262626" transform="translate(175.328129 303.491603) rotate(-30) scale(0.165 -0.165)">
       <defs>
        <path id="DejaVuSans-34" d="M 2419 4116 
L 825 1625 
L 2419 1625 
L 2419 4116 
z
M 2253 4666 
L 3047 4666 
L 3047 1625 
L 3713 1625 
L 3713 1100 
L 3047 1100 
L 3047 0 
L 2419 0 
L 2419 1100 
L 313 1100 
L 313 1709 
L 2253 4666 
z
" transform="scale(0.015625)"/>
       </defs>
       <use xlink:href="#DejaVuSans-32"/>
       <use xlink:href="#DejaVuSans-30" transform="translate(63.623047 0)"/>
       <use xlink:href="#DejaVuSans-32" transform="translate(127.246094 0)"/>
       <use xlink:href="#DejaVuSans-34" transform="translate(190.869141 0)"/>
       <use xlink:href="#DejaVuSans-2d" transform="translate(254.492188 0)"/>
       <use xlink:href="#DejaVuSans-30" transform="translate(290.576172 0)"/>
       <use xlink:href="#DejaVuSans-31" transform="translate(354.199219 0)"/>
      </g>
     </g>
    </g>
    <g id="xtick_5">
     <g id="text_5">
      <!-- 2024-05 -->
      <g style="fill: #262626" transform="translate(227.447607 303.491603) rotate(-30) scale(0.165 -0.165)">
       <use xlink:href="#DejaVuSans-32"/>
       <use xlink:href="#DejaVuSans-30" transform="translate(63.623047 0)"/>
       <use xlink:href="#DejaVuSans-32" transform="translate(127.246094 0)"/>
       <use xlink:href="#DejaVuSans-34" transform="translate(190.869141 0)"/>
       <use xlink:href="#DejaVuSans-2d" transform="translate(254.492188 0)"/>
       <use xlink:href="#DejaVuSans-30" transform="translate(290.576172 0)"/>
       <use xlink:href="#DejaVuSans-35" transform="translate(354.199219 0)"/>
      </g>
     </g>
    </g>
    <g id="xtick_6">
     <g id="text_6">
      <!-- 2024-09 -->
      <g style="fill: #262626" transform="translate(280.428563 303.491603) rotate(-30) scale(0.165 -0.165)">
       <use xlink:href="#DejaVuSans-32"/>
       <use xlink:href="#DejaVuSans-30" transform="translate(63.623047 0)"/>
       <use xlink:href="#DejaVuSans-32" transform="translate(127.246094 0)"/>
       <use xlink:href="#DejaVuSans-34" transform="translate(190.869141 0)"/>
       <use xlink:href="#DejaVuSans-2d" transform="translate(254.492188 0)"/>
       <use xlink:href="#DejaVuSans-30" transform="translate(290.576172 0)"/>
       <use xlink:href="#DejaVuSans-39" transform="translate(354.199219 0)"/>
      </g>
     </g>
    </g>
    <g id="xtick_7">
     <g id="text_7">
      <!-- 2025-01 -->
      <g style="fill: #262626" transform="translate(332.97878 303.491603) rotate(-30) scale(0.165 -0.165)">
       <use xlink:href="#DejaVuSans-32"/>
       <use xlink:href="#DejaVuSans-30" transform="translate(63.623047 0)"/>
       <use xlink:href="#DejaVuSans-32" transform="translate(127.246094 0)"/>
       <use xlink:href="#DejaVuSans-35" transform="translate(190.869141 0)"/>
       <use xlink:href="#DejaVuSans-2d" transform="translate(254.492188 0)"/>
       <use xlink:href="#DejaVuSans-30" transform="translate(290.576172 0)"/>
       <use xlink:href="#DejaVuSans-31" transform="translate(354.199219 0)"/>
      </g>
     </g>
    </g>
    <g id="xtick_8">
     <g id="text_8">
      <!-- 2025-05 -->
      <g style="fill: #262626" transform="translate(384.667519 303.491603) rotate(-30) scale(0.165 -0.165)">
       <use xlink:href="#DejaVuSans-32"/>
       <use xlink:href="#DejaVuSans-30" transform="translate(63.623047 0)"/>
       <use xlink:href="#DejaVuSans-32" transform="translate(127.246094 0)"/>
       <use xlink:href="#DejaVuSans-35" transform="translate(190.869141 0)"/>
       <use xlink:href="#DejaVuSans-2d" transform="translate(254.492188 0)"/>
       <use xlink:href="#DejaVuSans-30" transform="translate(290.576172 0)"/>
       <use xlink:href="#DejaVuSans-35" transform="translate(354.199219 0)"/>
      </g>
     </g>
    </g>
    <g id="xtick_9">
     <g id="text_9">
      <!-- 2025-09 -->
      <g style="fill: #262626" transform="translate(437.648475 303.491603) rotate(-30) scale(0.165 -0.165)">
       <use xlink:href="#DejaVuSans-32"/>
       <use xlink:href="#DejaVuSans-30" transform="translate(63.623047 0)"/>
       <use xlink:href="#DejaVuSans-32" transform="translate(127.246094 0)"/>
       <use xlink:href="#DejaVuSans-35" transform="translate(190.869141 0)"/>
       <use xlink:href="#DejaVuSans-2d" transform="translate(254.492188 0)"/>
       <use xlink:href="#DejaVuSans-30" transform="translate(290.576172 0)"/>
       <use xlink:href="#DejaVuSans-39" transform="translate(354.199219 0)"/>
      </g>
     </g>
    </g>
    <g id="text_10">
     <!-- Date -->
     <g style="fill: #262626" transform="translate(283.940625 324.140543) scale(0.18 -0.18)">
      <defs>
       <path id="DejaVuSans-44" d="M 1259 4147 
L 1259 519 
L 2022 519 
Q 2988 519 3436 956 
Q 3884 1394 3884 2338 
Q 3884 3275 3436 3711 
Q 2988 4147 2022 4147 
L 1259 4147 
z
M 628 4666 
L 1925 4666 
Q 3281 4666 3915 4102 
Q 4550 3538 4550 2338 
Q 4550 1131 3912 565 
Q 3275 0 1925 0 
L 628 0 
L 628 4666 
z
" transform="scale(0.015625)"/>
       <path id="DejaVuSans-61" d="M 2194 1759 
Q 1497 1759 1228 1600 
Q 959 1441 959 1056 
Q 959 750 1161 570 
Q 1363 391 1709 391 
Q 2188 391 2477 730 
Q 2766 1069 2766 1631 
L 2766 1759 
L 2194 1759 
z
M 3341 1997 
L 3341 0 
L 2766 0 
L 2766 531 
Q 2569 213 2275 61 
Q 1981 -91 1556 -91 
Q 1019 -91 701 211 
Q 384 513 384 1019 
Q 384 1609 779 1909 
Q 1175 2209 1959 2209 
L 2766 2209 
L 2766 2266 
Q 2766 2663 2505 2880 
Q 2244 3097 1772 3097 
Q 1472 3097 1187 3025 
Q 903 2953 641 2809 
L 641 3341 
Q 956 3463 1253 3523 
Q 1550 3584 1831 3584 
Q 2591 3584 2966 3190 
Q 3341 2797 3341 1997 
z
" transform="scale(0.015625)"/>
       <path id="DejaVuSans-74" d="M 1172 4494 
L 1172 3500 
L 2356 3500 
L 2356 3053 
L 1172 3053 
L 1172 1153 
Q 1172 725 1289 603 
Q 1406 481 1766 481 
L 2356 481 
L 2356 0 
L 1766 0 
Q 1100 0 847 248 
Q 594 497 594 1153 
L 594 3053 
L 172 3053 
L 172 3500 
L 594 3500 
L 594 4494 
L 1172 4494 
z
" transform="scale(0.015625)"/>
       <path id="DejaVuSans-65" d="M 3597 1894 
L 3597 1613 
L 953 1613 
Q 991 1019 1311 708 
Q 1631 397 2203 397 
Q 2534 397 2845 478 
Q 3156 559 3463 722 
L 3463 178 
Q 3153 47 2828 -22 
Q 2503 -91 2169 -91 
Q 1331 -91 842 396 
Q 353 884 353 1716 
Q 353 2575 817 3079 
Q 1281 3584 2069 3584 
Q 2775 3584 3186 3129 
Q 3597 2675 3597 1894 
z
M 3022 2063 
Q 3016 2534 2758 2815 
Q 2500 3097 2075 3097 
Q 1594 3097 1305 2825 
Q 1016 2553 972 2059 
L 3022 2063 
z
" transform="scale(0.015625)"/>
      </defs>
      <use xlink:href="#DejaVuSans-44"/>
      <use xlink:href="#DejaVuSans-61" transform="translate(77.001953 0)"/>
      <use xlink:href="#DejaVuSans-74" transform="translate(138.28125 0)"/>
      <use xlink:href="#DejaVuSans-65" transform="translate(177.490234 0)"/>
     </g>
    </g>
   </g>
   <g id="matplotlib.axis_2">
    <g id="ytick_1">
     <g id="text_11">
      <!-- 0.0 -->
      <g style="fill: #262626" transform="translate(28.620625 217.385919) scale(0.165 -0.165)">
       <defs>
        <path id="DejaVuSans-2e" d="M 684 794 
L 1344 794 
L 1344 0 
L 684 0 
L 684 794 
z
" transform="scale(0.015625)"/>
       </defs>
       <use xlink:href="#DejaVuSans-30"/>
       <use xlink:href="#DejaVuSans-2e" transform="translate(63.623047 0)"/>
       <use xlink:href="#DejaVuSans-30" transform="translate(95.410156 0)"/>
      </g>
     </g>
    </g>
    <g id="ytick_2">
     <g id="text_12">
      <!-- 0.2 -->
      <g style="fill: #262626" transform="translate(28.620625 173.753874) scale(0.165 -0.165)">
       <use xlink:href="#DejaVuSans-30"/>
       <use xlink:href="#DejaVuSans-2e" transform="translate(63.623047 0)"/>
       <use xlink:href="#DejaVuSans-32" transform="translate(95.410156 0)"/>
      </g>
     </g>
    </g>
    <g id="ytick_3">
     <g id="text_13">
      <!-- 0.4 -->
      <g style="fill: #262626" transform="translate(28.620625 130.121828) scale(0.165 -0.165)">
       <use xlink:href="#DejaVuSans-30"/>
       <use xlink:href="#DejaVuSans-2e" transform="translate(63.623047 0)"/>
       <use xlink:href="#DejaVuSans-34" transform="translate(95.410156 0)"/>
      </g>
     </g>
    </g>
    <g id="ytick_4">
     <g id="text_14">
      <!-- 0.6 -->
      <g style="fill: #262626" transform="translate(28.620625 86.489783) scale(0.165 -0.165)">
       <defs>
        <path id="DejaVuSans-36" d="M 2113 2584 
Q 1688 2584 1439 2293 
Q 1191 2003 1191 1497 
Q 1191 994 1439 701 
Q 1688 409 2113 409 
Q 2538 409 2786 701 
Q 3034 994 3034 1497 
Q 3034 2003 2786 2293 
Q 2538 2584 2113 2584 
z
M 3366 4563 
L 3366 3988 
Q 3128 4100 2886 4159 
Q 2644 4219 2406 4219 
Q 1781 4219 1451 3797 
Q 1122 3375 1075 2522 
Q 1259 2794 1537 2939 
Q 1816 3084 2150 3084 
Q 2853 3084 3261 2657 
Q 3669 2231 3669 1497 
Q 3669 778 3244 343 
Q 2819 -91 2113 -91 
Q 1303 -91 875 529 
Q 447 1150 447 2328 
Q 447 3434 972 4092 
Q 1497 4750 2381 4750 
Q 2619 4750 2861 4703 
Q 3103 4656 3366 4563 
z
" transform="scale(0.015625)"/>
       </defs>
       <use xlink:href="#DejaVuSans-30"/>
       <use xlink:href="#DejaVuSans-2e" transform="translate(63.623047 0)"/>
       <use xlink:href="#DejaVuSans-36" transform="translate(95.410156 0)"/>
      </g>
     </g>
    </g>
    <g id="ytick_5">
     <g id="text_15">
      <!-- 0.8 -->
      <g style="fill: #262626" transform="translate(28.620625 42.857738) scale(0.165 -0.165)">
       <defs>
        <path id="DejaVuSans-38" d="M 2034 2216 
Q 1584 2216 1326 1975 
Q 1069 1734 1069 1313 
Q 1069 891 1326 650 
Q 1584 409 2034 409 
Q 2484 409 2743 651 
Q 3003 894 3003 1313 
Q 3003 1734 2745 1975 
Q 2488 2216 2034 2216 
z
M 1403 2484 
Q 997 2584 770 2862 
Q 544 3141 544 3541 
Q 544 4100 942 4425 
Q 1341 4750 2034 4750 
Q 2731 4750 3128 4425 
Q 3525 4100 3525 3541 
Q 3525 3141 3298 2862 
Q 3072 2584 2669 2484 
Q 3125 2378 3379 2068 
Q 3634 1759 3634 1313 
Q 3634 634 3220 271 
Q 2806 -91 2034 -91 
Q 1263 -91 848 271 
Q 434 634 434 1313 
Q 434 1759 690 2068 
Q 947 2378 1403 2484 
z
M 1172 3481 
Q 1172 3119 1398 2916 
Q 1625 2713 2034 2713 
Q 2441 2713 2670 2916 
Q 2900 3119 2900 3481 
Q 2900 3844 2670 4047 
Q 2441 4250 2034 4250 
Q 1625 4250 1398 4047 
Q 1172 3844 1172 3481 
z
" transform="scale(0.015625)"/>
       </defs>
       <use xlink:href="#DejaVuSans-30"/>
       <use xlink:href="#DejaVuSans-2e" transform="translate(63.623047 0)"/>
       <use xlink:href="#DejaVuSans-38" transform="translate(95.410156 0)"/>
      </g>
     </g>
    </g>
    <g id="text_16">
     <!-- Correlation -->
     <g style="fill: #262626" transform="translate(20.877187 185.893872) rotate(-90) scale(0.18 -0.18)">
      <defs>
       <path id="DejaVuSans-43" d="M 4122 4306 
L 4122 3641 
Q 3803 3938 3442 4084 
Q 3081 4231 2675 4231 
Q 1875 4231 1450 3742 
Q 1025 3253 1025 2328 
Q 1025 1406 1450 917 
Q 1875 428 2675 428 
Q 3081 428 3442 575 
Q 3803 722 4122 1019 
L 4122 359 
Q 3791 134 3420 21 
Q 3050 -91 2638 -91 
Q 1578 -91 968 557 
Q 359 1206 359 2328 
Q 359 3453 968 4101 
Q 1578 4750 2638 4750 
Q 3056 4750 3426 4639 
Q 3797 4528 4122 4306 
z
" transform="scale(0.015625)"/>
       <path id="DejaVuSans-6f" d="M 1959 3097 
Q 1497 3097 1228 2736 
Q 959 2375 959 1747 
Q 959 1119 1226 758 
Q 1494 397 1959 397 
Q 2419 397 2687 759 
Q 2956 1122 2956 1747 
Q 2956 2369 2687 2733 
Q 2419 3097 1959 3097 
z
M 1959 3584 
Q 2709 3584 3137 3096 
Q 3566 2609 3566 1747 
Q 3566 888 3137 398 
Q 2709 -91 1959 -91 
Q 1206 -91 779 398 
Q 353 888 353 1747 
Q 353 2609 779 3096 
Q 1206 3584 1959 3584 
z
" transform="scale(0.015625)"/>
       <path id="DejaVuSans-72" d="M 2631 2963 
Q 2534 3019 2420 3045 
Q 2306 3072 2169 3072 
Q 1681 3072 1420 2755 
Q 1159 2438 1159 1844 
L 1159 0 
L 581 0 
L 581 3500 
L 1159 3500 
L 1159 2956 
Q 1341 3275 1631 3429 
Q 1922 3584 2338 3584 
Q 2397 3584 2469 3576 
Q 2541 3569 2628 3553 
L 2631 2963 
z
" transform="scale(0.015625)"/>
       <path id="DejaVuSans-6c" d="M 603 4863 
L 1178 4863 
L 1178 0 
L 603 0 
L 603 4863 
z
" transform="scale(0.015625)"/>
       <path id="DejaVuSans-69" d="M 603 3500 
L 1178 3500 
L 1178 0 
L 603 0 
L 603 3500 
z
M 603 4863 
L 1178 4863 
L 1178 4134 
L 603 4134 
L 603 4863 
z
" transform="scale(0.015625)"/>
       <path id="DejaVuSans-6e" d="M 3513 2113 
L 3513 0 
L 2938 0 
L 2938 2094 
Q 2938 2591 2744 2837 
Q 2550 3084 2163 3084 
Q 1697 3084 1428 2787 
Q 1159 2491 1159 1978 
L 1159 0 
L 581 0 
L 581 3500 
L 1159 3500 
L 1159 2956 
Q 1366 3272 1645 3428 
Q 1925 3584 2291 3584 
Q 2894 3584 3203 3211 
Q 3513 2838 3513 2113 
z
" transform="scale(0.015625)"/>
      </defs>
      <use xlink:href="#DejaVuSans-43"/>
      <use xlink:href="#DejaVuSans-6f" transform="translate(69.824219 0)"/>
      <use xlink:href="#DejaVuSans-72" transform="translate(131.005859 0)"/>
      <use xlink:href="#DejaVuSans-72" transform="translate(170.369141 0)"/>
      <use xlink:href="#DejaVuSans-65" transform="translate(209.232422 0)"/>
      <use xlink:href="#DejaVuSans-6c" transform="translate(270.755859 0)"/>
      <use xlink:href="#DejaVuSans-61" transform="translate(298.539062 0)"/>
      <use xlink:href="#DejaVuSans-74" transform="translate(359.818359 0)"/>
      <use xlink:href="#DejaVuSans-69" transform="translate(399.027344 0)"/>
      <use xlink:href="#DejaVuSans-6f" transform="translate(426.810547 0)"/>
      <use xlink:href="#DejaVuSans-6e" transform="translate(487.992188 0)"/>
     </g>
    </g>
   </g>
   <g id="line2d_1">
    <path d="M 89.00544 108.171263 
L 89.43618 115.828127 
L 89.866919 115.416558 
L 90.297659 121.399077 
L 90.728398 120.262998 
L 92.020617 120.156768 
L 92.451356 116.403658 
L 92.882096 127.056753 
L 93.312835 134.891361 
L 93.743575 137.421006 
L 95.035793 141.433379 
L 95.466533 143.564928 
L 95.897272 136.698678 
L 96.328012 132.563298 
L 99.343188 120.675219 
L 99.773927 121.928208 
L 102.358364 125.44617 
L 102.789104 128.785001 
L 104.081322 128.549685 
L 104.512062 132.94295 
L 104.942801 132.559786 
L 105.373541 133.780458 
L 105.80428 137.375581 
L 107.096499 133.303192 
L 107.527238 129.453951 
L 107.957978 130.866458 
L 108.388717 127.834242 
L 108.819457 134.778232 
L 110.111675 135.269067 
L 110.542415 137.34829 
L 110.973154 140.323352 
L 111.403894 131.453507 
L 111.834633 125.044231 
L 113.126851 122.488611 
L 113.557591 123.212048 
L 113.98833 118.781083 
L 114.41907 120.950614 
L 114.849809 119.436356 
L 116.142028 120.89339 
L 116.572767 121.86645 
L 117.003507 118.012974 
L 117.434246 117.512767 
L 117.864986 117.481188 
L 119.157204 115.350008 
L 119.587944 123.228631 
L 120.449423 124.732184 
L 122.172381 124.843543 
L 122.60312 125.186756 
L 123.03386 126.153982 
L 123.464599 124.848953 
L 123.895339 125.68983 
L 125.187557 124.467278 
L 125.618297 125.342713 
L 126.049036 136.271763 
L 126.479775 130.637826 
L 126.910515 130.479346 
L 128.202733 131.431649 
L 128.633473 128.672997 
L 129.064212 128.296637 
L 129.494952 126.398047 
L 129.925691 115.741681 
L 131.648649 103.5238 
L 132.079389 98.927504 
L 132.510128 101.995679 
L 132.940868 99.34501 
L 134.233086 100.385059 
L 134.663826 101.622682 
L 135.094565 102.048235 
L 135.525305 100.945756 
L 135.956044 101.069945 
L 137.248263 102.407107 
L 138.109742 97.685914 
L 138.540481 96.413699 
L 138.971221 95.926731 
L 140.263439 95.100438 
L 140.694178 94.210479 
L 141.124918 92.51105 
L 141.555657 96.539983 
L 141.986397 99.307255 
L 143.709355 98.035283 
L 144.140094 96.627847 
L 144.570834 97.483136 
L 145.001573 93.195934 
L 146.293792 95.335272 
L 146.724531 87.300748 
L 147.155271 88.500012 
L 147.58601 84.221889 
L 148.01675 86.57931 
L 149.308968 95.786967 
L 149.739708 101.916026 
L 150.170447 104.735207 
L 150.601187 105.804521 
L 151.031926 117.58632 
L 152.754884 114.383669 
L 153.185624 114.792139 
L 153.616363 114.832317 
L 154.047102 113.779717 
L 155.77006 120.585482 
L 156.2008 121.081219 
L 157.062279 120.012561 
L 158.354497 118.091422 
L 159.215976 118.123382 
L 159.646716 116.040581 
L 160.077455 116.612648 
L 161.369674 117.49242 
L 161.800413 112.024955 
L 162.231153 114.159679 
L 162.661892 120.543983 
L 163.092632 120.028169 
L 164.38485 92.8518 
L 164.81559 93.873508 
L 165.246329 93.864556 
L 165.677069 104.719481 
L 166.107808 106.699081 
L 167.400027 106.984901 
L 167.830766 118.729276 
L 168.692245 124.113999 
L 169.122984 130.291236 
L 170.415203 131.984409 
L 170.845942 130.523223 
L 171.276682 139.13437 
L 171.707421 137.739935 
L 172.138161 134.08838 
L 173.430379 131.161325 
L 173.861119 128.97541 
L 174.291858 129.377218 
L 174.722598 129.584782 
L 175.153337 130.93627 
L 176.445556 131.212713 
L 176.876295 128.020029 
L 177.307035 135.021507 
L 177.737774 131.87294 
L 178.168514 134.2717 
L 179.460732 140.785445 
L 180.322211 124.322089 
L 180.752951 132.174971 
L 181.18369 137.255322 
L 182.475908 143.144931 
L 182.906648 155.137317 
L 183.337387 155.376587 
L 183.768127 155.780987 
L 184.198866 153.697522 
L 185.921824 151.819734 
L 186.352564 153.693808 
L 186.783303 153.285007 
L 187.214043 156.03187 
L 188.506261 152.443567 
L 188.937001 165.11226 
L 189.36774 163.420995 
L 189.79848 158.281495 
L 190.229219 155.667957 
L 191.521438 155.900076 
L 191.952177 158.47196 
L 192.382917 167.088734 
L 192.813656 167.530332 
L 193.244396 165.06996 
L 194.536614 168.122016 
L 194.967354 179.893514 
L 195.398093 179.53894 
L 195.828832 180.483699 
L 196.259572 182.486357 
L 197.55179 181.957394 
L 197.98253 174.68418 
L 198.413269 176.946664 
L 198.844009 174.05516 
L 199.274748 168.703283 
L 200.566967 167.698453 
L 201.428446 178.283949 
L 201.859185 175.230467 
L 202.289925 174.718207 
L 203.582143 163.560868 
L 204.012883 166.032968 
L 205.305101 144.613038 
L 206.59732 139.298876 
L 207.028059 142.791274 
L 207.458799 177.99542 
L 207.889538 180.635026 
L 208.320278 178.798506 
L 209.612496 166.218463 
L 210.043235 166.090864 
L 210.473975 163.484272 
L 210.904714 168.009703 
L 211.335454 169.712164 
L 212.627672 169.364301 
L 213.058412 168.072439 
L 213.489151 174.539642 
L 213.919891 171.181259 
L 214.35063 171.094071 
L 215.642849 171.338843 
L 216.073588 181.125593 
L 216.504328 182.015062 
L 216.935067 183.396114 
L 217.365807 180.511858 
L 218.658025 179.880422 
L 219.088765 180.256439 
L 219.519504 179.6191 
L 220.380983 179.358922 
L 221.673202 179.874935 
L 222.103941 180.693218 
L 222.534681 182.579756 
L 223.396159 179.390462 
L 224.688378 180.181535 
L 225.119117 181.256067 
L 225.549857 178.542674 
L 225.980596 179.688065 
L 226.411336 184.472325 
L 227.703554 187.537538 
L 228.134294 186.675264 
L 228.995773 181.254406 
L 229.426512 182.28245 
L 230.718731 182.92344 
L 231.14947 180.869253 
L 231.58021 172.883571 
L 232.010949 170.985973 
L 232.441689 170.283794 
L 234.595386 173.480312 
L 235.026126 179.180394 
L 235.456865 181.490395 
L 237.179823 181.548162 
L 237.610562 176.405899 
L 238.041302 176.963067 
L 238.472041 175.175741 
L 239.76426 179.490645 
L 240.194999 182.810571 
L 240.625739 176.44497 
L 241.056478 183.2658 
L 241.487218 182.631715 
L 243.210176 189.33043 
L 244.071655 214.785611 
L 244.502394 191.236325 
L 245.794613 188.35529 
L 246.225352 156.647675 
L 246.656092 158.150706 
L 247.517571 174.818723 
L 248.809789 177.804613 
L 249.240529 181.738903 
L 249.671268 163.500205 
L 250.102008 161.536673 
L 250.532747 158.42166 
L 251.824965 155.93717 
L 252.255705 156.121877 
L 252.686444 156.918734 
L 253.117184 157.378688 
L 253.547923 157.205257 
L 254.840142 134.360751 
L 255.270881 139.889643 
L 255.701621 140.661362 
L 256.13236 139.6511 
L 256.5631 135.777165 
L 258.286058 136.476603 
L 258.716797 136.77478 
L 259.147537 133.30602 
L 259.578276 132.486516 
L 260.870495 130.609896 
L 261.301234 130.699104 
L 261.731974 129.859875 
L 262.162713 130.713014 
L 262.593453 134.149028 
L 263.885671 133.976944 
L 264.31641 135.353744 
L 264.74715 133.051369 
L 265.177889 134.79012 
L 265.608629 133.139381 
L 266.900847 133.541166 
L 267.331587 134.293629 
L 267.762326 134.428997 
L 268.623805 131.824373 
L 269.916024 133.361727 
L 270.346763 140.763335 
L 270.777503 142.007111 
L 271.208242 141.887417 
L 271.638982 141.298567 
L 272.9312 141.805947 
L 273.36194 141.199576 
L 273.792679 137.277497 
L 274.223419 136.04375 
L 275.946377 135.235641 
L 276.377116 133.125061 
L 276.807856 133.241189 
L 277.238595 125.47875 
L 277.669335 124.026495 
L 278.961553 123.827692 
L 279.392292 128.829186 
L 279.823032 130.399473 
L 280.253771 136.960345 
L 280.684511 139.541098 
L 281.976729 140.332926 
L 282.407469 154.719288 
L 283.268948 157.696353 
L 283.699687 165.152281 
L 284.991906 165.683223 
L 285.422645 166.626922 
L 285.853385 165.815205 
L 286.284124 165.692117 
L 286.714864 171.980645 
L 288.007082 172.761264 
L 288.437822 176.326356 
L 288.868561 178.023153 
L 289.299301 176.52921 
L 289.73004 179.757554 
L 291.022259 176.875467 
L 291.452998 177.202795 
L 291.883737 177.194885 
L 292.314477 171.786573 
L 292.745216 172.440436 
L 294.468174 174.691027 
L 295.329653 181.760283 
L 295.760393 189.972282 
L 297.052611 190.524274 
L 297.91409 191.421706 
L 298.34483 186.360077 
L 300.498527 182.631577 
L 300.929267 182.524809 
L 301.360006 185.073988 
L 301.790746 182.289917 
L 303.082964 182.922105 
L 303.513704 183.78123 
L 304.375183 189.016749 
L 304.805922 188.718203 
L 306.09814 189.382022 
L 306.52888 191.088407 
L 306.959619 195.065765 
L 307.390359 196.542774 
L 307.821098 198.433224 
L 309.113317 195.93055 
L 309.544056 196.23463 
L 310.405535 197.764359 
L 310.836275 196.949173 
L 312.128493 202.777434 
L 312.989972 205.350043 
L 313.420712 205.230582 
L 313.851451 202.406117 
L 315.14367 202.45041 
L 315.574409 206.159479 
L 316.005149 205.81108 
L 316.866628 206.565837 
L 318.158846 204.870103 
L 318.589586 200.322467 
L 319.020325 189.11663 
L 319.451064 192.664846 
L 319.881804 188.814612 
L 321.174022 214.179751 
L 321.604762 204.457803 
L 322.035501 206.367477 
L 322.466241 205.677722 
L 322.89698 178.915065 
L 324.189199 175.976857 
L 324.619938 177.313699 
L 325.050678 176.783541 
L 325.481417 178.519243 
L 325.912157 172.0765 
L 327.204375 171.082309 
L 328.065854 189.692328 
L 328.496594 183.155445 
L 328.927333 192.19929 
L 330.219552 172.227891 
L 330.650291 174.157893 
L 331.081031 175.501277 
L 331.51177 171.113709 
L 331.94251 171.215023 
L 333.234728 166.148783 
L 333.665467 162.891693 
L 334.096207 162.04596 
L 334.526946 158.546933 
L 334.957686 158.633518 
L 336.249904 156.750436 
L 336.680644 159.400258 
L 337.111383 160.003798 
L 337.542123 161.313416 
L 337.972862 158.027687 
L 339.265081 156.177818 
L 339.69582 157.98216 
L 340.12656 157.394299 
L 340.557299 157.578709 
L 340.988039 153.848322 
L 343.572476 155.287773 
L 344.003215 159.189455 
L 345.295434 150.950085 
L 345.726173 151.696077 
L 346.156913 162.312396 
L 346.587652 162.198051 
L 347.018391 161.04275 
L 348.31061 159.879629 
L 348.741349 160.211165 
L 349.172089 159.282411 
L 349.602828 163.345004 
L 350.033568 162.724528 
L 351.325786 162.701629 
L 351.756526 164.609942 
L 352.187265 163.964174 
L 352.618005 164.280201 
L 353.048744 163.870655 
L 354.340963 163.459567 
L 354.771702 164.159041 
L 355.202442 164.002758 
L 355.633181 166.771349 
L 356.063921 163.552375 
L 357.356139 158.250484 
L 357.786879 155.884351 
L 358.217618 157.253706 
L 358.648358 152.628635 
L 359.079097 151.603912 
L 360.371316 151.221352 
L 360.802055 152.822883 
L 361.232794 151.119622 
L 361.663534 169.137014 
L 362.094273 168.678203 
L 363.386492 170.873536 
L 363.817231 170.735738 
L 364.247971 164.222419 
L 364.67871 155.799464 
L 365.10945 162.040134 
L 366.401668 155.676909 
L 366.832408 174.374779 
L 367.263147 173.358484 
L 367.693887 164.20751 
L 368.124626 166.487328 
L 369.416845 165.299332 
L 369.847584 164.545088 
L 370.278324 147.96681 
L 370.709063 150.303369 
L 371.139803 151.052042 
L 372.432021 151.032516 
L 373.2935 152.404702 
L 373.72424 151.753461 
L 374.154979 157.536756 
L 375.447197 160.3926 
L 375.877937 161.856451 
L 376.308676 161.789068 
L 376.739416 160.323172 
L 377.170155 159.922056 
L 378.462374 161.01885 
L 378.893113 158.692734 
L 379.323853 158.825365 
L 380.185332 159.490761 
L 381.47755 151.568918 
L 381.90829 157.167483 
L 382.339029 156.262785 
L 382.769769 144.323114 
L 383.200508 146.18911 
L 384.923466 140.158586 
L 385.354206 143.360759 
L 385.784945 143.494958 
L 386.215685 135.563813 
L 387.507903 135.299705 
L 387.938643 134.245442 
L 388.369382 120.92755 
L 388.800121 121.557729 
L 389.230861 119.571432 
L 390.523079 119.782951 
L 390.953819 118.514153 
L 392.246037 115.287598 
L 393.538256 115.263524 
L 393.968995 117.345246 
L 395.261214 125.956094 
L 396.984172 127.116299 
L 397.414911 128.350332 
L 398.27639 119.849021 
L 399.568609 118.375202 
L 399.999348 119.172897 
L 400.430088 84.116271 
L 400.860827 86.048526 
L 401.291567 90.241538 
L 403.014524 91.266358 
L 403.445264 92.390505 
L 403.876003 97.407318 
L 404.306743 96.111465 
L 405.598961 122.549185 
L 406.029701 124.990349 
L 406.46044 125.079984 
L 406.89118 130.703465 
L 407.321919 128.773092 
L 408.614138 129.516333 
L 409.044877 131.744088 
L 409.475617 151.162517 
L 409.906356 148.653463 
L 410.337096 147.675475 
L 411.629314 150.772131 
L 412.060054 150.750566 
L 412.490793 150.259576 
L 412.921533 147.397375 
L 413.352272 136.908521 
L 415.07523 137.440239 
L 415.50597 135.575202 
L 415.936709 135.219613 
L 416.367448 137.411092 
L 418.090406 150.912808 
L 418.521146 152.862686 
L 418.951885 165.763605 
L 419.382625 160.031893 
L 420.674843 165.345703 
L 421.105583 159.887879 
L 421.536322 158.408663 
L 422.397801 154.667972 
L 423.69002 159.546491 
L 424.120759 158.668963 
L 424.551499 157.512597 
L 424.982238 163.906595 
L 425.412978 156.455544 
L 426.705196 154.21682 
L 427.135936 151.576233 
L 427.566675 169.501478 
L 427.997415 169.173125 
L 428.428154 172.673132 
L 429.720372 169.522725 
L 430.151112 170.607621 
L 431.012591 176.093952 
L 431.44333 176.378621 
L 432.735549 174.955176 
L 433.166288 175.232116 
L 433.597028 176.617292 
L 434.027767 173.919885 
L 434.458507 116.607027 
L 435.750725 119.811368 
L 436.181465 126.274658 
L 436.612204 102.326821 
L 437.042944 100.884908 
L 437.473683 103.150514 
L 438.765902 102.250715 
L 439.196641 100.06427 
L 439.627381 102.998593 
L 440.05812 102.905926 
L 441.781078 96.98051 
L 442.642557 86.283893 
L 443.073297 84.802226 
L 443.504036 85.420767 
L 444.796254 85.177861 
L 445.226994 84.649515 
L 445.657733 84.792935 
L 446.088473 85.674181 
L 446.519212 84.556976 
L 447.811431 84.64899 
L 448.24217 85.141496 
L 448.67291 83.471093 
L 449.103649 83.276697 
L 449.534389 83.297803 
L 450.826607 89.329649 
L 451.257347 89.601903 
L 451.688086 90.035563 
L 452.118826 91.118774 
L 452.549565 90.964866 
L 453.841784 91.316111 
L 454.272523 86.530668 
L 454.703263 84.295992 
L 455.134002 83.427479 
L 455.564742 77.568616 
L 457.287699 77.074973 
L 457.718439 74.448299 
L 458.149178 75.087314 
L 458.579918 75.456695 
L 459.872136 75.948781 
L 460.302876 76.257087 
L 460.733615 75.277006 
L 461.164355 75.487374 
L 461.595094 74.247069 
L 462.887313 72.261503 
L 463.318052 75.105117 
L 463.748792 74.893033 
L 464.179531 76.246557 
L 464.610271 75.736051 
L 465.902489 75.582643 
L 466.333229 75.102455 
L 466.763968 75.708211 
L 467.625447 75.718046 
L 468.917666 73.255861 
L 469.348405 74.208058 
L 469.779145 74.825046 
L 470.209884 74.641501 
L 470.640624 74.629082 
L 471.932842 74.878069 
L 472.363581 69.457839 
L 472.794321 101.01595 
L 474.948018 93.674535 
L 475.378758 126.651343 
L 475.809497 129.659603 
L 476.240237 127.54056 
L 476.670976 128.128055 
L 477.963195 128.668894 
L 478.393934 113.018097 
L 478.824674 111.700837 
L 479.255413 125.340961 
L 479.686153 149.801862 
L 480.978371 143.205227 
L 481.409111 144.603631 
L 481.83985 145.461847 
L 482.27059 144.285762 
L 482.701329 145.390193 
L 483.993548 145.250417 
L 484.424287 148.426725 
L 484.855027 156.108923 
L 485.285766 156.764584 
L 485.716505 153.331364 
L 487.008724 147.382914 
L 487.439463 150.76567 
L 487.870203 149.753352 
L 488.300942 130.613373 
L 488.731682 127.865562 
L 490.0239 127.536642 
L 490.885379 130.8116 
L 491.316119 130.613434 
L 491.746858 129.558974 
L 493.039077 131.046215 
L 493.469816 137.742916 
L 493.900556 142.077974 
L 494.331295 151.959813 
L 494.762035 153.437246 
L 496.054253 150.839244 
L 496.484993 151.21774 
L 496.915732 151.275589 
L 497.346472 151.562094 
L 497.777211 154.293057 
L 499.500169 158.113669 
L 499.930908 159.342888 
L 500.361648 156.098568 
L 500.792387 150.143588 
L 502.084606 151.320698 
L 502.515345 152.74674 
L 502.946085 156.492206 
L 503.376824 151.608098 
L 503.807564 151.719874 
L 505.099782 153.557944 
L 505.530522 151.920413 
L 505.961261 156.094213 
L 506.392001 150.416768 
L 506.82274 151.639873 
L 508.114959 153.996185 
L 508.545698 154.44205 
L 508.976438 157.013897 
L 509.407177 155.087555 
L 509.837917 141.071207 
L 511.130135 148.441164 
L 511.560875 155.103504 
L 511.991614 157.314092 
L 512.422354 155.752435 
L 512.853093 157.42767 
L 514.145311 160.489812 
L 514.576051 162.733947 
L 515.00679 170.782821 
L 515.43753 166.59439 
L 515.868269 156.29957 
L 517.160488 156.73528 
L 517.591227 159.607997 
L 518.021967 164.038995 
L 518.452706 154.548829 
L 518.883446 154.11507 
L 520.175664 149.723545 
L 520.606404 149.74663 
L 521.037143 144.501384 
L 521.467883 144.733113 
L 521.898622 143.356047 
L 521.898622 143.356047 
" clip-path="url(#pd087c348ee)" style="fill: none; stroke: #4c72b0; stroke-width: 2.25; stroke-linecap: round"/>
   </g>
   <g id="line2d_2">
    <path d="M 89.00544 91.70727 
L 89.43618 91.756042 
L 89.866919 87.610063 
L 90.297659 94.16786 
L 90.728398 97.151819 
L 92.020617 96.532134 
L 92.451356 100.595789 
L 92.882096 136.374039 
L 93.312835 140.836363 
L 95.035793 146.646254 
L 95.466533 149.072096 
L 95.897272 149.008174 
L 96.328012 138.867432 
L 96.758751 139.717119 
L 98.05097 140.393119 
L 98.912448 138.64143 
L 99.343188 135.903048 
L 99.773927 135.880882 
L 101.496885 136.466631 
L 101.927625 137.317025 
L 102.358364 137.895672 
L 102.789104 142.0553 
L 104.081322 141.45694 
L 104.512062 147.233789 
L 104.942801 146.671214 
L 105.373541 147.861195 
L 105.80428 157.196356 
L 107.096499 151.617287 
L 107.527238 150.452143 
L 107.957978 152.88015 
L 108.388717 146.554175 
L 108.819457 146.985101 
L 110.111675 148.651856 
L 110.542415 145.012008 
L 110.973154 147.232964 
L 111.403894 139.072085 
L 111.834633 133.821094 
L 113.126851 131.393991 
L 113.557591 131.151689 
L 113.98833 126.572978 
L 114.41907 129.495825 
L 114.849809 127.969989 
L 116.142028 128.000902 
L 116.572767 130.938597 
L 117.003507 127.085558 
L 117.434246 126.48326 
L 117.864986 127.33236 
L 119.157204 126.620033 
L 119.587944 134.178226 
L 120.018683 134.289387 
L 120.449423 134.754121 
L 122.172381 134.230533 
L 122.60312 135.117932 
L 123.03386 136.729474 
L 123.464599 136.221528 
L 123.895339 139.969467 
L 125.187557 140.12258 
L 125.618297 141.864785 
L 126.049036 145.635471 
L 126.479775 143.783383 
L 126.910515 143.927039 
L 128.202733 145.201118 
L 128.633473 147.474766 
L 129.064212 146.864465 
L 129.494952 148.13718 
L 129.925691 117.500996 
L 131.21791 108.47658 
L 131.648649 106.759996 
L 132.079389 99.422478 
L 132.510128 99.133582 
L 132.940868 92.484737 
L 134.233086 93.407098 
L 134.663826 95.695324 
L 135.094565 96.562453 
L 135.525305 96.661227 
L 135.956044 96.430757 
L 137.248263 98.555299 
L 137.679002 98.401392 
L 138.109742 100.807654 
L 138.540481 98.999341 
L 138.971221 98.186703 
L 140.263439 92.5734 
L 140.694178 91.921197 
L 141.124918 90.766293 
L 141.555657 97.422573 
L 141.986397 98.184604 
L 144.140094 91.685857 
L 144.570834 89.079428 
L 145.001573 83.42912 
L 146.293792 88.108582 
L 146.724531 85.377855 
L 147.155271 84.012476 
L 147.58601 86.486453 
L 148.01675 88.072373 
L 149.308968 97.545179 
L 149.739708 103.03176 
L 150.170447 106.301498 
L 150.601187 107.932705 
L 151.031926 125.036043 
L 152.754884 119.235527 
L 153.185624 120.886622 
L 153.616363 119.668985 
L 154.047102 116.646231 
L 155.339321 121.336966 
L 155.77006 125.264645 
L 156.2008 127.665594 
L 156.631539 127.814101 
L 157.062279 123.405316 
L 158.354497 122.678256 
L 159.215976 122.414261 
L 159.646716 125.992469 
L 160.077455 124.495142 
L 161.369674 124.985511 
L 161.800413 123.437273 
L 162.231153 127.141937 
L 162.661892 128.22626 
L 163.092632 125.59433 
L 164.38485 123.459378 
L 164.81559 122.178354 
L 165.246329 121.615395 
L 165.677069 138.809425 
L 166.107808 133.27069 
L 167.400027 135.1853 
L 167.830766 137.316317 
L 168.261505 152.333737 
L 168.692245 161.619296 
L 169.122984 173.850792 
L 170.415203 177.724051 
L 170.845942 180.37467 
L 171.276682 197.370284 
L 171.707421 195.315981 
L 172.138161 190.746219 
L 173.430379 187.474366 
L 173.861119 185.035366 
L 174.291858 185.760473 
L 174.722598 185.787088 
L 175.153337 186.313286 
L 176.445556 184.492689 
L 176.876295 182.101715 
L 177.307035 186.520862 
L 177.737774 183.930129 
L 178.168514 187.255695 
L 179.460732 190.918038 
L 180.322211 178.229986 
L 180.752951 178.631456 
L 181.18369 183.943533 
L 182.475908 187.910201 
L 182.906648 197.7891 
L 183.337387 198.730162 
L 183.768127 198.2474 
L 185.921824 192.57793 
L 186.352564 195.296578 
L 186.783303 194.999597 
L 187.214043 196.262124 
L 188.506261 194.227612 
L 188.937001 203.375981 
L 189.36774 200.119546 
L 189.79848 198.118707 
L 190.229219 197.724025 
L 191.521438 198.224255 
L 191.952177 201.669165 
L 192.382917 202.879886 
L 192.813656 194.510937 
L 193.244396 194.147415 
L 194.536614 198.901636 
L 194.967354 205.710187 
L 195.398093 205.594792 
L 195.828832 205.744054 
L 196.259572 202.651669 
L 197.55179 203.385766 
L 197.98253 196.460664 
L 198.413269 198.05579 
L 198.844009 194.491899 
L 199.274748 197.384192 
L 200.566967 196.828192 
L 200.997706 200.985701 
L 201.428446 202.455911 
L 201.859185 201.168535 
L 202.289925 193.720615 
L 203.582143 187.890195 
L 204.012883 188.17354 
L 204.443622 180.326377 
L 204.874362 168.777991 
L 205.305101 152.948508 
L 207.028059 125.471835 
L 207.458799 142.842102 
L 207.889538 129.491366 
L 208.320278 128.910895 
L 209.612496 121.14335 
L 210.043235 123.304311 
L 210.473975 116.912937 
L 210.904714 129.693047 
L 211.335454 130.926072 
L 213.058412 130.721057 
L 213.489151 134.73666 
L 213.919891 129.48794 
L 214.35063 125.886343 
L 215.642849 125.821182 
L 216.073588 139.066154 
L 216.504328 140.268884 
L 216.935067 143.624842 
L 217.365807 143.37071 
L 218.658025 143.401958 
L 219.088765 142.60786 
L 219.519504 142.617378 
L 220.380983 142.034441 
L 221.673202 142.705832 
L 222.103941 144.796805 
L 222.534681 146.329413 
L 222.96542 142.469045 
L 223.396159 142.397412 
L 224.688378 141.756395 
L 225.119117 142.872919 
L 225.549857 138.981933 
L 226.411336 145.141314 
L 227.703554 143.112443 
L 228.134294 141.742318 
L 228.995773 149.997625 
L 229.426512 152.051713 
L 230.718731 151.599522 
L 231.14947 150.169837 
L 231.58021 142.559359 
L 232.010949 141.741478 
L 232.441689 141.982089 
L 234.595386 143.672237 
L 235.456865 151.488436 
L 237.179823 150.821317 
L 237.610562 144.90963 
L 238.041302 146.132678 
L 238.472041 144.890158 
L 239.76426 151.33534 
L 240.194999 152.045865 
L 240.625739 150.023344 
L 241.056478 155.509084 
L 241.487218 154.462117 
L 243.210176 156.483897 
L 243.640915 165.729397 
L 244.071655 172.103399 
L 244.502394 162.298308 
L 245.794613 165.805973 
L 246.225352 146.116448 
L 247.517571 171.791213 
L 248.809789 171.133958 
L 249.240529 181.276879 
L 249.671268 177.521695 
L 250.102008 178.925907 
L 250.532747 176.5076 
L 251.824965 179.516568 
L 252.255705 180.045248 
L 252.686444 183.846759 
L 253.117184 194.877247 
L 253.547923 193.350201 
L 255.270881 169.646719 
L 255.701621 166.657758 
L 256.13236 164.497537 
L 256.5631 163.508355 
L 258.286058 159.854807 
L 258.716797 160.607715 
L 259.147537 150.059217 
L 259.578276 148.910508 
L 260.870495 145.821173 
L 261.301234 146.052128 
L 261.731974 144.568306 
L 262.162713 145.832315 
L 262.593453 150.28718 
L 263.885671 149.768672 
L 264.31641 156.994561 
L 264.74715 152.777717 
L 265.177889 158.599002 
L 265.608629 158.658238 
L 266.900847 167.434242 
L 267.331587 157.151214 
L 267.762326 153.422305 
L 268.193066 151.873282 
L 268.623805 148.478708 
L 269.916024 148.814032 
L 270.346763 162.170966 
L 270.777503 165.05493 
L 271.208242 167.162758 
L 271.638982 166.748586 
L 272.9312 166.29603 
L 273.36194 165.678872 
L 273.792679 161.210894 
L 274.223419 158.764174 
L 275.946377 160.295854 
L 276.377116 156.476162 
L 276.807856 156.599244 
L 277.238595 138.968766 
L 277.669335 140.398206 
L 278.961553 139.415781 
L 279.392292 141.773659 
L 279.823032 142.097366 
L 280.253771 149.994543 
L 280.684511 155.352634 
L 281.976729 154.093137 
L 282.407469 169.250752 
L 282.838208 167.100833 
L 283.268948 169.399608 
L 283.699687 182.812992 
L 284.991906 180.126786 
L 285.422645 185.84369 
L 286.284124 193.138833 
L 286.714864 186.898284 
L 288.007082 184.693435 
L 288.437822 186.674077 
L 289.299301 184.506652 
L 289.73004 188.122635 
L 291.022259 181.551699 
L 291.452998 184.175945 
L 291.883737 183.871481 
L 292.314477 185.239833 
L 292.745216 187.06177 
L 294.037435 189.840858 
L 294.898914 192.965727 
L 295.760393 214.26703 
L 297.052611 214.300185 
L 297.483351 215.149578 
L 297.91409 216.326512 
L 298.34483 211.086576 
L 298.775569 208.090864 
L 300.498527 206.373747 
L 300.929267 205.451646 
L 301.360006 207.352579 
L 301.790746 202.066021 
L 303.082964 199.157008 
L 303.513704 199.787781 
L 303.944443 199.550691 
L 304.375183 203.664964 
L 304.805922 203.6442 
L 306.09814 204.595077 
L 306.959619 209.892424 
L 307.390359 210.445158 
L 307.821098 209.846646 
L 309.113317 207.594762 
L 309.544056 207.327964 
L 310.405535 209.124379 
L 310.836275 208.191872 
L 312.989972 214.656361 
L 313.420712 216.192775 
L 313.851451 210.610773 
L 315.14367 216.40202 
L 315.574409 216.907491 
L 316.005149 217.886512 
L 316.866628 218.885587 
L 318.158846 219.358944 
L 318.589586 215.475476 
L 319.020325 207.853574 
L 319.451064 214.740056 
L 319.881804 214.302839 
L 321.174022 216.999998 
L 321.604762 214.79026 
L 322.035501 220.974824 
L 322.466241 221.908263 
L 322.89698 206.521637 
L 324.189199 205.101691 
L 324.619938 202.48211 
L 325.050678 188.917218 
L 325.481417 191.391233 
L 325.912157 181.500777 
L 327.204375 180.766816 
L 327.635115 185.05998 
L 328.065854 184.691337 
L 328.496594 181.275865 
L 328.927333 180.487902 
L 330.219552 175.96388 
L 330.650291 183.199953 
L 331.081031 183.778361 
L 331.51177 177.424845 
L 331.94251 176.17215 
L 333.234728 175.086278 
L 333.665467 169.802584 
L 334.526946 163.261517 
L 334.957686 163.31318 
L 336.249904 161.806751 
L 336.680644 164.979225 
L 337.542123 167.246644 
L 337.972862 165.136399 
L 339.265081 160.758163 
L 339.69582 164.242136 
L 340.557299 165.285402 
L 340.988039 161.448632 
L 342.710997 169.70754 
L 343.141736 170.166641 
L 343.572476 169.070715 
L 344.003215 167.656939 
L 345.295434 161.368879 
L 345.726173 162.297772 
L 346.156913 172.823571 
L 346.587652 170.974007 
L 347.018391 170.996912 
L 348.31061 169.44546 
L 348.741349 169.81743 
L 349.172089 168.61744 
L 349.602828 166.113483 
L 350.033568 164.974143 
L 351.325786 164.735441 
L 351.756526 167.526725 
L 352.187265 167.267048 
L 352.618005 167.82857 
L 353.048744 166.140198 
L 354.340963 165.368807 
L 354.771702 169.664466 
L 355.202442 169.681741 
L 355.633181 171.931332 
L 357.356139 161.107391 
L 357.786879 159.600252 
L 358.217618 158.819686 
L 358.648358 147.997282 
L 359.079097 147.032432 
L 360.371316 150.025399 
L 360.802055 150.20361 
L 361.232794 149.091655 
L 361.663534 160.390343 
L 362.094273 159.780988 
L 363.386492 165.47147 
L 363.817231 165.185157 
L 364.247971 158.361617 
L 364.67871 155.016724 
L 365.10945 161.245395 
L 366.401668 161.489693 
L 366.832408 166.298676 
L 367.263147 157.0923 
L 367.693887 154.812918 
L 368.124626 165.04266 
L 369.416845 164.710258 
L 369.847584 164.026216 
L 370.278324 157.04122 
L 370.709063 159.834012 
L 371.139803 158.065823 
L 372.432021 158.092031 
L 372.862761 159.613538 
L 373.2935 160.387351 
L 373.72424 164.268416 
L 374.154979 165.692182 
L 375.447197 169.195333 
L 375.877937 172.47557 
L 376.308676 172.457503 
L 376.739416 169.738553 
L 377.170155 168.93558 
L 378.462374 170.796505 
L 378.893113 158.100199 
L 379.323853 157.170437 
L 380.185332 160.216464 
L 381.47755 156.674902 
L 381.90829 162.17045 
L 382.339029 162.967318 
L 382.769769 151.660855 
L 383.200508 155.983096 
L 385.354206 148.160559 
L 385.784945 148.618835 
L 386.215685 150.450586 
L 387.507903 150.365182 
L 387.938643 152.110361 
L 388.369382 138.397904 
L 388.800121 138.626098 
L 389.230861 139.048461 
L 390.523079 137.428745 
L 390.953819 135.928172 
L 391.815298 128.832974 
L 392.246037 129.773088 
L 393.538256 128.412509 
L 393.968995 131.055637 
L 394.830474 137.600329 
L 395.261214 143.489758 
L 396.553432 151.019731 
L 396.984172 154.401373 
L 397.414911 156.660012 
L 398.27639 143.540115 
L 399.568609 144.293543 
L 399.999348 146.541542 
L 400.430088 134.524912 
L 400.860827 139.27838 
L 401.291567 146.540318 
L 403.014524 147.318849 
L 403.445264 149.051594 
L 403.876003 150.150037 
L 404.306743 149.769548 
L 405.598961 178.93682 
L 406.46044 188.192561 
L 406.89118 190.69974 
L 407.321919 186.038979 
L 408.614138 189.383475 
L 409.044877 192.650515 
L 409.475617 201.083947 
L 410.337096 196.918415 
L 411.629314 200.463354 
L 412.490793 198.185827 
L 412.921533 190.181455 
L 413.352272 186.684807 
L 415.07523 186.615811 
L 415.50597 183.972499 
L 415.936709 185.156514 
L 416.367448 187.729225 
L 417.659667 193.542857 
L 418.090406 197.070511 
L 418.521146 198.957816 
L 418.951885 215.515635 
L 419.382625 206.760525 
L 420.674843 215.631821 
L 421.105583 207.961043 
L 421.536322 203.03939 
L 422.397801 200.172089 
L 423.69002 220.331588 
L 424.120759 219.250595 
L 424.982238 230.08281 
L 425.412978 216.7814 
L 426.705196 214.373143 
L 427.135936 212.431052 
L 427.566675 228.158722 
L 427.997415 227.671778 
L 428.428154 227.822481 
L 429.720372 229.50979 
L 430.151112 230.804784 
L 430.581851 234.051795 
L 431.012591 235.718244 
L 431.44333 233.813771 
L 432.735549 230.420373 
L 433.166288 231.660844 
L 433.597028 230.465369 
L 434.027767 226.253932 
L 434.458507 152.497015 
L 435.750725 152.818942 
L 436.181465 158.253694 
L 436.612204 134.724314 
L 437.042944 133.184713 
L 437.473683 134.643086 
L 438.765902 132.722274 
L 439.196641 130.124784 
L 439.627381 130.190665 
L 440.05812 129.727972 
L 441.781078 125.546242 
L 442.211818 119.345964 
L 442.642557 116.989888 
L 443.504036 118.214533 
L 444.796254 117.857603 
L 445.226994 117.562809 
L 445.657733 116.83796 
L 446.088473 117.203326 
L 446.519212 115.929716 
L 447.811431 115.951123 
L 448.24217 116.801468 
L 448.67291 114.695669 
L 449.103649 115.414118 
L 449.534389 115.205468 
L 450.826607 118.787124 
L 451.257347 120.448345 
L 451.688086 121.390385 
L 452.118826 123.061565 
L 452.549565 122.660281 
L 453.841784 122.623047 
L 454.272523 120.128268 
L 454.703263 118.446089 
L 455.134002 118.20491 
L 455.564742 110.392651 
L 457.287699 110.191056 
L 457.718439 106.014632 
L 458.149178 107.471305 
L 458.579918 108.397955 
L 459.872136 108.258002 
L 460.302876 109.468855 
L 460.733615 100.108388 
L 461.164355 100.516577 
L 461.595094 97.181574 
L 462.887313 93.61674 
L 463.318052 97.026379 
L 463.748792 97.105154 
L 464.179531 97.69081 
L 464.610271 97.449146 
L 465.902489 97.775984 
L 466.763968 96.45154 
L 467.625447 96.833891 
L 468.917666 93.341912 
L 469.348405 93.152649 
L 469.779145 93.770386 
L 470.209884 93.048039 
L 470.640624 92.927491 
L 471.932842 93.357286 
L 472.363581 83.735827 
L 472.794321 119.560529 
L 473.22506 119.265374 
L 474.948018 116.036976 
L 475.378758 145.902335 
L 475.809497 146.914987 
L 476.240237 147.213661 
L 476.670976 147.77771 
L 477.963195 149.226758 
L 478.393934 142.205718 
L 478.824674 142.182411 
L 479.255413 154.48704 
L 479.686153 179.041658 
L 480.978371 165.832327 
L 481.409111 159.359901 
L 481.83985 166.779707 
L 482.27059 165.645216 
L 482.701329 167.035119 
L 483.993548 166.160463 
L 484.424287 167.115469 
L 484.855027 172.88775 
L 485.285766 171.423381 
L 485.716505 175.436261 
L 487.008724 175.515061 
L 487.439463 175.294592 
L 487.870203 173.239249 
L 488.731682 160.54865 
L 490.0239 160.303316 
L 490.45464 163.199333 
L 490.885379 164.828891 
L 491.316119 165.015949 
L 491.746858 165.930691 
L 493.039077 166.892952 
L 493.469816 169.89496 
L 493.900556 176.882466 
L 494.331295 187.372201 
L 494.762035 191.681423 
L 496.054253 190.511757 
L 496.484993 190.535408 
L 496.915732 191.692261 
L 497.346472 188.637624 
L 497.777211 193.276786 
L 499.500169 196.86162 
L 499.930908 199.860741 
L 500.361648 197.418257 
L 500.792387 192.206912 
L 502.084606 192.534129 
L 502.515345 194.395725 
L 502.946085 197.267839 
L 503.376824 188.76926 
L 503.807564 191.935328 
L 505.099782 195.257197 
L 505.530522 192.319951 
L 505.961261 199.983596 
L 506.392001 195.529519 
L 506.82274 196.796446 
L 508.114959 198.524557 
L 508.976438 211.689954 
L 509.407177 211.959603 
L 509.837917 200.718874 
L 511.130135 207.865857 
L 511.560875 214.584869 
L 511.991614 215.114738 
L 512.422354 215.14852 
L 512.853093 216.050778 
L 514.145311 217.681047 
L 514.576051 221.185923 
L 515.00679 230.7741 
L 515.43753 228.416407 
L 515.868269 214.384259 
L 517.160488 216.508204 
L 517.591227 217.458103 
L 518.021967 221.095548 
L 518.452706 194.210879 
L 518.883446 194.273139 
L 520.175664 193.857561 
L 520.606404 194.324582 
L 521.037143 202.113424 
L 521.467883 197.800264 
L 521.898622 200.11415 
L 521.898622 200.11415 
" clip-path="url(#pd087c348ee)" style="fill: none; stroke: #dd8452; stroke-width: 2.25; stroke-linecap: round"/>
   </g>
   <g id="line2d_3">
    <path d="M 89.00544 57.171613 
L 89.43618 57.508317 
L 89.866919 54.524236 
L 90.297659 57.914175 
L 90.728398 59.530624 
L 92.020617 55.339091 
L 92.451356 57.575683 
L 92.882096 64.058082 
L 93.312835 76.648971 
L 93.743575 78.799077 
L 95.035793 79.289232 
L 95.466533 82.634983 
L 95.897272 101.6603 
L 96.328012 98.557955 
L 96.758751 100.822503 
L 98.05097 99.34168 
L 98.481709 99.913717 
L 98.912448 99.572322 
L 99.343188 99.505099 
L 99.773927 101.728482 
L 101.496885 100.378768 
L 101.927625 101.038733 
L 102.358364 100.941327 
L 102.789104 108.034922 
L 104.081322 107.175879 
L 104.512062 111.613449 
L 104.942801 110.504259 
L 105.373541 111.655843 
L 105.80428 115.223275 
L 107.096499 111.558669 
L 107.527238 105.006099 
L 107.957978 108.747973 
L 108.388717 103.015059 
L 108.819457 99.058078 
L 110.111675 109.365963 
L 110.542415 105.457202 
L 110.973154 109.533846 
L 111.403894 99.561859 
L 111.834633 96.997992 
L 113.126851 94.639567 
L 113.557591 93.509575 
L 113.98833 88.637205 
L 114.41907 91.086209 
L 114.849809 89.649663 
L 116.142028 90.561631 
L 116.572767 91.544125 
L 117.003507 87.942906 
L 117.434246 89.28002 
L 117.864986 89.095545 
L 119.157204 86.261567 
L 119.587944 89.403877 
L 120.018683 88.868162 
L 120.449423 87.333729 
L 122.172381 85.454117 
L 122.60312 85.832926 
L 123.03386 86.737712 
L 123.464599 88.31028 
L 123.895339 90.732172 
L 125.618297 92.02255 
L 126.049036 93.927473 
L 126.910515 93.871812 
L 128.202733 94.435575 
L 128.633473 93.294139 
L 129.494952 89.35766 
L 129.925691 82.168294 
L 131.648649 69.552308 
L 132.079389 67.243812 
L 132.510128 67.42882 
L 132.940868 63.208725 
L 134.233086 62.133851 
L 134.663826 62.482431 
L 135.094565 64.702411 
L 135.525305 64.534612 
L 135.956044 64.573887 
L 137.248263 62.417937 
L 138.109742 58.430137 
L 138.540481 57.528012 
L 138.971221 57.405547 
L 140.263439 52.235774 
L 140.694178 55.386714 
L 141.124918 53.634428 
L 141.555657 57.804435 
L 141.986397 58.735013 
L 143.709355 57.903307 
L 144.140094 59.16933 
L 144.570834 62.564003 
L 145.001573 58.926725 
L 146.293792 59.933267 
L 146.724531 62.794211 
L 147.155271 61.619944 
L 147.58601 65.103477 
L 148.01675 65.647989 
L 149.308968 72.873479 
L 149.739708 77.536356 
L 150.170447 79.906984 
L 150.601187 84.331352 
L 151.031926 98.038136 
L 152.754884 92.421013 
L 153.616363 94.936926 
L 155.339321 105.143852 
L 155.77006 99.283407 
L 156.2008 102.18219 
L 156.631539 101.977732 
L 157.062279 102.594207 
L 158.354497 102.114734 
L 159.215976 102.045273 
L 159.646716 105.001716 
L 160.077455 105.469024 
L 161.369674 104.632881 
L 161.800413 100.972041 
L 162.231153 98.367705 
L 162.661892 98.828274 
L 163.092632 101.281812 
L 164.38485 101.68374 
L 164.81559 101.463397 
L 165.246329 100.826796 
L 165.677069 117.222296 
L 166.107808 121.049939 
L 167.400027 122.22551 
L 167.830766 131.53467 
L 168.261505 136.451465 
L 168.692245 138.551325 
L 169.122984 169.89194 
L 170.415203 175.064568 
L 170.845942 180.970244 
L 171.276682 197.04543 
L 171.707421 197.499018 
L 172.138161 197.139054 
L 173.861119 189.584406 
L 174.291858 189.052443 
L 174.722598 189.748841 
L 175.153337 193.522544 
L 176.445556 198.795582 
L 176.876295 195.862253 
L 177.307035 196.960654 
L 177.737774 192.87494 
L 178.168514 191.664649 
L 179.460732 199.888939 
L 179.891472 192.919196 
L 180.322211 191.051393 
L 180.752951 193.744565 
L 181.18369 192.805357 
L 182.475908 194.163908 
L 182.906648 205.634404 
L 183.337387 207.148245 
L 183.768127 207.797161 
L 184.198866 203.782464 
L 185.921824 198.896673 
L 186.783303 199.379959 
L 187.214043 200.446083 
L 188.506261 201.527806 
L 188.937001 209.070509 
L 189.79848 205.515967 
L 190.229219 201.904533 
L 191.521438 200.086746 
L 191.952177 199.002912 
L 192.382917 200.554655 
L 192.813656 197.767435 
L 193.244396 197.623526 
L 194.536614 200.832429 
L 194.967354 198.246874 
L 195.398093 198.79829 
L 195.828832 197.431014 
L 196.259572 194.089365 
L 197.55179 193.525938 
L 197.98253 184.827336 
L 198.413269 185.259931 
L 199.274748 179.690358 
L 200.566967 178.596242 
L 200.997706 182.586326 
L 201.428446 184.75191 
L 201.859185 181.864461 
L 202.289925 172.832281 
L 203.582143 163.216345 
L 204.012883 164.935746 
L 204.443622 164.99858 
L 204.874362 161.086787 
L 205.305101 150.705379 
L 206.59732 102.722133 
L 207.028059 98.590929 
L 207.458799 120.836497 
L 207.889538 118.456698 
L 208.320278 118.235269 
L 209.612496 108.887149 
L 210.043235 110.621789 
L 210.473975 110.330819 
L 210.904714 118.686559 
L 211.335454 117.306555 
L 212.627672 117.180879 
L 213.058412 115.71974 
L 213.489151 121.653102 
L 213.919891 122.466765 
L 215.642849 122.444418 
L 216.073588 117.793014 
L 216.504328 118.205064 
L 216.935067 118.977109 
L 217.365807 115.242264 
L 218.658025 116.9423 
L 219.088765 119.067885 
L 219.519504 118.560226 
L 220.380983 117.870841 
L 221.673202 118.138289 
L 222.103941 120.947324 
L 222.534681 121.828455 
L 222.96542 121.447148 
L 223.396159 123.503103 
L 224.688378 126.087339 
L 225.119117 123.891362 
L 225.549857 117.734753 
L 225.980596 119.172591 
L 226.411336 122.346363 
L 227.703554 123.165882 
L 228.134294 122.246458 
L 228.565033 118.794221 
L 228.995773 117.738963 
L 229.426512 123.855724 
L 230.718731 123.487468 
L 231.14947 122.521063 
L 231.58021 119.097043 
L 232.010949 123.245285 
L 232.441689 123.79819 
L 234.164647 124.979701 
L 234.595386 125.132655 
L 235.026126 133.698877 
L 235.456865 133.969458 
L 237.179823 138.00705 
L 237.610562 137.777148 
L 238.041302 138.629651 
L 238.472041 138.011749 
L 240.194999 150.160336 
L 240.625739 146.183735 
L 241.056478 151.674814 
L 241.487218 151.081189 
L 243.210176 151.824341 
L 243.640915 156.888948 
L 244.071655 170.567725 
L 244.502394 163.639733 
L 245.794613 165.654443 
L 246.225352 144.147047 
L 246.656092 144.712771 
L 247.086831 151.25718 
L 247.517571 161.75572 
L 248.809789 164.753939 
L 249.240529 167.516748 
L 249.671268 146.968894 
L 250.102008 150.942728 
L 250.532747 141.119912 
L 251.824965 139.294807 
L 252.255705 139.16093 
L 252.686444 138.647007 
L 253.117184 140.039224 
L 253.547923 138.593389 
L 254.840142 139.323762 
L 255.701621 131.886787 
L 256.13236 130.149022 
L 256.5631 126.459662 
L 258.286058 124.603545 
L 258.716797 124.874896 
L 259.147537 127.28999 
L 259.578276 129.05967 
L 260.870495 125.000604 
L 261.301234 125.578884 
L 261.731974 123.972262 
L 262.162713 121.507171 
L 262.593453 124.245307 
L 263.885671 124.235526 
L 264.31641 134.757704 
L 264.74715 131.248216 
L 265.177889 136.037746 
L 265.608629 134.624879 
L 266.900847 137.714822 
L 267.331587 139.073918 
L 267.762326 138.606286 
L 268.193066 137.311222 
L 269.916024 137.690804 
L 270.346763 152.814154 
L 270.777503 144.936457 
L 271.208242 146.749234 
L 271.638982 145.540342 
L 272.9312 146.122185 
L 273.36194 145.744629 
L 273.792679 143.511567 
L 274.223419 138.375854 
L 275.946377 138.24483 
L 276.377116 132.726809 
L 276.807856 132.347446 
L 277.238595 114.608094 
L 277.669335 111.705982 
L 278.961553 112.016886 
L 279.392292 127.468147 
L 279.823032 129.369829 
L 280.253771 139.672999 
L 280.684511 144.660466 
L 281.976729 142.778646 
L 282.407469 151.598834 
L 282.838208 147.659183 
L 283.268948 149.440857 
L 283.699687 159.526399 
L 284.991906 158.739181 
L 285.422645 160.078075 
L 285.853385 158.945531 
L 286.284124 156.705405 
L 286.714864 183.343331 
L 288.007082 181.297068 
L 288.437822 193.20556 
L 288.868561 194.199699 
L 289.299301 193.383622 
L 289.73004 192.256046 
L 291.022259 188.123276 
L 291.452998 190.141815 
L 291.883737 190.140214 
L 292.314477 191.338706 
L 292.745216 194.002126 
L 294.037435 196.928535 
L 294.468174 196.192307 
L 294.898914 199.698947 
L 295.329653 201.807218 
L 295.760393 205.589461 
L 297.052611 205.46177 
L 297.483351 206.867132 
L 297.91409 207.186598 
L 298.34483 201.002614 
L 298.775569 199.851262 
L 300.498527 195.986576 
L 300.929267 193.573344 
L 301.360006 192.769256 
L 301.790746 189.442617 
L 303.082964 187.442164 
L 303.944443 190.313597 
L 304.375183 193.527671 
L 304.805922 193.86367 
L 306.09814 194.670513 
L 306.52888 195.781727 
L 307.390359 198.676436 
L 307.821098 201.0426 
L 309.113317 195.16515 
L 309.544056 194.753048 
L 310.405535 195.667974 
L 310.836275 194.606422 
L 312.128493 201.469291 
L 312.989972 204.096659 
L 313.420712 206.253414 
L 313.851451 201.834609 
L 315.14367 203.678784 
L 315.574409 209.632258 
L 316.005149 210.598257 
L 316.866628 211.828514 
L 318.158846 209.573453 
L 319.020325 198.055144 
L 319.451064 208.682531 
L 319.881804 207.272576 
L 321.174022 215.763885 
L 321.604762 212.709128 
L 322.035501 217.589378 
L 322.466241 220.006279 
L 322.89698 203.262125 
L 324.189199 199.368976 
L 324.619938 201.458888 
L 325.050678 183.54999 
L 325.481417 185.870625 
L 325.912157 165.790203 
L 327.204375 165.409048 
L 327.635115 168.921778 
L 328.065854 176.308136 
L 328.496594 173.258163 
L 328.927333 168.496315 
L 330.219552 143.139696 
L 330.650291 145.080546 
L 331.081031 145.801621 
L 331.51177 137.802573 
L 331.94251 137.85561 
L 333.234728 134.234526 
L 333.665467 131.91193 
L 334.096207 131.249088 
L 334.526946 131.302817 
L 334.957686 131.194494 
L 336.249904 130.503035 
L 336.680644 132.831991 
L 337.111383 133.254903 
L 337.542123 134.648374 
L 337.972862 134.824038 
L 339.265081 131.788713 
L 339.69582 133.910374 
L 340.12656 134.734127 
L 340.557299 135.050689 
L 340.988039 133.537398 
L 342.710997 138.22438 
L 343.572476 136.735235 
L 344.003215 133.510579 
L 345.295434 128.953385 
L 345.726173 129.47919 
L 346.156913 139.123225 
L 346.587652 140.071771 
L 347.018391 140.498852 
L 348.31061 139.552061 
L 348.741349 139.787712 
L 349.172089 137.864925 
L 349.602828 141.842894 
L 350.033568 141.042476 
L 351.325786 140.917213 
L 351.756526 142.503779 
L 352.187265 141.762808 
L 352.618005 141.816954 
L 353.048744 140.796561 
L 354.340963 138.464187 
L 354.771702 139.006167 
L 355.202442 139.071106 
L 355.633181 138.51602 
L 356.063921 134.088719 
L 357.356139 130.053636 
L 357.786879 129.200579 
L 358.217618 128.835733 
L 358.648358 119.935639 
L 359.079097 119.215336 
L 360.371316 120.087218 
L 360.802055 121.101281 
L 361.232794 120.903447 
L 361.663534 120.438223 
L 362.094273 120.58719 
L 363.386492 115.528516 
L 363.817231 115.494435 
L 364.247971 110.504201 
L 364.67871 102.76615 
L 365.10945 129.345595 
L 366.401668 131.390289 
L 366.832408 157.022995 
L 367.263147 157.787093 
L 367.693887 146.444029 
L 368.124626 157.196602 
L 369.416845 159.540176 
L 369.847584 159.203558 
L 370.278324 135.354794 
L 370.709063 139.368321 
L 371.139803 138.727052 
L 372.432021 138.767835 
L 372.862761 139.70293 
L 373.2935 139.911855 
L 373.72424 138.201101 
L 374.154979 143.710854 
L 375.447197 145.153567 
L 375.877937 146.297646 
L 376.308676 146.964963 
L 376.739416 143.899145 
L 377.170155 142.343911 
L 378.462374 140.960954 
L 378.893113 131.819666 
L 379.323853 133.94083 
L 380.185332 135.794006 
L 381.47755 136.350845 
L 381.90829 141.087508 
L 382.339029 141.548568 
L 382.769769 130.793895 
L 383.200508 133.377522 
L 384.923466 126.767157 
L 385.354206 127.093658 
L 385.784945 124.589719 
L 386.215685 117.628712 
L 387.507903 118.773093 
L 387.938643 117.553236 
L 388.369382 115.382739 
L 388.800121 115.179832 
L 389.230861 110.934477 
L 390.523079 110.713769 
L 390.953819 110.251343 
L 391.815298 107.849501 
L 392.246037 107.601046 
L 393.538256 107.549357 
L 394.830474 114.314293 
L 395.261214 116.030492 
L 396.553432 118.176611 
L 396.984172 121.190494 
L 397.414911 122.108998 
L 398.27639 116.334287 
L 399.568609 115.087328 
L 399.999348 116.442372 
L 400.430088 110.042973 
L 400.860827 111.1548 
L 401.291567 113.443906 
L 403.014524 113.885735 
L 403.445264 113.775545 
L 403.876003 114.74049 
L 404.306743 98.672143 
L 405.598961 117.551828 
L 406.029701 120.13915 
L 406.46044 119.630483 
L 406.89118 126.438676 
L 407.321919 123.952752 
L 408.614138 124.95724 
L 409.044877 126.153625 
L 409.475617 151.311613 
L 409.906356 147.040761 
L 410.337096 149.21603 
L 411.629314 153.559205 
L 412.060054 153.238217 
L 412.490793 153.150808 
L 412.921533 152.043109 
L 413.352272 142.410374 
L 415.07523 142.314007 
L 415.936709 138.773601 
L 416.367448 138.367397 
L 417.659667 145.770406 
L 418.090406 152.533346 
L 418.521146 154.250369 
L 418.951885 164.643896 
L 419.382625 161.223503 
L 420.674843 171.895844 
L 421.105583 164.905182 
L 421.536322 162.634344 
L 422.397801 156.181646 
L 423.69002 158.343015 
L 424.120759 157.15906 
L 424.551499 159.823706 
L 424.982238 163.915329 
L 425.412978 153.94646 
L 426.705196 149.3833 
L 427.135936 146.797075 
L 427.566675 158.176388 
L 427.997415 158.104025 
L 428.428154 164.226975 
L 429.720372 158.015097 
L 430.151112 159.483722 
L 431.012591 165.460292 
L 431.44333 164.450977 
L 432.735549 162.923008 
L 433.166288 162.760854 
L 433.597028 162.739931 
L 434.027767 150.374277 
L 434.458507 93.516859 
L 435.750725 98.031544 
L 436.181465 101.572497 
L 436.612204 76.00147 
L 437.042944 74.187832 
L 437.473683 74.883802 
L 438.765902 73.979374 
L 439.196641 72.799136 
L 439.627381 73.475261 
L 440.05812 72.667542 
L 441.781078 69.733818 
L 442.211818 66.519227 
L 442.642557 61.195356 
L 443.073297 60.7562 
L 443.504036 61.522349 
L 444.796254 62.037252 
L 445.226994 60.379101 
L 445.657733 59.798139 
L 446.088473 60.196698 
L 446.519212 59.615608 
L 447.811431 59.389523 
L 448.24217 59.857001 
L 448.67291 57.332998 
L 449.103649 57.119294 
L 449.534389 57.373599 
L 450.826607 59.089861 
L 451.257347 60.004469 
L 451.688086 61.281382 
L 452.118826 62.161477 
L 452.549565 62.030394 
L 453.841784 62.553097 
L 454.272523 60.228322 
L 454.703263 56.925189 
L 455.134002 56.713745 
L 455.564742 52.829203 
L 457.287699 52.008737 
L 457.718439 47.497982 
L 458.149178 47.46261 
L 459.872136 47.90891 
L 460.302876 48.093222 
L 461.164355 48.116775 
L 461.595094 46.533272 
L 462.887313 46.692135 
L 463.318052 49.636974 
L 463.748792 49.520387 
L 464.179531 50.433187 
L 464.610271 50.22341 
L 466.333229 50.115261 
L 466.763968 50.850705 
L 467.625447 51.48866 
L 468.917666 49.276096 
L 469.779145 51.673209 
L 470.209884 51.42203 
L 470.640624 51.488857 
L 471.932842 52.152169 
L 472.363581 48.278238 
L 472.794321 70.837065 
L 473.22506 67.617001 
L 474.948018 65.023203 
L 475.378758 95.217421 
L 476.240237 98.771508 
L 476.670976 98.8192 
L 477.963195 100.998865 
L 478.393934 93.871238 
L 478.824674 93.631725 
L 479.255413 106.292605 
L 479.686153 123.747492 
L 480.978371 122.673502 
L 481.83985 120.634424 
L 482.27059 118.650447 
L 482.701329 119.330705 
L 483.993548 119.248118 
L 484.855027 137.482799 
L 485.285766 136.449 
L 485.716505 128.532307 
L 487.008724 120.975637 
L 487.439463 125.1635 
L 487.870203 124.298807 
L 488.731682 117.166123 
L 490.0239 116.812155 
L 490.45464 116.195528 
L 490.885379 118.191493 
L 491.316119 118.214888 
L 491.746858 117.859866 
L 493.039077 121.268934 
L 493.469816 129.305453 
L 493.900556 133.181203 
L 494.331295 139.403421 
L 494.762035 142.202532 
L 496.054253 140.646104 
L 496.915732 141.102689 
L 497.346472 141.717577 
L 497.777211 142.732653 
L 499.500169 143.171175 
L 499.930908 144.704351 
L 500.361648 140.827032 
L 500.792387 133.27621 
L 502.084606 134.669264 
L 502.515345 135.466575 
L 502.946085 138.089319 
L 503.376824 135.135185 
L 503.807564 134.713818 
L 505.099782 137.129054 
L 505.530522 133.403553 
L 505.961261 137.275658 
L 506.392001 130.634853 
L 506.82274 131.370675 
L 508.114959 132.86843 
L 508.545698 136.389613 
L 508.976438 138.762822 
L 509.407177 138.75842 
L 509.837917 125.198752 
L 511.130135 130.676666 
L 511.560875 134.38491 
L 511.991614 135.939195 
L 512.422354 133.183673 
L 512.853093 133.244709 
L 514.145311 137.023719 
L 514.576051 139.519419 
L 515.00679 147.535163 
L 515.43753 144.867916 
L 515.868269 143.810995 
L 517.160488 148.847795 
L 517.591227 151.589955 
L 518.021967 155.723298 
L 518.452706 148.271197 
L 518.883446 147.804888 
L 520.175664 151.514934 
L 520.606404 151.684313 
L 521.037143 142.97099 
L 521.467883 142.602364 
L 521.898622 143.803655 
L 521.898622 143.803655 
" clip-path="url(#pd087c348ee)" style="fill: none; stroke: #55a868; stroke-width: 2.25; stroke-linecap: round"/>
   </g>
   <g id="line2d_4">
    <path d="M 89.00544 50.353606 
L 89.43618 50.432396 
L 89.866919 49.307393 
L 90.297659 51.490777 
L 90.728398 52.753881 
L 92.020617 52.771448 
L 92.451356 48.20322 
L 92.882096 63.62512 
L 93.312835 85.296347 
L 93.743575 85.363591 
L 95.035793 91.411467 
L 95.466533 92.292384 
L 95.897272 116.777864 
L 96.328012 115.483673 
L 96.758751 115.570586 
L 98.05097 114.406686 
L 98.481709 116.098552 
L 98.912448 116.403103 
L 99.343188 119.958137 
L 99.773927 119.847035 
L 101.496885 116.898843 
L 101.927625 118.762649 
L 102.358364 119.851468 
L 102.789104 120.54385 
L 104.081322 119.131453 
L 104.512062 133.876985 
L 104.942801 133.746077 
L 105.373541 138.345232 
L 105.80428 144.81255 
L 107.096499 142.473149 
L 107.527238 133.603118 
L 107.957978 136.105163 
L 108.388717 126.742356 
L 108.819457 123.917442 
L 110.111675 132.217771 
L 110.542415 127.179267 
L 110.973154 125.677636 
L 111.403894 113.508642 
L 111.834633 111.113114 
L 113.126851 108.160061 
L 113.557591 105.149191 
L 113.98833 99.967387 
L 114.41907 103.121874 
L 114.849809 102.062631 
L 116.142028 101.227927 
L 116.572767 102.863686 
L 117.003507 99.837662 
L 117.434246 99.240926 
L 117.864986 99.067692 
L 119.157204 97.954531 
L 119.587944 99.494541 
L 120.018683 100.473031 
L 120.449423 99.735803 
L 122.172381 99.013299 
L 122.60312 99.253769 
L 123.03386 100.238785 
L 123.464599 100.175511 
L 123.895339 102.55294 
L 125.187557 102.392002 
L 125.618297 103.530094 
L 126.049036 105.012574 
L 126.479775 104.196891 
L 126.910515 104.307989 
L 128.202733 104.945138 
L 128.633473 103.777135 
L 129.064212 102.123592 
L 129.494952 96.949437 
L 129.925691 88.384356 
L 131.21791 75.283946 
L 131.648649 73.113479 
L 132.079389 68.941296 
L 132.510128 68.299757 
L 132.940868 59.616538 
L 134.233086 58.474688 
L 134.663826 58.314604 
L 135.094565 59.187478 
L 135.525305 59.435335 
L 135.956044 59.501461 
L 137.248263 54.889833 
L 137.679002 55.330052 
L 138.109742 52.032617 
L 138.540481 50.557285 
L 138.971221 49.810766 
L 140.263439 47.874424 
L 140.694178 59.388227 
L 141.124918 57.768448 
L 141.555657 60.601634 
L 141.986397 58.884312 
L 144.140094 56.051941 
L 144.570834 56.957982 
L 145.001573 54.756466 
L 146.293792 55.121552 
L 146.724531 60.358852 
L 147.155271 58.312207 
L 147.58601 59.258421 
L 148.01675 58.805839 
L 149.308968 67.740411 
L 149.739708 71.764501 
L 150.601187 75.797511 
L 151.031926 87.474712 
L 152.754884 80.696417 
L 153.616363 83.298744 
L 154.047102 81.740246 
L 155.339321 86.365308 
L 155.77006 86.243074 
L 156.2008 85.81146 
L 156.631539 85.19151 
L 157.062279 87.552066 
L 158.354497 86.771502 
L 159.215976 86.615048 
L 159.646716 87.177363 
L 160.077455 88.569198 
L 161.369674 88.289997 
L 161.800413 86.17044 
L 162.231153 87.863554 
L 162.661892 88.613621 
L 163.092632 88.570903 
L 164.38485 87.921932 
L 164.81559 89.726622 
L 165.246329 89.383673 
L 165.677069 95.03174 
L 166.107808 97.89814 
L 167.400027 98.109655 
L 167.830766 103.263685 
L 168.261505 106.054674 
L 168.692245 105.957628 
L 169.122984 115.282211 
L 170.415203 117.273742 
L 170.845942 122.816252 
L 171.276682 161.724957 
L 171.707421 161.2896 
L 172.138161 162.000283 
L 173.861119 154.224361 
L 174.291858 149.78375 
L 174.722598 149.613633 
L 175.153337 150.899979 
L 176.445556 161.934914 
L 176.876295 156.72416 
L 177.307035 156.654482 
L 177.737774 154.067444 
L 178.168514 133.457404 
L 179.460732 140.003108 
L 179.891472 131.173537 
L 180.322211 131.954352 
L 181.18369 146.053001 
L 182.475908 151.336407 
L 182.906648 161.516539 
L 183.337387 163.257026 
L 183.768127 162.61877 
L 184.198866 158.305145 
L 185.921824 154.961134 
L 186.352564 159.696836 
L 186.783303 154.119854 
L 187.214043 155.717386 
L 188.506261 155.030381 
L 188.937001 170.439135 
L 189.36774 167.49383 
L 189.79848 166.811663 
L 190.229219 164.772724 
L 191.521438 162.251364 
L 191.952177 169.54802 
L 192.382917 166.752076 
L 192.813656 160.079251 
L 193.244396 160.450887 
L 194.536614 161.328124 
L 194.967354 153.835174 
L 195.398093 154.609697 
L 195.828832 154.129033 
L 196.259572 154.059788 
L 197.55179 153.035629 
L 197.98253 140.972097 
L 198.413269 140.2328 
L 198.844009 139.835631 
L 199.274748 135.915934 
L 200.566967 133.119582 
L 200.997706 134.876089 
L 201.428446 134.742659 
L 201.859185 132.319187 
L 202.289925 123.259803 
L 203.582143 115.093437 
L 204.012883 115.963886 
L 205.305101 100.575232 
L 206.59732 94.601575 
L 207.028059 92.07165 
L 207.458799 107.217122 
L 207.889538 96.395282 
L 208.320278 97.08076 
L 209.612496 91.58433 
L 210.043235 94.776278 
L 210.473975 92.768646 
L 210.904714 82.721595 
L 211.335454 88.774273 
L 212.627672 88.68465 
L 213.058412 87.387512 
L 213.489151 91.724954 
L 213.919891 93.778188 
L 214.35063 92.137585 
L 215.642849 92.057982 
L 216.073588 91.561968 
L 216.504328 93.572863 
L 216.935067 93.325357 
L 217.365807 87.37297 
L 218.658025 86.945448 
L 219.519504 87.615698 
L 220.380983 87.099647 
L 221.673202 86.948961 
L 222.103941 87.949046 
L 222.534681 88.662205 
L 222.96542 84.925602 
L 223.396159 84.034281 
L 224.688378 84.212237 
L 225.119117 83.227884 
L 225.549857 77.958713 
L 225.980596 79.12743 
L 226.411336 80.870294 
L 228.134294 77.771342 
L 228.565033 75.292018 
L 228.995773 76.03112 
L 229.426512 79.884872 
L 231.14947 78.54875 
L 231.58021 79.311626 
L 232.010949 81.51931 
L 232.441689 81.718904 
L 234.164647 82.376321 
L 234.595386 82.167743 
L 235.026126 90.317531 
L 235.456865 91.141547 
L 237.610562 96.596345 
L 238.041302 96.529628 
L 238.472041 96.143965 
L 239.76426 107.34557 
L 240.194999 108.215301 
L 240.625739 109.588005 
L 241.056478 113.529731 
L 241.487218 112.642043 
L 243.210176 114.843411 
L 243.640915 119.220435 
L 244.071655 130.255953 
L 244.502394 125.055327 
L 245.794613 126.85339 
L 246.225352 107.171551 
L 246.656092 106.147315 
L 247.086831 111.396645 
L 247.517571 119.356991 
L 248.809789 121.694259 
L 249.240529 128.57843 
L 249.671268 142.484436 
L 250.102008 145.874381 
L 250.532747 141.667199 
L 251.824965 136.497166 
L 252.255705 136.495662 
L 252.686444 129.867827 
L 253.117184 139.650578 
L 253.547923 138.678935 
L 254.840142 142.926146 
L 255.270881 149.261731 
L 255.701621 158.540459 
L 258.286058 142.47102 
L 258.716797 142.648998 
L 259.147537 121.485201 
L 259.578276 121.979048 
L 260.870495 121.646699 
L 261.301234 121.744609 
L 261.731974 123.026999 
L 262.162713 122.41092 
L 262.593453 123.501201 
L 263.885671 124.413474 
L 264.31641 133.941851 
L 264.74715 131.962252 
L 265.177889 134.634603 
L 265.608629 133.513225 
L 266.900847 135.125547 
L 267.331587 134.102017 
L 267.762326 132.02232 
L 268.193066 133.00466 
L 268.623805 135.545802 
L 269.916024 142.4239 
L 270.346763 150.61328 
L 270.777503 144.460647 
L 271.208242 144.135912 
L 271.638982 143.102251 
L 272.9312 143.448491 
L 273.36194 144.931203 
L 273.792679 143.086151 
L 274.223419 136.210082 
L 275.946377 136.461141 
L 276.377116 138.987939 
L 276.807856 138.909798 
L 277.238595 119.073509 
L 277.669335 116.349777 
L 278.961553 114.541526 
L 279.392292 121.717842 
L 279.823032 121.250795 
L 280.253771 128.963121 
L 280.684511 128.449356 
L 281.976729 126.38471 
L 282.407469 134.942623 
L 282.838208 132.18223 
L 283.268948 132.27541 
L 283.699687 140.64916 
L 284.991906 137.613706 
L 285.422645 139.371384 
L 285.853385 137.718642 
L 286.284124 135.496851 
L 286.714864 143.379285 
L 288.007082 134.938851 
L 288.437822 135.927628 
L 288.868561 137.97284 
L 289.299301 131.714581 
L 289.73004 134.737185 
L 291.022259 128.059856 
L 291.452998 129.043677 
L 291.883737 128.534597 
L 292.314477 125.006397 
L 292.745216 116.720751 
L 294.037435 119.222149 
L 294.468174 119.678284 
L 294.898914 129.468532 
L 295.329653 128.926532 
L 295.760393 150.129202 
L 297.052611 152.690552 
L 297.91409 153.625551 
L 298.34483 147.897492 
L 298.775569 147.822024 
L 300.498527 146.808176 
L 300.929267 147.719194 
L 301.360006 144.560785 
L 301.790746 144.822976 
L 303.082964 142.885325 
L 303.513704 147.043504 
L 303.944443 153.38301 
L 304.375183 157.870901 
L 304.805922 158.418891 
L 306.09814 157.514346 
L 306.52888 159.02527 
L 306.959619 153.68626 
L 307.390359 154.635864 
L 307.821098 159.313824 
L 309.113317 158.073328 
L 309.544056 158.634265 
L 310.405535 160.014805 
L 310.836275 157.759094 
L 312.128493 165.09218 
L 312.559233 169.118577 
L 312.989972 169.74542 
L 313.420712 167.196032 
L 313.851451 165.467258 
L 315.14367 172.533204 
L 315.574409 176.081241 
L 316.005149 176.437903 
L 316.866628 178.374062 
L 318.158846 179.488476 
L 318.589586 174.241674 
L 319.020325 177.890949 
L 319.451064 191.829247 
L 319.881804 189.396738 
L 321.174022 196.283345 
L 321.604762 193.371265 
L 322.035501 186.164763 
L 322.466241 185.704426 
L 322.89698 168.040905 
L 324.189199 160.164988 
L 324.619938 163.029106 
L 325.050678 146.105659 
L 325.481417 147.04883 
L 325.912157 140.135845 
L 327.204375 138.951234 
L 327.635115 149.776142 
L 328.065854 151.41568 
L 328.927333 119.995987 
L 330.650291 109.429564 
L 331.081031 108.841381 
L 331.51177 102.055551 
L 331.94251 102.657772 
L 333.234728 99.404786 
L 333.665467 101.913093 
L 334.526946 97.94065 
L 334.957686 97.84451 
L 336.249904 95.963397 
L 336.680644 97.358976 
L 337.111383 97.51019 
L 337.542123 100.121007 
L 337.972862 98.02737 
L 339.265081 94.982832 
L 339.69582 95.619254 
L 340.12656 99.661911 
L 340.557299 98.092953 
L 340.988039 92.242729 
L 342.710997 90.946715 
L 343.141736 91.395864 
L 343.572476 93.793287 
L 344.003215 85.733904 
L 345.295434 84.790593 
L 345.726173 85.193514 
L 346.156913 86.757621 
L 346.587652 86.29838 
L 347.018391 86.686196 
L 348.31061 85.499444 
L 348.741349 85.766368 
L 349.172089 83.384739 
L 349.602828 80.375648 
L 350.033568 80.34268 
L 351.325786 80.130445 
L 351.756526 81.602715 
L 352.187265 81.533827 
L 352.618005 82.062769 
L 353.048744 81.859283 
L 354.771702 78.014922 
L 355.202442 77.380219 
L 355.633181 77.042182 
L 356.063921 75.03953 
L 357.356139 73.409693 
L 357.786879 72.565877 
L 358.217618 72.315078 
L 358.648358 70.117578 
L 359.079097 69.908245 
L 360.371316 68.182035 
L 360.802055 69.190425 
L 361.232794 68.176126 
L 361.663534 74.555787 
L 363.386492 76.956563 
L 364.247971 76.054247 
L 364.67871 74.254085 
L 365.10945 77.90737 
L 366.401668 86.682375 
L 366.832408 96.380461 
L 367.263147 98.905646 
L 367.693887 97.868275 
L 368.124626 104.984379 
L 369.416845 106.023242 
L 369.847584 113.962024 
L 370.278324 103.195173 
L 371.139803 107.173537 
L 372.432021 107.20164 
L 372.862761 108.370495 
L 373.2935 110.500352 
L 373.72424 110.406527 
L 374.154979 109.857432 
L 375.447197 110.32026 
L 375.877937 113.434354 
L 376.308676 113.426262 
L 376.739416 107.491095 
L 377.170155 106.911058 
L 378.462374 109.011605 
L 379.323853 112.79511 
L 380.185332 113.029808 
L 381.47755 126.514347 
L 381.90829 129.5665 
L 382.769769 124.799152 
L 383.200508 127.733951 
L 384.923466 121.856332 
L 385.784945 117.510333 
L 386.215685 118.871527 
L 387.507903 119.79483 
L 387.938643 118.623707 
L 388.369382 112.796456 
L 388.800121 115.09015 
L 389.230861 110.515931 
L 390.523079 111.616057 
L 390.953819 110.987177 
L 391.815298 112.434337 
L 392.246037 112.419266 
L 393.538256 111.842803 
L 393.968995 113.822722 
L 394.830474 119.795154 
L 395.261214 125.855069 
L 396.553432 129.387417 
L 396.984172 129.471048 
L 397.414911 133.188171 
L 398.27639 129.914028 
L 399.568609 131.108932 
L 399.999348 134.013569 
L 400.430088 127.128591 
L 400.860827 130.736009 
L 401.291567 129.365001 
L 403.014524 129.55882 
L 403.445264 127.84294 
L 403.876003 128.402867 
L 404.306743 127.455009 
L 405.598961 152.916022 
L 406.029701 156.904621 
L 406.46044 157.28232 
L 406.89118 163.630378 
L 407.321919 160.017801 
L 408.614138 156.964559 
L 409.044877 152.142714 
L 409.475617 166.89916 
L 409.906356 163.722797 
L 410.337096 162.531699 
L 411.629314 161.390407 
L 412.490793 163.48369 
L 412.921533 167.632607 
L 413.352272 167.664466 
L 415.07523 167.941008 
L 415.50597 165.923588 
L 415.936709 168.885687 
L 416.367448 176.16099 
L 417.659667 182.059537 
L 418.090406 182.741294 
L 418.521146 183.728218 
L 418.951885 193.78434 
L 419.382625 174.567065 
L 420.674843 171.371559 
L 421.105583 161.655031 
L 421.536322 158.745176 
L 421.967062 159.399101 
L 422.397801 158.259539 
L 423.69002 165.398472 
L 424.120759 164.881566 
L 424.551499 169.742794 
L 424.982238 176.006084 
L 425.412978 168.243832 
L 426.705196 165.363228 
L 427.135936 165.955404 
L 427.566675 180.542869 
L 427.997415 180.116331 
L 428.428154 185.990547 
L 429.720372 180.647892 
L 430.151112 181.505829 
L 430.581851 181.987654 
L 431.012591 183.697872 
L 431.44333 180.588368 
L 432.735549 176.50669 
L 433.166288 177.122657 
L 433.597028 173.614831 
L 434.027767 157.534485 
L 434.458507 103.722023 
L 435.750725 102.829389 
L 436.181465 104.951516 
L 436.612204 78.924862 
L 437.042944 76.128884 
L 437.473683 75.951206 
L 439.196641 76.020523 
L 439.627381 74.77886 
L 440.05812 73.877748 
L 441.781078 71.721462 
L 442.211818 68.909503 
L 442.642557 63.645226 
L 443.073297 61.345878 
L 443.504036 63.679813 
L 444.796254 63.493674 
L 445.226994 62.557718 
L 445.657733 63.118811 
L 446.088473 63.400498 
L 446.519212 62.885113 
L 447.811431 62.699988 
L 448.24217 62.370321 
L 448.67291 63.496988 
L 449.103649 63.471669 
L 449.534389 63.025855 
L 450.826607 62.10935 
L 451.257347 59.549443 
L 451.688086 61.279176 
L 452.118826 61.231159 
L 452.549565 60.250025 
L 453.841784 58.87434 
L 454.272523 55.928334 
L 454.703263 54.870058 
L 455.134002 54.595514 
L 455.564742 49.929052 
L 457.718439 47.848433 
L 458.149178 47.106029 
L 458.579918 47.916688 
L 459.872136 47.232545 
L 460.302876 47.533795 
L 460.733615 43.849349 
L 461.164355 44.336981 
L 461.595094 42.817062 
L 462.887313 41.823935 
L 463.318052 43.561767 
L 464.179531 43.46309 
L 464.610271 42.33951 
L 465.902489 42.133933 
L 466.333229 41.783824 
L 467.625447 42.768343 
L 468.917666 41.746547 
L 469.348405 42.465457 
L 469.779145 43.518465 
L 470.209884 38.802842 
L 470.640624 39.028795 
L 471.932842 39.222979 
L 472.363581 36.822 
L 472.794321 59.793567 
L 474.948018 57.671586 
L 475.378758 93.437409 
L 475.809497 97.402552 
L 476.240237 98.24141 
L 476.670976 96.13986 
L 477.963195 95.109236 
L 478.393934 95.729044 
L 478.824674 95.609343 
L 479.255413 103.230259 
L 479.686153 115.268534 
L 480.978371 112.672743 
L 481.409111 115.5303 
L 481.83985 119.380647 
L 482.27059 118.188871 
L 483.993548 117.8686 
L 484.424287 115.72955 
L 484.855027 124.852788 
L 485.285766 127.359782 
L 485.716505 127.229127 
L 487.008724 120.348791 
L 487.439463 121.737253 
L 487.870203 119.493751 
L 488.300942 123.686827 
L 488.731682 120.697662 
L 490.0239 120.787166 
L 490.885379 125.758444 
L 491.316119 126.193069 
L 491.746858 126.041326 
L 493.039077 133.694261 
L 493.900556 144.284626 
L 494.331295 155.989283 
L 494.762035 153.465906 
L 496.054253 152.861675 
L 496.484993 151.760102 
L 496.915732 153.06255 
L 497.346472 153.166885 
L 497.777211 153.142469 
L 499.500169 150.523577 
L 499.930908 157.64274 
L 500.361648 154.787988 
L 500.792387 148.95068 
L 502.084606 148.653109 
L 502.515345 149.928773 
L 502.946085 152.873074 
L 503.376824 153.390061 
L 503.807564 159.043857 
L 505.099782 164.287795 
L 505.530522 161.050679 
L 505.961261 165.569784 
L 506.392001 160.736599 
L 506.82274 164.147713 
L 508.114959 169.16728 
L 508.545698 170.35701 
L 508.976438 177.423602 
L 509.407177 174.292498 
L 509.837917 158.509238 
L 511.130135 162.191187 
L 511.991614 158.787096 
L 512.422354 158.152769 
L 512.853093 159.556384 
L 514.145311 159.742242 
L 514.576051 163.971482 
L 515.00679 166.372555 
L 515.43753 164.185169 
L 515.868269 143.202199 
L 517.160488 141.958257 
L 517.591227 143.840866 
L 518.021967 147.881629 
L 518.452706 133.359383 
L 518.883446 132.87219 
L 520.175664 133.36133 
L 520.606404 133.852596 
L 521.037143 136.55423 
L 521.467883 137.462818 
L 521.898622 136.947895 
L 521.898622 136.947895 
" clip-path="url(#pd087c348ee)" style="fill: none; stroke: #c44e52; stroke-width: 2.25; stroke-linecap: round"/>
   </g>
   <g id="patch_3">
    <path d="M 67.360781 245.663056 
L 67.360781 26.877187 
" style="fill: none; stroke: #262626; stroke-width: 1.875; stroke-linejoin: miter; stroke-linecap: square"/>
   </g>
   <g id="patch_4">
    <path d="M 543.543281 245.663056 
L 543.543281 26.877187 
" style="fill: none; stroke: #262626; stroke-width: 1.875; stroke-linejoin: miter; stroke-linecap: square"/>
   </g>
   <g id="patch_5">
    <path d="M 67.360781 245.663056 
L 543.543281 245.663056 
" style="fill: none; stroke: #262626; stroke-width: 1.875; stroke-linejoin: miter; stroke-linecap: square"/>
   </g>
   <g id="patch_6">
    <path d="M 67.360781 26.877187 
L 543.543281 26.877187 
" style="fill: none; stroke: #262626; stroke-width: 1.875; stroke-linejoin: miter; stroke-linecap: square"/>
   </g>
   <g id="text_17">
    <!-- 60-Day Rolling Correlation with the S&amp;P 500 -->
    <g style="fill: #262626" transform="translate(106.720781 20.877187) scale(0.18 -0.18)">
     <defs>
      <path id="DejaVuSans-79" d="M 2059 -325 
Q 1816 -950 1584 -1140 
Q 1353 -1331 966 -1331 
L 506 -1331 
L 506 -850 
L 844 -850 
Q 1081 -850 1212 -737 
Q 1344 -625 1503 -206 
L 1606 56 
L 191 3500 
L 800 3500 
L 1894 763 
L 2988 3500 
L 3597 3500 
L 2059 -325 
z
" transform="scale(0.015625)"/>
      <path id="DejaVuSans-20" transform="scale(0.015625)"/>
      <path id="DejaVuSans-52" d="M 2841 2188 
Q 3044 2119 3236 1894 
Q 3428 1669 3622 1275 
L 4263 0 
L 3584 0 
L 2988 1197 
Q 2756 1666 2539 1819 
Q 2322 1972 1947 1972 
L 1259 1972 
L 1259 0 
L 628 0 
L 628 4666 
L 2053 4666 
Q 2853 4666 3247 4331 
Q 3641 3997 3641 3322 
Q 3641 2881 3436 2590 
Q 3231 2300 2841 2188 
z
M 1259 4147 
L 1259 2491 
L 2053 2491 
Q 2509 2491 2742 2702 
Q 2975 2913 2975 3322 
Q 2975 3731 2742 3939 
Q 2509 4147 2053 4147 
L 1259 4147 
z
" transform="scale(0.015625)"/>
      <path id="DejaVuSans-67" d="M 2906 1791 
Q 2906 2416 2648 2759 
Q 2391 3103 1925 3103 
Q 1463 3103 1205 2759 
Q 947 2416 947 1791 
Q 947 1169 1205 825 
Q 1463 481 1925 481 
Q 2391 481 2648 825 
Q 2906 1169 2906 1791 
z
M 3481 434 
Q 3481 -459 3084 -895 
Q 2688 -1331 1869 -1331 
Q 1566 -1331 1297 -1286 
Q 1028 -1241 775 -1147 
L 775 -588 
Q 1028 -725 1275 -790 
Q 1522 -856 1778 -856 
Q 2344 -856 2625 -561 
Q 2906 -266 2906 331 
L 2906 616 
Q 2728 306 2450 153 
Q 2172 0 1784 0 
Q 1141 0 747 490 
Q 353 981 353 1791 
Q 353 2603 747 3093 
Q 1141 3584 1784 3584 
Q 2172 3584 2450 3431 
Q 2728 3278 2906 2969 
L 2906 3500 
L 3481 3500 
L 3481 434 
z
" transform="scale(0.015625)"/>
      <path id="DejaVuSans-77" d="M 269 3500 
L 844 3500 
L 1563 769 
L 2278 3500 
L 2956 3500 
L 3675 769 
L 4391 3500 
L 4966 3500 
L 4050 0 
L 3372 0 
L 2619 2869 
L 1863 0 
L 1184 0 
L 269 3500 
z
" transform="scale(0.015625)"/>
      <path id="DejaVuSans-68" d="M 3513 2113 
L 3513 0 
L 2938 0 
L 2938 2094 
Q 2938 2591 2744 2837 
Q 2550 3084 2163 3084 
Q 1697 3084 1428 2787 
Q 1159 2491 1159 1978 
L 1159 0 
L 581 0 
L 581 4863 
L 1159 4863 
L 1159 2956 
Q 1366 3272 1645 3428 
Q 1925 3584 2291 3584 
Q 2894 3584 3203 3211 
Q 3513 2838 3513 2113 
z
" transform="scale(0.015625)"/>
      <path id="DejaVuSans-53" d="M 3425 4513 
L 3425 3897 
Q 3066 4069 2747 4153 
Q 2428 4238 2131 4238 
Q 1616 4238 1336 4038 
Q 1056 3838 1056 3469 
Q 1056 3159 1242 3001 
Q 1428 2844 1947 2747 
L 2328 2669 
Q 3034 2534 3370 2195 
Q 3706 1856 3706 1288 
Q 3706 609 3251 259 
Q 2797 -91 1919 -91 
Q 1588 -91 1214 -16 
Q 841 59 441 206 
L 441 856 
Q 825 641 1194 531 
Q 1563 422 1919 422 
Q 2459 422 2753 634 
Q 3047 847 3047 1241 
Q 3047 1584 2836 1778 
Q 2625 1972 2144 2069 
L 1759 2144 
Q 1053 2284 737 2584 
Q 422 2884 422 3419 
Q 422 4038 858 4394 
Q 1294 4750 2059 4750 
Q 2388 4750 2728 4690 
Q 3069 4631 3425 4513 
z
" transform="scale(0.015625)"/>
      <path id="DejaVuSans-26" d="M 1556 2509 
Q 1272 2256 1139 2004 
Q 1006 1753 1006 1478 
Q 1006 1022 1337 719 
Q 1669 416 2169 416 
Q 2466 416 2725 514 
Q 2984 613 3213 813 
L 1556 2509 
z
M 1997 2859 
L 3584 1234 
Q 3769 1513 3872 1830 
Q 3975 2147 3994 2503 
L 4575 2503 
Q 4538 2091 4375 1687 
Q 4213 1284 3922 891 
L 4794 0 
L 4006 0 
L 3559 459 
Q 3234 181 2878 45 
Q 2522 -91 2113 -91 
Q 1359 -91 881 339 
Q 403 769 403 1441 
Q 403 1841 612 2192 
Q 822 2544 1241 2853 
Q 1091 3050 1012 3245 
Q 934 3441 934 3628 
Q 934 4134 1281 4442 
Q 1628 4750 2203 4750 
Q 2463 4750 2720 4694 
Q 2978 4638 3244 4525 
L 3244 3956 
Q 2972 4103 2725 4179 
Q 2478 4256 2266 4256 
Q 1938 4256 1733 4082 
Q 1528 3909 1528 3634 
Q 1528 3475 1620 3314 
Q 1713 3153 1997 2859 
z
" transform="scale(0.015625)"/>
      <path id="DejaVuSans-50" d="M 1259 4147 
L 1259 2394 
L 2053 2394 
Q 2494 2394 2734 2622 
Q 2975 2850 2975 3272 
Q 2975 3691 2734 3919 
Q 2494 4147 2053 4147 
L 1259 4147 
z
M 628 4666 
L 2053 4666 
Q 2838 4666 3239 4311 
Q 3641 3956 3641 3272 
Q 3641 2581 3239 2228 
Q 2838 1875 2053 1875 
L 1259 1875 
L 1259 0 
L 628 0 
L 628 4666 
z
" transform="scale(0.015625)"/>
     </defs>
     <use xlink:href="#DejaVuSans-36"/>
     <use xlink:href="#DejaVuSans-30" transform="translate(63.623047 0)"/>
     <use xlink:href="#DejaVuSans-2d" transform="translate(127.246094 0)"/>
     <use xlink:href="#DejaVuSans-44" transform="translate(163.330078 0)"/>
     <use xlink:href="#DejaVuSans-61" transform="translate(240.332031 0)"/>
     <use xlink:href="#DejaVuSans-79" transform="translate(301.611328 0)"/>
     <use xlink:href="#DejaVuSans-20" transform="translate(360.791016 0)"/>
     <use xlink:href="#DejaVuSans-52" transform="translate(392.578125 0)"/>
     <use xlink:href="#DejaVuSans-6f" transform="translate(457.560547 0)"/>
     <use xlink:href="#DejaVuSans-6c" transform="translate(518.742188 0)"/>
     <use xlink:href="#DejaVuSans-6c" transform="translate(546.525391 0)"/>
     <use xlink:href="#DejaVuSans-69" transform="translate(574.308594 0)"/>
     <use xlink:href="#DejaVuSans-6e" transform="translate(602.091797 0)"/>
     <use xlink:href="#DejaVuSans-67" transform="translate(665.470703 0)"/>
     <use xlink:href="#DejaVuSans-20" transform="translate(728.947266 0)"/>
     <use xlink:href="#DejaVuSans-43" transform="translate(760.734375 0)"/>
     <use xlink:href="#DejaVuSans-6f" transform="translate(830.558594 0)"/>
     <use xlink:href="#DejaVuSans-72" transform="translate(891.740234 0)"/>
     <use xlink:href="#DejaVuSans-72" transform="translate(931.103516 0)"/>
     <use xlink:href="#DejaVuSans-65" transform="translate(969.966797 0)"/>
     <use xlink:href="#DejaVuSans-6c" transform="translate(1031.490234 0)"/>
     <use xlink:href="#DejaVuSans-61" transform="translate(1059.273438 0)"/>
     <use xlink:href="#DejaVuSans-74" transform="translate(1120.552734 0)"/>
     <use xlink:href="#DejaVuSans-69" transform="translate(1159.761719 0)"/>
     <use xlink:href="#DejaVuSans-6f" transform="translate(1187.544922 0)"/>
     <use xlink:href="#DejaVuSans-6e" transform="translate(1248.726562 0)"/>
     <use xlink:href="#DejaVuSans-20" transform="translate(1312.105469 0)"/>
     <use xlink:href="#DejaVuSans-77" transform="translate(1343.892578 0)"/>
     <use xlink:href="#DejaVuSans-69" transform="translate(1425.679688 0)"/>
     <use xlink:href="#DejaVuSans-74" transform="translate(1453.462891 0)"/>
     <use xlink:href="#DejaVuSans-68" transform="translate(1492.671875 0)"/>
     <use xlink:href="#DejaVuSans-20" transform="translate(1556.050781 0)"/>
     <use xlink:href="#DejaVuSans-74" transform="translate(1587.837891 0)"/>
     <use xlink:href="#DejaVuSans-68" transform="translate(1627.046875 0)"/>
     <use xlink:href="#DejaVuSans-65" transform="translate(1690.425781 0)"/>
     <use xlink:href="#DejaVuSans-20" transform="translate(1751.949219 0)"/>
     <use xlink:href="#DejaVuSans-53" transform="translate(1783.736328 0)"/>
     <use xlink:href="#DejaVuSans-26" transform="translate(1847.212891 0)"/>
     <use xlink:href="#DejaVuSans-50" transform="translate(1925.191406 0)"/>
     <use xlink:href="#DejaVuSans-20" transform="translate(1985.494141 0)"/>
     <use xlink:href="#DejaVuSans-35" transform="translate(2017.28125 0)"/>
     <use xlink:href="#DejaVuSans-30" transform="translate(2080.904297 0)"/>
     <use xlink:href="#DejaVuSans-30" transform="translate(2144.527344 0)"/>
    </g>
   </g>
   <g id="legend_1">
    <g id="patch_7">
     <path d="M 78.910781 237.413056 
L 163.633125 237.413056 
Q 166.933125 237.413056 166.933125 234.113056 
L 166.933125 138.887431 
Q 166.933125 135.587431 163.633125 135.587431 
L 78.910781 135.587431 
Q 75.610781 135.587431 75.610781 138.887431 
L 75.610781 234.113056 
Q 75.610781 237.413056 78.910781 237.413056 
z
" style="fill: #ffffff; opacity: 0.8; stroke: #cccccc; stroke-width: 1.5; stroke-linejoin: miter"/>
    </g>
    <g id="line2d_5">
     <path d="M 82.210781 148.949853 
L 98.710781 148.949853 
L 115.210781 148.949853 
" style="fill: none; stroke: #4c72b0; stroke-width: 2.25; stroke-linecap: round"/>
    </g>
    <g id="text_18">
     <!-- TRV -->
     <g style="fill: #262626" transform="translate(128.410781 154.724853) scale(0.165 -0.165)">
      <defs>
       <path id="DejaVuSans-54" d="M -19 4666 
L 3928 4666 
L 3928 4134 
L 2272 4134 
L 2272 0 
L 1638 0 
L 1638 4134 
L -19 4134 
L -19 4666 
z
" transform="scale(0.015625)"/>
       <path id="DejaVuSans-56" d="M 1831 0 
L 50 4666 
L 709 4666 
L 2188 738 
L 3669 4666 
L 4325 4666 
L 2547 0 
L 1831 0 
z
" transform="scale(0.015625)"/>
      </defs>
      <use xlink:href="#DejaVuSans-54"/>
      <use xlink:href="#DejaVuSans-52" transform="translate(61.083984 0)"/>
      <use xlink:href="#DejaVuSans-56" transform="translate(125.066406 0)"/>
     </g>
    </g>
    <g id="line2d_6">
     <path d="M 82.210781 173.16876 
L 98.710781 173.16876 
L 115.210781 173.16876 
" style="fill: none; stroke: #dd8452; stroke-width: 2.25; stroke-linecap: round"/>
    </g>
    <g id="text_19">
     <!-- CB -->
     <g style="fill: #262626" transform="translate(128.410781 178.94376) scale(0.165 -0.165)">
      <defs>
       <path id="DejaVuSans-42" d="M 1259 2228 
L 1259 519 
L 2272 519 
Q 2781 519 3026 730 
Q 3272 941 3272 1375 
Q 3272 1813 3026 2020 
Q 2781 2228 2272 2228 
L 1259 2228 
z
M 1259 4147 
L 1259 2741 
L 2194 2741 
Q 2656 2741 2882 2914 
Q 3109 3088 3109 3444 
Q 3109 3797 2882 3972 
Q 2656 4147 2194 4147 
L 1259 4147 
z
M 628 4666 
L 2241 4666 
Q 2963 4666 3353 4366 
Q 3744 4066 3744 3513 
Q 3744 3084 3544 2831 
Q 3344 2578 2956 2516 
Q 3422 2416 3680 2098 
Q 3938 1781 3938 1306 
Q 3938 681 3513 340 
Q 3088 0 2303 0 
L 628 0 
L 628 4666 
z
" transform="scale(0.015625)"/>
      </defs>
      <use xlink:href="#DejaVuSans-43"/>
      <use xlink:href="#DejaVuSans-42" transform="translate(69.824219 0)"/>
     </g>
    </g>
    <g id="line2d_7">
     <path d="M 82.210781 197.387666 
L 98.710781 197.387666 
L 115.210781 197.387666 
" style="fill: none; stroke: #55a868; stroke-width: 2.25; stroke-linecap: round"/>
    </g>
    <g id="text_20">
     <!-- HIG -->
     <g style="fill: #262626" transform="translate(128.410781 203.162666) scale(0.165 -0.165)">
      <defs>
       <path id="DejaVuSans-48" d="M 628 4666 
L 1259 4666 
L 1259 2753 
L 3553 2753 
L 3553 4666 
L 4184 4666 
L 4184 0 
L 3553 0 
L 3553 2222 
L 1259 2222 
L 1259 0 
L 628 0 
L 628 4666 
z
" transform="scale(0.015625)"/>
       <path id="DejaVuSans-49" d="M 628 4666 
L 1259 4666 
L 1259 0 
L 628 0 
L 628 4666 
z
" transform="scale(0.015625)"/>
       <path id="DejaVuSans-47" d="M 3809 666 
L 3809 1919 
L 2778 1919 
L 2778 2438 
L 4434 2438 
L 4434 434 
Q 4069 175 3628 42 
Q 3188 -91 2688 -91 
Q 1594 -91 976 548 
Q 359 1188 359 2328 
Q 359 3472 976 4111 
Q 1594 4750 2688 4750 
Q 3144 4750 3555 4637 
Q 3966 4525 4313 4306 
L 4313 3634 
Q 3963 3931 3569 4081 
Q 3175 4231 2741 4231 
Q 1884 4231 1454 3753 
Q 1025 3275 1025 2328 
Q 1025 1384 1454 906 
Q 1884 428 2741 428 
Q 3075 428 3337 486 
Q 3600 544 3809 666 
z
" transform="scale(0.015625)"/>
      </defs>
      <use xlink:href="#DejaVuSans-48"/>
      <use xlink:href="#DejaVuSans-49" transform="translate(75.195312 0)"/>
      <use xlink:href="#DejaVuSans-47" transform="translate(104.6875 0)"/>
     </g>
    </g>
    <g id="line2d_8">
     <path d="M 82.210781 221.606572 
L 98.710781 221.606572 
L 115.210781 221.606572 
" style="fill: none; stroke: #c44e52; stroke-width: 2.25; stroke-linecap: round"/>
    </g>
    <g id="text_21">
     <!-- AIG -->
     <g style="fill: #262626" transform="translate(128.410781 227.381572) scale(0.165 -0.165)">
      <defs>
       <path id="DejaVuSans-41" d="M 2188 4044 
L 1331 1722 
L 3047 1722 
L 2188 4044 
z
M 1831 4666 
L 2547 4666 
L 4325 0 
L 3669 0 
L 3244 1197 
L 1141 1197 
L 716 0 
L 50 0 
L 1831 4666 
z
" transform="scale(0.015625)"/>
      </defs>
      <use xlink:href="#DejaVuSans-41"/>
      <use xlink:href="#DejaVuSans-49" transform="translate(68.408203 0)"/>
      <use xlink:href="#DejaVuSans-47" transform="translate(97.900391 0)"/>
     </g>
    </g>
   </g>
  </g>
 </g>
 <defs>
  <clipPath id="pd087c348ee">
   <rect x="67.360781" y="26.877187" width="476.1825" height="218.785869"/>
  </clipPath>
 </defs>
</svg>
